<svg width="362" height="366" viewBox="0 0 362 366" fill="none" xmlns="http://www.w3.org/2000/svg">
<path fill-rule="evenodd" clip-rule="evenodd" d="M219.536 64.6889C240.38 74.9356 243.93 102.235 258.448 120.342C275.659 141.807 308.267 153.113 312.225 180.288C316.266 208.032 295.123 232.584 278.03 254.777C260.362 277.716 241.122 302.088 212.978 309.145C184.887 316.189 156.989 302.234 129.882 291.924C102.391 281.468 67.2024 275.93 55.194 249.133C43.1778 222.318 67.531 193.986 73.0906 165.19C77.6623 141.51 69.9481 114.563 84.8373 95.5909C99.8377 76.4769 126.357 72.5185 150.09 67.0737C173.218 61.768 198.213 54.2064 219.536 64.6889Z" fill="#2B5A51"/>
<path fill-rule="evenodd" clip-rule="evenodd" d="M216.289 76.4C235.077 85.6365 238.278 110.244 251.364 126.566C266.878 145.914 296.271 156.106 299.839 180.601C303.481 205.609 284.423 227.741 269.015 247.745C253.089 268.422 235.746 290.392 210.377 296.753C185.057 303.102 159.909 290.523 135.475 281.23C110.694 271.804 78.9754 266.813 68.151 242.658C57.3197 218.487 79.2716 192.949 84.283 166.991C88.4039 145.647 81.4504 121.357 94.8715 104.255C108.393 87.0257 132.297 83.4577 153.69 78.5498C174.537 73.7671 197.068 66.9511 216.289 76.4Z" stroke="#FBFBFB" stroke-width="2"/>
<path d="M121.807 149.384C121.751 149.412 121.723 149.426 121.723 149.426C121.695 149.426 121.681 149.44 121.681 149.468V149.51C121.737 150.014 121.765 150.434 121.765 150.77C121.765 151.106 121.751 151.442 121.723 151.778C121.723 152.086 121.723 152.408 121.723 152.744C121.751 153.08 121.793 153.472 121.849 153.92C121.989 153.976 122.185 154.018 122.437 154.046C122.717 154.046 123.011 154.046 123.319 154.046C123.655 154.018 123.963 154.004 124.243 154.004C124.551 153.976 124.789 153.976 124.957 154.004C125.041 154.032 125.083 154.158 125.083 154.382C125.111 154.606 125.111 154.858 125.083 155.138C125.083 155.418 125.055 155.698 124.999 155.978C124.971 156.23 124.943 156.412 124.915 156.524C124.803 156.916 124.635 157.238 124.411 157.49C124.187 157.714 123.921 157.896 123.613 158.036C123.221 158.176 122.787 158.288 122.311 158.372C121.863 158.456 121.429 158.47 121.009 158.414C120.617 158.33 120.295 158.204 120.043 158.036C119.511 157.616 119.161 157.042 118.993 156.314C118.825 155.586 118.713 154.914 118.657 154.298C118.573 153.262 118.517 152.17 118.489 151.022C118.461 149.874 118.475 148.768 118.531 147.704C118.587 146.612 118.671 145.59 118.783 144.638C118.923 143.686 119.091 142.874 119.287 142.202C119.343 141.978 119.413 141.754 119.497 141.53C119.609 141.278 119.693 141.124 119.749 141.068C120.085 140.732 120.477 140.564 120.925 140.564C121.373 140.564 121.835 140.578 122.311 140.606C122.731 140.606 123.095 140.746 123.403 141.026C123.711 141.278 123.977 141.586 124.201 141.95C124.453 142.286 124.649 142.664 124.789 143.084C124.957 143.476 125.083 143.812 125.167 144.092C125.587 144.148 125.951 144.19 126.259 144.218C126.567 144.246 126.861 144.26 127.141 144.26C127.449 144.26 127.743 144.26 128.023 144.26C128.331 144.232 128.695 144.218 129.115 144.218C129.563 144.19 129.885 144.176 130.081 144.176C130.277 144.176 130.403 144.134 130.459 144.05L130.501 143.798C130.697 142.09 130.543 140.62 130.039 139.388C129.535 138.128 128.779 137.12 127.771 136.364C126.763 135.608 125.559 135.09 124.159 134.81C122.759 134.502 121.289 134.446 119.749 134.642C118.993 134.754 118.265 134.922 117.565 135.146C116.865 135.37 116.235 135.72 115.675 136.196C114.863 136.756 114.275 137.47 113.911 138.338C113.575 139.206 113.337 140.102 113.197 141.026C113.057 141.922 112.959 142.846 112.903 143.798C112.847 144.722 112.805 145.632 112.777 146.528C112.749 147.564 112.735 148.488 112.735 149.3C112.763 150.084 112.791 150.84 112.819 151.568C112.875 152.268 112.931 152.982 112.987 153.71C113.043 154.438 113.113 155.25 113.197 156.146C113.253 156.706 113.323 157.266 113.407 157.826C113.519 158.358 113.617 158.778 113.701 159.086C114.037 160.29 114.499 161.298 115.087 162.11C115.675 162.922 116.529 163.566 117.649 164.042C118.321 164.322 119.021 164.504 119.749 164.588C120.505 164.672 121.275 164.672 122.059 164.588C122.843 164.532 123.613 164.42 124.369 164.252C125.125 164.112 125.853 163.944 126.553 163.748C127.617 163.356 128.513 162.782 129.241 162.026C129.969 161.27 130.403 160.178 130.543 158.75C130.823 157.238 130.935 155.656 130.879 154.004C130.823 152.324 130.711 150.742 130.543 149.258L130.501 149.216H130.417C130.137 149.216 129.591 149.188 128.779 149.132C127.995 149.048 127.141 148.992 126.217 148.964C125.293 148.936 124.411 148.95 123.571 149.006C122.759 149.034 122.171 149.16 121.807 149.384ZM143.799 131.366C144.135 130.526 144.317 129.63 144.345 128.678C144.401 127.726 144.303 126.816 144.051 125.948C143.743 125.5 143.253 125.192 142.581 125.024C141.937 124.856 141.321 124.758 140.733 124.73C140.089 124.674 139.473 124.716 138.885 124.856C138.325 124.968 137.849 125.206 137.457 125.57C137.233 125.85 137.079 126.13 136.995 126.41C136.799 127.166 136.715 127.964 136.743 128.804C136.799 129.616 136.897 130.414 137.037 131.198C137.177 131.562 137.429 131.856 137.793 132.08C138.157 132.276 138.535 132.388 138.927 132.416C139.319 132.444 139.711 132.458 140.103 132.458C140.495 132.458 140.887 132.43 141.279 132.374C141.755 132.346 142.231 132.276 142.707 132.164C143.183 132.024 143.547 131.758 143.799 131.366ZM139.347 126.83C139.711 126.662 140.131 126.578 140.607 126.578C140.915 126.578 141.209 126.62 141.489 126.704C141.769 126.788 142.021 126.942 142.245 127.166C142.385 127.39 142.483 127.698 142.539 128.09C142.567 128.398 142.553 128.72 142.497 129.056C142.441 129.392 142.385 129.7 142.329 129.98C142.189 130.288 141.923 130.47 141.531 130.526C141.167 130.554 140.831 130.582 140.523 130.61H140.103C139.683 130.61 139.333 130.484 139.053 130.232C138.829 130.008 138.703 129.728 138.675 129.392C138.647 129.028 138.633 128.692 138.633 128.384C138.633 128.188 138.661 127.95 138.717 127.67C138.801 127.306 139.011 127.026 139.347 126.83ZM146.739 149.258C146.627 148.782 146.473 148.138 146.277 147.326C146.081 146.514 145.871 145.618 145.647 144.638C145.423 143.658 145.185 142.636 144.933 141.572C144.709 140.508 144.485 139.514 144.261 138.59C144.065 137.638 143.869 136.798 143.673 136.07C143.505 135.314 143.379 134.754 143.295 134.39C142.371 134.474 141.615 134.53 141.027 134.558C140.467 134.558 140.005 134.558 139.641 134.558C139.277 134.558 138.983 134.558 138.759 134.558C138.535 134.558 138.325 134.572 138.129 134.6C137.457 136.84 136.841 139.094 136.281 141.362C135.721 143.63 135.203 145.814 134.727 147.914C134.251 150.014 133.831 152.002 133.467 153.878C133.131 155.726 132.837 157.364 132.585 158.792C132.333 160.22 132.137 161.382 131.997 162.278C131.857 163.174 131.759 163.72 131.703 163.916C131.731 163.944 131.759 163.958 131.787 163.958C133.691 163.93 135.091 163.944 135.987 164C136.883 164.056 137.443 164.056 137.667 164C137.695 164 137.709 164 137.709 164C137.737 163.972 137.765 163.958 137.793 163.958C138.045 163.482 138.241 162.936 138.381 162.32C138.521 161.704 138.647 161.074 138.759 160.43C138.899 159.758 139.025 159.128 139.137 158.54C139.277 157.924 139.445 157.392 139.641 156.944C139.949 156.944 140.187 156.944 140.355 156.944C140.551 156.916 140.719 156.902 140.859 156.902C141.027 156.902 141.209 156.902 141.405 156.902C141.601 156.902 141.881 156.93 142.245 156.986C142.441 157.406 142.623 157.91 142.791 158.498C142.959 159.086 143.113 159.702 143.253 160.346C143.421 160.99 143.575 161.62 143.715 162.236C143.883 162.852 144.051 163.384 144.219 163.832H144.261C145.157 164.028 146.109 164.14 147.117 164.168C148.125 164.224 149.049 164.168 149.889 164V163.958L146.739 149.258ZM142.455 151.988C141.923 151.988 141.391 152.002 140.859 152.03C140.327 152.03 139.823 152.016 139.347 151.988C139.543 150.56 139.711 149.23 139.851 147.998C140.019 146.766 140.159 145.744 140.271 144.932C140.411 144.12 140.551 143.588 140.691 143.336C140.859 143.056 141.013 143.154 141.153 143.63C141.321 144.106 141.503 145.016 141.699 146.36C141.923 147.704 142.175 149.58 142.455 151.988ZM176.734 150.644C176.874 147.956 176.888 145.31 176.776 142.706C176.664 140.074 176.664 137.414 176.776 134.726C176.328 134.726 175.782 134.74 175.138 134.768C174.522 134.768 173.906 134.782 173.29 134.81C172.702 134.838 172.142 134.866 171.61 134.894C171.106 134.922 170.756 134.922 170.56 134.894C170.308 135.23 170.042 135.762 169.762 136.49C169.51 137.218 169.272 137.96 169.048 138.716C168.852 139.444 168.656 140.088 168.46 140.648C168.292 141.208 168.166 141.474 168.082 141.446C167.998 141.446 167.914 141.404 167.83 141.32C167.606 140.984 167.382 140.522 167.158 139.934C166.962 139.346 166.752 138.73 166.528 138.086C166.304 137.442 166.066 136.84 165.814 136.28C165.562 135.692 165.31 135.258 165.058 134.978H165.016C164.54 135.006 164.05 135.02 163.546 135.02C163.042 134.992 162.538 134.978 162.034 134.978C161.53 134.95 161.04 134.95 160.564 134.978C160.088 135.006 159.668 135.076 159.304 135.188C159.276 138.996 159.248 142.328 159.22 145.184C159.22 148.04 159.206 150.504 159.178 152.576C159.178 154.648 159.178 156.384 159.178 157.784C159.178 159.184 159.178 160.318 159.178 161.186C159.206 162.026 159.234 162.656 159.262 163.076C159.29 163.496 159.318 163.762 159.346 163.874C159.374 163.958 159.416 164 159.472 164C160.368 164 161.348 164.014 162.412 164.042C163.476 164.07 164.456 164.014 165.352 163.874C165.184 161.27 165.058 158.624 164.974 155.936C164.918 153.248 165.002 150.588 165.226 147.956C165.226 147.956 165.268 148.096 165.352 148.376C165.464 148.656 165.59 149.006 165.73 149.426C165.87 149.846 166.038 150.308 166.234 150.812C166.43 151.316 166.612 151.792 166.78 152.24C166.976 152.688 167.158 153.066 167.326 153.374C167.522 153.654 167.69 153.794 167.83 153.794C167.942 153.794 168.11 153.528 168.334 152.996C168.558 152.464 168.796 151.848 169.048 151.148C169.3 150.448 169.552 149.776 169.804 149.132C170.056 148.46 170.28 147.97 170.476 147.662C170.616 148.838 170.714 150.126 170.77 151.526C170.854 152.926 170.896 154.354 170.896 155.81C170.924 157.266 170.938 158.694 170.938 160.094C170.966 161.494 171.008 162.796 171.064 164C171.4 164 171.792 164 172.24 164C172.716 163.972 173.206 163.958 173.71 163.958C174.214 163.958 174.718 163.958 175.222 163.958C175.726 163.958 176.188 163.986 176.608 164.042L176.734 150.644ZM193.701 149.258C193.589 148.782 193.435 148.138 193.239 147.326C193.043 146.514 192.833 145.618 192.609 144.638C192.385 143.658 192.147 142.636 191.895 141.572C191.671 140.508 191.447 139.514 191.223 138.59C191.027 137.638 190.831 136.798 190.635 136.07C190.467 135.314 190.341 134.754 190.257 134.39C189.333 134.474 188.577 134.53 187.989 134.558C187.429 134.558 186.967 134.558 186.603 134.558C186.239 134.558 185.945 134.558 185.721 134.558C185.497 134.558 185.287 134.572 185.091 134.6C184.419 136.84 183.803 139.094 183.243 141.362C182.683 143.63 182.165 145.814 181.689 147.914C181.213 150.014 180.793 152.002 180.429 153.878C180.093 155.726 179.799 157.364 179.547 158.792C179.295 160.22 179.099 161.382 178.959 162.278C178.819 163.174 178.721 163.72 178.665 163.916C178.693 163.944 178.721 163.958 178.749 163.958C180.653 163.93 182.053 163.944 182.949 164C183.845 164.056 184.405 164.056 184.629 164C184.657 164 184.671 164 184.671 164C184.699 163.972 184.727 163.958 184.755 163.958C185.007 163.482 185.203 162.936 185.343 162.32C185.483 161.704 185.609 161.074 185.721 160.43C185.861 159.758 185.987 159.128 186.099 158.54C186.239 157.924 186.407 157.392 186.603 156.944C186.911 156.944 187.149 156.944 187.317 156.944C187.513 156.916 187.681 156.902 187.821 156.902C187.989 156.902 188.171 156.902 188.367 156.902C188.563 156.902 188.843 156.93 189.207 156.986C189.403 157.406 189.585 157.91 189.753 158.498C189.921 159.086 190.075 159.702 190.215 160.346C190.383 160.99 190.537 161.62 190.677 162.236C190.845 162.852 191.013 163.384 191.181 163.832H191.223C192.119 164.028 193.071 164.14 194.079 164.168C195.087 164.224 196.011 164.168 196.851 164V163.958L193.701 149.258ZM189.417 151.988C188.885 151.988 188.353 152.002 187.821 152.03C187.289 152.03 186.785 152.016 186.309 151.988C186.505 150.56 186.673 149.23 186.813 147.998C186.981 146.766 187.121 145.744 187.233 144.932C187.373 144.12 187.513 143.588 187.653 143.336C187.821 143.056 187.975 143.154 188.115 143.63C188.283 144.106 188.465 145.016 188.661 146.36C188.885 147.704 189.137 149.58 189.417 151.988ZM215.986 150.644C216.126 147.956 216.14 145.31 216.028 142.706C215.916 140.074 215.916 137.414 216.028 134.726C215.58 134.726 215.034 134.74 214.39 134.768C213.774 134.768 213.158 134.782 212.542 134.81C211.954 134.838 211.394 134.866 210.862 134.894C210.358 134.922 210.008 134.922 209.812 134.894C209.56 135.23 209.294 135.762 209.014 136.49C208.762 137.218 208.524 137.96 208.3 138.716C208.104 139.444 207.908 140.088 207.712 140.648C207.544 141.208 207.418 141.474 207.334 141.446C207.25 141.446 207.166 141.404 207.082 141.32C206.858 140.984 206.634 140.522 206.41 139.934C206.214 139.346 206.004 138.73 205.78 138.086C205.556 137.442 205.318 136.84 205.066 136.28C204.814 135.692 204.562 135.258 204.31 134.978H204.268C203.792 135.006 203.302 135.02 202.798 135.02C202.294 134.992 201.79 134.978 201.286 134.978C200.782 134.95 200.292 134.95 199.816 134.978C199.34 135.006 198.92 135.076 198.556 135.188C198.528 138.996 198.5 142.328 198.472 145.184C198.472 148.04 198.458 150.504 198.43 152.576C198.43 154.648 198.43 156.384 198.43 157.784C198.43 159.184 198.43 160.318 198.43 161.186C198.458 162.026 198.486 162.656 198.514 163.076C198.542 163.496 198.57 163.762 198.598 163.874C198.626 163.958 198.668 164 198.724 164C199.62 164 200.6 164.014 201.664 164.042C202.728 164.07 203.708 164.014 204.604 163.874C204.436 161.27 204.31 158.624 204.226 155.936C204.17 153.248 204.254 150.588 204.478 147.956C204.478 147.956 204.52 148.096 204.604 148.376C204.716 148.656 204.842 149.006 204.982 149.426C205.122 149.846 205.29 150.308 205.486 150.812C205.682 151.316 205.864 151.792 206.032 152.24C206.228 152.688 206.41 153.066 206.578 153.374C206.774 153.654 206.942 153.794 207.082 153.794C207.194 153.794 207.362 153.528 207.586 152.996C207.81 152.464 208.048 151.848 208.3 151.148C208.552 150.448 208.804 149.776 209.056 149.132C209.308 148.46 209.532 147.97 209.728 147.662C209.868 148.838 209.966 150.126 210.022 151.526C210.106 152.926 210.148 154.354 210.148 155.81C210.176 157.266 210.19 158.694 210.19 160.094C210.218 161.494 210.26 162.796 210.316 164C210.652 164 211.044 164 211.492 164C211.968 163.972 212.458 163.958 212.962 163.958C213.466 163.958 213.97 163.958 214.474 163.958C214.978 163.958 215.44 163.986 215.86 164.042L215.986 150.644ZM232.953 149.258C232.841 148.782 232.687 148.138 232.491 147.326C232.295 146.514 232.085 145.618 231.861 144.638C231.637 143.658 231.399 142.636 231.147 141.572C230.923 140.508 230.699 139.514 230.475 138.59C230.279 137.638 230.083 136.798 229.887 136.07C229.719 135.314 229.593 134.754 229.509 134.39C228.585 134.474 227.829 134.53 227.241 134.558C226.681 134.558 226.219 134.558 225.855 134.558C225.491 134.558 225.197 134.558 224.973 134.558C224.749 134.558 224.539 134.572 224.343 134.6C223.671 136.84 223.055 139.094 222.495 141.362C221.935 143.63 221.417 145.814 220.941 147.914C220.465 150.014 220.045 152.002 219.681 153.878C219.345 155.726 219.051 157.364 218.799 158.792C218.547 160.22 218.351 161.382 218.211 162.278C218.071 163.174 217.973 163.72 217.917 163.916C217.945 163.944 217.973 163.958 218.001 163.958C219.905 163.93 221.305 163.944 222.201 164C223.097 164.056 223.657 164.056 223.881 164C223.909 164 223.923 164 223.923 164C223.951 163.972 223.979 163.958 224.007 163.958C224.259 163.482 224.455 162.936 224.595 162.32C224.735 161.704 224.861 161.074 224.973 160.43C225.113 159.758 225.239 159.128 225.351 158.54C225.491 157.924 225.659 157.392 225.855 156.944C226.163 156.944 226.401 156.944 226.569 156.944C226.765 156.916 226.933 156.902 227.073 156.902C227.241 156.902 227.423 156.902 227.619 156.902C227.815 156.902 228.095 156.93 228.459 156.986C228.655 157.406 228.837 157.91 229.005 158.498C229.173 159.086 229.327 159.702 229.467 160.346C229.635 160.99 229.789 161.62 229.929 162.236C230.097 162.852 230.265 163.384 230.433 163.832H230.475C231.371 164.028 232.323 164.14 233.331 164.168C234.339 164.224 235.263 164.168 236.103 164V163.958L232.953 149.258ZM228.669 151.988C228.137 151.988 227.605 152.002 227.073 152.03C226.541 152.03 226.037 152.016 225.561 151.988C225.757 150.56 225.925 149.23 226.065 147.998C226.233 146.766 226.373 145.744 226.485 144.932C226.625 144.12 226.765 143.588 226.905 143.336C227.073 143.056 227.227 143.154 227.367 143.63C227.535 144.106 227.717 145.016 227.913 146.36C228.137 147.704 228.389 149.58 228.669 151.988ZM241.336 163.916C241.644 163.916 241.896 163.93 242.092 163.958C242.316 163.958 242.596 163.958 242.932 163.958H243.226C243.226 163.146 243.24 162.306 243.268 161.438C243.296 160.542 243.324 159.702 243.352 158.918C242.932 158.918 242.498 158.904 242.05 158.876C241.602 158.82 241.14 158.778 240.664 158.75C240.216 158.722 239.782 158.722 239.362 158.75C238.942 158.778 238.564 158.862 238.228 159.002V159.044C238.228 159.436 238.2 159.912 238.144 160.472C238.088 161.032 238.046 161.578 238.018 162.11C237.99 162.614 237.976 163.048 237.976 163.412C237.976 163.776 238.018 163.958 238.102 163.958L241.252 163.916H241.336ZM237.976 134.516C237.864 136.42 237.794 138.31 237.766 140.186C237.766 142.062 237.78 143.924 237.808 145.772C237.836 147.62 237.85 149.468 237.85 151.316C237.878 153.164 237.878 155.012 237.85 156.86H237.892C238.704 156.832 239.628 156.818 240.664 156.818C241.7 156.79 242.582 156.734 243.31 156.65C243.142 153.066 243.072 149.37 243.1 145.562C243.156 141.726 243.212 138.016 243.268 134.432C242.484 134.208 241.602 134.152 240.622 134.264C239.67 134.376 238.83 134.46 238.102 134.516H237.976Z" fill="#B2DBC3"/>
<path d="M102.792 195.21H105.537V203H106.594V195.21H109.338V194.273H102.792V195.21ZM110.153 203H111.159V198.858C111.159 197.972 111.857 197.324 112.812 197.324C113.08 197.324 113.357 197.375 113.426 197.392V196.369C113.311 196.361 113.046 196.352 112.897 196.352C112.113 196.352 111.431 196.795 111.193 197.443H111.124V196.455H110.153V203ZM116.544 203.153C117.686 203.153 118.282 202.54 118.487 202.114H118.538V203H119.544V198.688C119.544 196.608 117.959 196.369 117.123 196.369C116.135 196.369 115.01 196.71 114.498 197.903L115.453 198.244C115.675 197.767 116.199 197.256 117.157 197.256C118.082 197.256 118.538 197.746 118.538 198.585V198.619C118.538 199.105 118.044 199.062 116.851 199.216C115.636 199.374 114.311 199.642 114.311 201.142C114.311 202.42 115.3 203.153 116.544 203.153ZM116.697 202.25C115.896 202.25 115.317 201.892 115.317 201.193C115.317 200.426 116.015 200.188 116.8 200.085C117.226 200.034 118.368 199.915 118.538 199.71V200.631C118.538 201.449 117.89 202.25 116.697 202.25ZM115.964 195.364C116.356 195.364 116.646 195.04 116.646 194.682C116.646 194.29 116.356 194 115.964 194C115.606 194 115.282 194.29 115.282 194.682C115.282 195.04 115.606 195.364 115.964 195.364ZM118.419 195.364C118.811 195.364 119.101 195.04 119.101 194.682C119.101 194.29 118.811 194 118.419 194C118.061 194 117.737 194.29 117.737 194.682C117.737 195.04 118.061 195.364 118.419 195.364ZM124.294 196.455H122.828V195.79C122.828 195.142 123.101 194.801 123.766 194.801C124.056 194.801 124.226 194.869 124.328 194.903L124.618 194.034C124.465 193.966 124.158 193.864 123.664 193.864C122.726 193.864 121.823 194.426 121.823 195.551V196.455H120.766V197.307H121.823V203H122.828V197.307H124.294V196.455ZM128.618 196.455H127.153V195.79C127.153 195.142 127.425 194.801 128.09 194.801C128.38 194.801 128.55 194.869 128.653 194.903L128.942 194.034C128.789 193.966 128.482 193.864 127.988 193.864C127.05 193.864 126.147 194.426 126.147 195.551V196.455H125.09V197.307H126.147V203H127.153V197.307H128.618V196.455ZM131.767 203.153C132.909 203.153 133.505 202.54 133.71 202.114H133.761V203H134.767V198.688C134.767 196.608 133.181 196.369 132.346 196.369C131.357 196.369 130.232 196.71 129.721 197.903L130.676 198.244C130.897 197.767 131.421 197.256 132.38 197.256C133.305 197.256 133.761 197.746 133.761 198.585V198.619C133.761 199.105 133.267 199.062 132.073 199.216C130.859 199.374 129.534 199.642 129.534 201.142C129.534 202.42 130.522 203.153 131.767 203.153ZM131.92 202.25C131.119 202.25 130.539 201.892 130.539 201.193C130.539 200.426 131.238 200.188 132.022 200.085C132.448 200.034 133.59 199.915 133.761 199.71V200.631C133.761 201.449 133.113 202.25 131.92 202.25ZM140.983 199.062C140.983 197.92 141.69 197.273 142.653 197.273C143.586 197.273 144.153 197.882 144.153 198.909V203H145.159V198.841C145.159 197.17 144.268 196.369 142.943 196.369C141.954 196.369 141.341 196.812 141.034 197.477H140.949V196.455H139.977V203H140.983V199.062ZM147.41 205.438C148.318 205.438 148.961 204.956 149.336 203.955L152.123 196.472L151.024 196.455L149.217 201.67H149.149L147.342 196.455H146.251L148.671 203.034L148.484 203.545C148.126 204.526 147.666 204.619 146.933 204.432L146.677 205.318C146.779 205.369 147.069 205.438 147.41 205.438ZM155.181 203.153C156.323 203.153 156.919 202.54 157.124 202.114H157.175V203H158.181V198.688C158.181 196.608 156.595 196.369 155.76 196.369C154.771 196.369 153.646 196.71 153.135 197.903L154.09 198.244C154.311 197.767 154.835 197.256 155.794 197.256C156.719 197.256 157.175 197.746 157.175 198.585V198.619C157.175 199.105 156.681 199.062 155.487 199.216C154.273 199.374 152.948 199.642 152.948 201.142C152.948 202.42 153.936 203.153 155.181 203.153ZM155.334 202.25C154.533 202.25 153.953 201.892 153.953 201.193C153.953 200.426 154.652 200.188 155.436 200.085C155.862 200.034 157.004 199.915 157.175 199.71V200.631C157.175 201.449 156.527 202.25 155.334 202.25ZM163.391 203H164.397V198.909C164.397 197.95 165.096 197.273 165.88 197.273C166.643 197.273 167.175 197.771 167.175 198.517V203H168.198V198.739C168.198 197.895 168.726 197.273 169.647 197.273C170.363 197.273 170.976 197.652 170.976 198.619V203H171.982V198.619C171.982 197.081 171.155 196.369 169.988 196.369C169.05 196.369 168.364 196.8 168.028 197.477H167.959C167.635 196.778 167.064 196.369 166.204 196.369C165.351 196.369 164.721 196.778 164.448 197.477H164.363V196.455H163.391V203ZM175.747 203.153C176.889 203.153 177.486 202.54 177.69 202.114H177.741V203H178.747V198.688C178.747 196.608 177.162 196.369 176.327 196.369C175.338 196.369 174.213 196.71 173.702 197.903L174.656 198.244C174.878 197.767 175.402 197.256 176.361 197.256C177.285 197.256 177.741 197.746 177.741 198.585V198.619C177.741 199.105 177.247 199.062 176.054 199.216C174.839 199.374 173.514 199.642 173.514 201.142C173.514 202.42 174.503 203.153 175.747 203.153ZM175.9 202.25C175.099 202.25 174.52 201.892 174.52 201.193C174.52 200.426 175.219 200.188 176.003 200.085C176.429 200.034 177.571 199.915 177.741 199.71V200.631C177.741 201.449 177.094 202.25 175.9 202.25ZM180.583 203H181.588V198.909C181.588 197.95 182.287 197.273 183.071 197.273C183.834 197.273 184.367 197.771 184.367 198.517V203H185.389V198.739C185.389 197.895 185.918 197.273 186.838 197.273C187.554 197.273 188.168 197.652 188.168 198.619V203H189.173V198.619C189.173 197.081 188.347 196.369 187.179 196.369C186.242 196.369 185.556 196.8 185.219 197.477H185.151C184.827 196.778 184.256 196.369 183.395 196.369C182.543 196.369 181.912 196.778 181.639 197.477H181.554V196.455H180.583V203ZM191.012 203H192.018V198.909C192.018 197.95 192.717 197.273 193.501 197.273C194.264 197.273 194.796 197.771 194.796 198.517V203H195.819V198.739C195.819 197.895 196.347 197.273 197.268 197.273C197.984 197.273 198.597 197.652 198.597 198.619V203H199.603V198.619C199.603 197.081 198.776 196.369 197.609 196.369C196.671 196.369 195.985 196.8 195.649 197.477H195.58C195.257 196.778 194.686 196.369 193.825 196.369C192.972 196.369 192.342 196.778 192.069 197.477H191.984V196.455H191.012V203ZM203.368 203.153C204.51 203.153 205.107 202.54 205.311 202.114H205.362V203H206.368V198.688C206.368 196.608 204.783 196.369 203.948 196.369C202.959 196.369 201.834 196.71 201.323 197.903L202.277 198.244C202.499 197.767 203.023 197.256 203.982 197.256C204.906 197.256 205.362 197.746 205.362 198.585V198.619C205.362 199.105 204.868 199.062 203.675 199.216C202.46 199.374 201.135 199.642 201.135 201.142C201.135 202.42 202.124 203.153 203.368 203.153ZM203.521 202.25C202.72 202.25 202.141 201.892 202.141 201.193C202.141 200.426 202.84 200.188 203.624 200.085C204.05 200.034 205.192 199.915 205.362 199.71V200.631C205.362 201.449 204.715 202.25 203.521 202.25ZM208.204 203H209.209V200.55L209.912 199.898L212.363 203H213.641L210.671 199.25L213.437 196.455H212.192L209.329 199.369H209.209V194.273H208.204V203ZM217.121 203.136C218.893 203.136 220.086 201.79 220.086 199.761C220.086 197.716 218.893 196.369 217.121 196.369C215.348 196.369 214.155 197.716 214.155 199.761C214.155 201.79 215.348 203.136 217.121 203.136ZM217.121 202.233C215.774 202.233 215.16 201.074 215.16 199.761C215.16 198.449 215.774 197.273 217.121 197.273C218.467 197.273 219.081 198.449 219.081 199.761C219.081 201.074 218.467 202.233 217.121 202.233ZM221.622 203H222.627V198.909C222.627 197.95 223.326 197.273 224.11 197.273C224.873 197.273 225.406 197.771 225.406 198.517V203H226.428V198.739C226.428 197.895 226.957 197.273 227.877 197.273C228.593 197.273 229.207 197.652 229.207 198.619V203H230.213V198.619C230.213 197.081 229.386 196.369 228.218 196.369C227.281 196.369 226.595 196.8 226.258 197.477H226.19C225.866 196.778 225.295 196.369 224.434 196.369C223.582 196.369 222.951 196.778 222.678 197.477H222.593V196.455H221.622V203ZM232.051 205.455H233.057V201.994H233.142C233.364 202.352 233.79 203.136 235.051 203.136C236.688 203.136 237.83 201.824 237.83 199.744C237.83 197.682 236.688 196.369 235.034 196.369C233.756 196.369 233.364 197.153 233.142 197.494H233.023V196.455H232.051V205.455ZM233.04 199.727C233.04 198.261 233.688 197.273 234.915 197.273C236.193 197.273 236.824 198.347 236.824 199.727C236.824 201.125 236.176 202.233 234.915 202.233C233.705 202.233 233.04 201.21 233.04 199.727ZM239.364 203H240.369V196.455H239.364V203ZM239.875 195.364C240.267 195.364 240.591 195.057 240.591 194.682C240.591 194.307 240.267 194 239.875 194C239.483 194 239.159 194.307 239.159 194.682C239.159 195.057 239.483 195.364 239.875 195.364ZM246.848 197.92C246.532 196.991 245.825 196.369 244.53 196.369C243.149 196.369 242.126 197.153 242.126 198.261C242.126 199.165 242.663 199.77 243.865 200.051L244.956 200.307C245.616 200.46 245.927 200.776 245.927 201.227C245.927 201.79 245.331 202.25 244.393 202.25C243.571 202.25 243.055 201.896 242.876 201.193L241.922 201.432C242.156 202.544 243.072 203.136 244.41 203.136C245.932 203.136 246.967 202.305 246.967 201.176C246.967 200.264 246.396 199.689 245.229 199.403L244.257 199.165C243.481 198.973 243.132 198.713 243.132 198.21C243.132 197.648 243.729 197.239 244.53 197.239C245.407 197.239 245.77 197.724 245.944 198.176L246.848 197.92ZM250.407 203.153C251.549 203.153 252.146 202.54 252.35 202.114H252.401V203H253.407V198.688C253.407 196.608 251.822 196.369 250.987 196.369C249.998 196.369 248.873 196.71 248.362 197.903L249.316 198.244C249.538 197.767 250.062 197.256 251.021 197.256C251.945 197.256 252.401 197.746 252.401 198.585V198.619C252.401 199.105 251.907 199.062 250.714 199.216C249.499 199.374 248.174 199.642 248.174 201.142C248.174 202.42 249.163 203.153 250.407 203.153ZM250.561 202.25C249.759 202.25 249.18 201.892 249.18 201.193C249.18 200.426 249.879 200.188 250.663 200.085C251.089 200.034 252.231 199.915 252.401 199.71V200.631C252.401 201.449 251.754 202.25 250.561 202.25ZM255.243 203H256.248V198.858C256.248 197.972 256.947 197.324 257.902 197.324C258.17 197.324 258.447 197.375 258.515 197.392V196.369C258.4 196.361 258.136 196.352 257.987 196.352C257.203 196.352 256.521 196.795 256.282 197.443H256.214V196.455H255.243V203ZM117.872 211.455H116.406V210.79C116.406 210.142 116.679 209.801 117.344 209.801C117.634 209.801 117.804 209.869 117.906 209.903L118.196 209.034C118.043 208.966 117.736 208.864 117.242 208.864C116.304 208.864 115.401 209.426 115.401 210.551V211.455H114.344V212.307H115.401V218H116.406V212.307H117.872V211.455ZM119.282 218H120.287V213.858C120.287 212.972 120.986 212.324 121.941 212.324C122.209 212.324 122.486 212.375 122.555 212.392V211.369C122.439 211.361 122.175 211.352 122.026 211.352C121.242 211.352 120.56 211.795 120.322 212.443H120.253V211.455H119.282V218ZM125.673 218.153C126.815 218.153 127.411 217.54 127.616 217.114H127.667V218H128.673V213.688C128.673 211.608 127.088 211.369 126.252 211.369C125.264 211.369 124.139 211.71 123.627 212.903L124.582 213.244C124.803 212.767 125.328 212.256 126.286 212.256C127.211 212.256 127.667 212.746 127.667 213.585V213.619C127.667 214.105 127.173 214.062 125.98 214.216C124.765 214.374 123.44 214.642 123.44 216.142C123.44 217.42 124.428 218.153 125.673 218.153ZM126.32 210.722C127.19 210.722 127.855 210.091 127.855 209.273C127.855 208.455 127.19 207.773 126.32 207.773C125.451 207.773 124.769 208.455 124.769 209.273C124.769 210.091 125.451 210.722 126.32 210.722ZM125.826 217.25C125.025 217.25 124.445 216.892 124.445 216.193C124.445 215.426 125.144 215.188 125.928 215.085C126.355 215.034 127.497 214.915 127.667 214.71V215.631C127.667 216.449 127.019 217.25 125.826 217.25ZM126.32 210.074C125.843 210.074 125.502 209.682 125.502 209.273C125.502 208.847 125.843 208.438 126.32 208.438C126.798 208.438 127.139 208.847 127.139 209.273C127.139 209.682 126.798 210.074 126.32 210.074ZM131.514 214.062C131.514 212.92 132.221 212.273 133.184 212.273C134.118 212.273 134.684 212.882 134.684 213.909V218H135.69V213.841C135.69 212.17 134.8 211.369 133.474 211.369C132.486 211.369 131.872 211.812 131.565 212.477H131.48V211.455H130.508V218H131.514V214.062ZM141.909 214.062C141.909 212.92 142.637 212.273 143.63 212.273C144.576 212.273 145.147 212.869 145.147 213.909V218H146.153V213.841C146.153 212.158 145.258 211.369 143.92 211.369C142.889 211.369 142.301 211.8 141.994 212.477H141.909V209.273H140.903V218H141.909V214.062ZM150.737 218.136C152.067 218.136 153.038 217.472 153.345 216.483L152.373 216.21C152.118 216.892 151.525 217.233 150.737 217.233C149.557 217.233 148.743 216.47 148.696 215.068H153.447V214.642C153.447 212.205 151.998 211.369 150.635 211.369C148.862 211.369 147.686 212.767 147.686 214.778C147.686 216.79 148.845 218.136 150.737 218.136ZM148.696 214.199C148.764 213.18 149.484 212.273 150.635 212.273C151.726 212.273 152.425 213.091 152.425 214.199H148.696ZM155.983 209.273H154.977V218H155.983V209.273ZM159.751 218.153C160.893 218.153 161.49 217.54 161.694 217.114H161.745V218H162.751V213.688C162.751 211.608 161.166 211.369 160.33 211.369C159.342 211.369 158.217 211.71 157.705 212.903L158.66 213.244C158.882 212.767 159.406 212.256 160.365 212.256C161.289 212.256 161.745 212.746 161.745 213.585V213.619C161.745 214.105 161.251 214.062 160.058 214.216C158.843 214.374 157.518 214.642 157.518 216.142C157.518 217.42 158.507 218.153 159.751 218.153ZM159.904 217.25C159.103 217.25 158.524 216.892 158.524 216.193C158.524 215.426 159.222 215.188 160.007 215.085C160.433 215.034 161.575 214.915 161.745 214.71V215.631C161.745 216.449 161.097 217.25 159.904 217.25ZM173.314 211.455H172.223L170.416 216.67H170.348L168.541 211.455H167.45L169.871 218H170.893L173.314 211.455ZM176.368 218.153C177.51 218.153 178.107 217.54 178.311 217.114H178.362V218H179.368V213.688C179.368 211.608 177.783 211.369 176.948 211.369C175.959 211.369 174.834 211.71 174.323 212.903L175.277 213.244C175.499 212.767 176.023 212.256 176.982 212.256C177.906 212.256 178.362 212.746 178.362 213.585V213.619C178.362 214.105 177.868 214.062 176.675 214.216C175.46 214.374 174.135 214.642 174.135 216.142C174.135 217.42 175.124 218.153 176.368 218.153ZM176.521 217.25C175.72 217.25 175.141 216.892 175.141 216.193C175.141 215.426 175.84 215.188 176.624 215.085C177.05 215.034 178.192 214.915 178.362 214.71V215.631C178.362 216.449 177.715 217.25 176.521 217.25ZM175.789 210.364C176.181 210.364 176.47 210.04 176.47 209.682C176.47 209.29 176.181 209 175.789 209C175.431 209 175.107 209.29 175.107 209.682C175.107 210.04 175.431 210.364 175.789 210.364ZM178.243 210.364C178.635 210.364 178.925 210.04 178.925 209.682C178.925 209.29 178.635 209 178.243 209C177.885 209 177.561 209.29 177.561 209.682C177.561 210.04 177.885 210.364 178.243 210.364ZM181.204 218H182.209V213.858C182.209 212.972 182.908 212.324 183.863 212.324C184.131 212.324 184.408 212.375 184.476 212.392V211.369C184.361 211.361 184.097 211.352 183.948 211.352C183.164 211.352 182.482 211.795 182.243 212.443H182.175V211.455H181.204V218ZM186.674 209.273H185.669V218H186.674V209.273ZM190.988 218.136C192.249 218.136 192.675 217.352 192.897 216.994H193.016V218H193.988V209.273H192.982V212.494H192.897C192.675 212.153 192.283 211.369 191.005 211.369C189.351 211.369 188.209 212.682 188.209 214.744C188.209 216.824 189.351 218.136 190.988 218.136ZM191.124 217.233C189.863 217.233 189.215 216.125 189.215 214.727C189.215 213.347 189.846 212.273 191.124 212.273C192.351 212.273 192.999 213.261 192.999 214.727C192.999 216.21 192.334 217.233 191.124 217.233ZM198.714 218.136C200.043 218.136 201.015 217.472 201.322 216.483L200.35 216.21C200.094 216.892 199.502 217.233 198.714 217.233C197.533 217.233 196.719 216.47 196.672 215.068H201.424V214.642C201.424 212.205 199.975 211.369 198.611 211.369C196.839 211.369 195.662 212.767 195.662 214.778C195.662 216.79 196.822 218.136 198.714 218.136ZM196.672 214.199C196.741 213.18 197.461 212.273 198.611 212.273C199.702 212.273 200.401 213.091 200.401 214.199H196.672ZM203.959 214.062C203.959 212.92 204.667 212.273 205.63 212.273C206.563 212.273 207.13 212.882 207.13 213.909V218H208.135V213.841C208.135 212.17 207.245 211.369 205.92 211.369C204.931 211.369 204.317 211.812 204.01 212.477H203.925V211.455H202.954V218H203.959V214.062ZM216.263 211.455H214.797V210.79C214.797 210.142 215.07 209.801 215.735 209.801C216.024 209.801 216.195 209.869 216.297 209.903L216.587 209.034C216.433 208.966 216.127 208.864 215.632 208.864C214.695 208.864 213.791 209.426 213.791 210.551V211.455H212.735V212.307H213.791V218H214.797V212.307H216.263V211.455ZM220.062 218.136C221.835 218.136 223.028 216.79 223.028 214.761C223.028 212.716 221.835 211.369 220.062 211.369C218.289 211.369 217.096 212.716 217.096 214.761C217.096 216.79 218.289 218.136 220.062 218.136ZM220.062 217.233C218.715 217.233 218.102 216.074 218.102 214.761C218.102 213.449 218.715 212.273 220.062 212.273C221.409 212.273 222.022 213.449 222.022 214.761C222.022 216.074 221.409 217.233 220.062 217.233ZM218.835 210.364C219.227 210.364 219.517 210.04 219.517 209.682C219.517 209.29 219.227 209 218.835 209C218.477 209 218.153 209.29 218.153 209.682C218.153 210.04 218.477 210.364 218.835 210.364ZM221.289 210.364C221.681 210.364 221.971 210.04 221.971 209.682C221.971 209.29 221.681 209 221.289 209C220.931 209 220.607 209.29 220.607 209.682C220.607 210.04 220.931 210.364 221.289 210.364ZM224.563 218H225.569V213.858C225.569 212.972 226.268 212.324 227.222 212.324C227.491 212.324 227.768 212.375 227.836 212.392V211.369C227.721 211.361 227.456 211.352 227.307 211.352C226.523 211.352 225.841 211.795 225.603 212.443H225.535V211.455H224.563V218ZM234.329 218.153C235.471 218.153 236.068 217.54 236.272 217.114H236.323V218H237.329V213.688C237.329 211.608 235.744 211.369 234.909 211.369C233.92 211.369 232.795 211.71 232.284 212.903L233.238 213.244C233.46 212.767 233.984 212.256 234.943 212.256C235.867 212.256 236.323 212.746 236.323 213.585V213.619C236.323 214.105 235.829 214.062 234.636 214.216C233.421 214.374 232.096 214.642 232.096 216.142C232.096 217.42 233.085 218.153 234.329 218.153ZM234.482 217.25C233.681 217.25 233.102 216.892 233.102 216.193C233.102 215.426 233.801 215.188 234.585 215.085C235.011 215.034 236.153 214.915 236.323 214.71V215.631C236.323 216.449 235.676 217.25 234.482 217.25ZM242.011 211.455H240.613V209.886H239.608V211.455H238.619V212.307H239.608V216.398C239.608 217.54 240.528 218.085 241.381 218.085C241.756 218.085 241.994 218.017 242.131 217.966L241.926 217.062C241.841 217.08 241.704 217.114 241.483 217.114C241.04 217.114 240.613 216.977 240.613 216.125V212.307H242.011V211.455ZM246.371 211.455H244.973V209.886H243.967V211.455H242.979V212.307H243.967V216.398C243.967 217.54 244.888 218.085 245.74 218.085C246.115 218.085 246.354 218.017 246.49 217.966L246.285 217.062C246.2 217.08 246.064 217.114 245.842 217.114C245.399 217.114 244.973 216.977 244.973 216.125V212.307H246.371V211.455ZM99.8111 230.324C99.8111 231.551 98.8736 232.114 98.1236 232.114C97.2884 232.114 96.6918 231.5 96.6918 230.545V226.455H95.6861V230.614C95.6861 232.284 96.5724 233.085 97.7997 233.085C98.7884 233.085 99.4361 232.557 99.7429 231.892H99.8111V233H100.817V226.455H99.8111V230.324ZM102.659 235.455H103.664V231.994H103.75C103.971 232.352 104.397 233.136 105.659 233.136C107.295 233.136 108.437 231.824 108.437 229.744C108.437 227.682 107.295 226.369 105.642 226.369C104.363 226.369 103.971 227.153 103.75 227.494H103.63V226.455H102.659V235.455ZM103.647 229.727C103.647 228.261 104.295 227.273 105.522 227.273C106.801 227.273 107.431 228.347 107.431 229.727C107.431 231.125 106.784 232.233 105.522 232.233C104.312 232.233 103.647 231.21 103.647 229.727ZM109.971 235.455H110.977V231.994H111.062C111.284 232.352 111.71 233.136 112.971 233.136C114.608 233.136 115.75 231.824 115.75 229.744C115.75 227.682 114.608 226.369 112.954 226.369C111.676 226.369 111.284 227.153 111.062 227.494H110.943V226.455H109.971V235.455ZM110.96 229.727C110.96 228.261 111.608 227.273 112.835 227.273C114.113 227.273 114.744 228.347 114.744 229.727C114.744 231.125 114.096 232.233 112.835 232.233C111.625 232.233 110.96 231.21 110.96 229.727ZM120.13 226.455H118.733V224.886H117.727V226.455H116.738V227.307H117.727V231.398C117.727 232.54 118.647 233.085 119.5 233.085C119.875 233.085 120.113 233.017 120.25 232.966L120.045 232.062C119.96 232.08 119.824 232.114 119.602 232.114C119.159 232.114 118.733 231.977 118.733 231.125V227.307H120.13V226.455ZM123.569 233.153C124.711 233.153 125.308 232.54 125.512 232.114H125.564V233H126.569V228.688C126.569 226.608 124.984 226.369 124.149 226.369C123.16 226.369 122.035 226.71 121.524 227.903L122.478 228.244C122.7 227.767 123.224 227.256 124.183 227.256C125.108 227.256 125.564 227.746 125.564 228.585V228.619C125.564 229.105 125.069 229.062 123.876 229.216C122.662 229.374 121.336 229.642 121.336 231.142C121.336 232.42 122.325 233.153 123.569 233.153ZM123.723 232.25C122.922 232.25 122.342 231.892 122.342 231.193C122.342 230.426 123.041 230.188 123.825 230.085C124.251 230.034 125.393 229.915 125.564 229.71V230.631C125.564 231.449 124.916 232.25 123.723 232.25ZM122.99 225.364C123.382 225.364 123.672 225.04 123.672 224.682C123.672 224.29 123.382 224 122.99 224C122.632 224 122.308 224.29 122.308 224.682C122.308 225.04 122.632 225.364 122.99 225.364ZM125.444 225.364C125.836 225.364 126.126 225.04 126.126 224.682C126.126 224.29 125.836 224 125.444 224C125.086 224 124.762 224.29 124.762 224.682C124.762 225.04 125.086 225.364 125.444 225.364ZM131.064 233.136C132.513 233.136 133.467 232.25 133.638 231.091H132.632C132.445 231.807 131.848 232.233 131.064 232.233C129.871 232.233 129.104 231.244 129.104 229.727C129.104 228.244 129.888 227.273 131.064 227.273C131.95 227.273 132.479 227.818 132.632 228.415H133.638C133.467 227.188 132.428 226.369 131.047 226.369C129.274 226.369 128.098 227.767 128.098 229.761C128.098 231.722 129.223 233.136 131.064 233.136ZM135.108 233H136.114V230.55L136.817 229.898L139.267 233H140.545L137.575 229.25L140.341 226.455H139.097L136.233 229.369H136.114V224.273H135.108V233ZM143.561 233.153C144.703 233.153 145.3 232.54 145.505 232.114H145.556V233H146.561V228.688C146.561 226.608 144.976 226.369 144.141 226.369C143.152 226.369 142.027 226.71 141.516 227.903L142.471 228.244C142.692 227.767 143.216 227.256 144.175 227.256C145.1 227.256 145.556 227.746 145.556 228.585V228.619C145.556 229.105 145.061 229.062 143.868 229.216C142.654 229.374 141.328 229.642 141.328 231.142C141.328 232.42 142.317 233.153 143.561 233.153ZM143.715 232.25C142.914 232.25 142.334 231.892 142.334 231.193C142.334 230.426 143.033 230.188 143.817 230.085C144.243 230.034 145.385 229.915 145.556 229.71V230.631C145.556 231.449 144.908 232.25 143.715 232.25ZM154.431 233.136C156.204 233.136 157.397 231.79 157.397 229.761C157.397 227.716 156.204 226.369 154.431 226.369C152.658 226.369 151.465 227.716 151.465 229.761C151.465 231.79 152.658 233.136 154.431 233.136ZM154.431 232.233C153.085 232.233 152.471 231.074 152.471 229.761C152.471 228.449 153.085 227.273 154.431 227.273C155.778 227.273 156.391 228.449 156.391 229.761C156.391 231.074 155.778 232.233 154.431 232.233ZM161.591 233.136C163.04 233.136 163.995 232.25 164.165 231.091H163.159C162.972 231.807 162.375 232.233 161.591 232.233C160.398 232.233 159.631 231.244 159.631 229.727C159.631 228.244 160.415 227.273 161.591 227.273C162.478 227.273 163.006 227.818 163.159 228.415H164.165C163.995 227.188 162.955 226.369 161.574 226.369C159.801 226.369 158.625 227.767 158.625 229.761C158.625 231.722 159.75 233.136 161.591 233.136ZM166.641 229.062C166.641 227.92 167.37 227.273 168.363 227.273C169.309 227.273 169.88 227.869 169.88 228.909V233H170.885V228.841C170.885 227.158 169.99 226.369 168.652 226.369C167.621 226.369 167.033 226.8 166.726 227.477H166.641V224.273H165.635V233H166.641V229.062ZM177.106 224.273H176.1V233H177.106V224.273ZM180.874 233.153C182.016 233.153 182.613 232.54 182.817 232.114H182.868V233H183.874V228.688C183.874 226.608 182.289 226.369 181.453 226.369C180.465 226.369 179.34 226.71 178.828 227.903L179.783 228.244C180.005 227.767 180.529 227.256 181.488 227.256C182.412 227.256 182.868 227.746 182.868 228.585V228.619C182.868 229.105 182.374 229.062 181.181 229.216C179.966 229.374 178.641 229.642 178.641 231.142C178.641 232.42 179.63 233.153 180.874 233.153ZM181.027 232.25C180.226 232.25 179.647 231.892 179.647 231.193C179.647 230.426 180.346 230.188 181.13 230.085C181.556 230.034 182.698 229.915 182.868 229.71V230.631C182.868 231.449 182.221 232.25 181.027 232.25ZM180.294 225.364C180.686 225.364 180.976 225.04 180.976 224.682C180.976 224.29 180.686 224 180.294 224C179.936 224 179.613 224.29 179.613 224.682C179.613 225.04 179.936 225.364 180.294 225.364ZM182.749 225.364C183.141 225.364 183.431 225.04 183.431 224.682C183.431 224.29 183.141 224 182.749 224C182.391 224 182.067 224.29 182.067 224.682C182.067 225.04 182.391 225.364 182.749 225.364ZM185.71 233H186.715V228.858C186.715 227.972 187.414 227.324 188.369 227.324C188.637 227.324 188.914 227.375 188.982 227.392V226.369C188.867 226.361 188.603 226.352 188.454 226.352C187.67 226.352 186.988 226.795 186.749 227.443H186.681V226.455H185.71V233ZM192.1 233.153C193.243 233.153 193.839 232.54 194.044 232.114H194.095V233H195.1V228.688C195.1 226.608 193.515 226.369 192.68 226.369C191.691 226.369 190.566 226.71 190.055 227.903L191.01 228.244C191.231 227.767 191.755 227.256 192.714 227.256C193.639 227.256 194.095 227.746 194.095 228.585V228.619C194.095 229.105 193.6 229.062 192.407 229.216C191.193 229.374 189.868 229.642 189.868 231.142C189.868 232.42 190.856 233.153 192.1 233.153ZM192.254 232.25C191.453 232.25 190.873 231.892 190.873 231.193C190.873 230.426 191.572 230.188 192.356 230.085C192.782 230.034 193.924 229.915 194.095 229.71V230.631C194.095 231.449 193.447 232.25 192.254 232.25ZM203.158 226.455H201.76V224.886H200.754V226.455H199.766V227.307H200.754V231.398C200.754 232.54 201.675 233.085 202.527 233.085C202.902 233.085 203.141 233.017 203.277 232.966L203.072 232.062C202.987 232.08 202.851 232.114 202.629 232.114C202.186 232.114 201.76 231.977 201.76 231.125V227.307H203.158V226.455ZM204.67 233H205.676V226.455H204.67V233ZM205.182 225.364C205.574 225.364 205.898 225.057 205.898 224.682C205.898 224.307 205.574 224 205.182 224C204.79 224 204.466 224.307 204.466 224.682C204.466 225.057 204.79 225.364 205.182 225.364ZM208.524 224.273H207.518V233H208.524V224.273ZM211.371 224.273H210.366V233H211.371V224.273ZM217.85 227.92C217.534 226.991 216.827 226.369 215.532 226.369C214.151 226.369 213.128 227.153 213.128 228.261C213.128 229.165 213.665 229.77 214.867 230.051L215.958 230.307C216.618 230.46 216.929 230.776 216.929 231.227C216.929 231.79 216.333 232.25 215.395 232.25C214.573 232.25 214.057 231.896 213.878 231.193L212.924 231.432C213.158 232.544 214.074 233.136 215.412 233.136C216.934 233.136 217.969 232.305 217.969 231.176C217.969 230.264 217.398 229.689 216.23 229.403L215.259 229.165C214.483 228.973 214.134 228.713 214.134 228.21C214.134 227.648 214.73 227.239 215.532 227.239C216.409 227.239 216.772 227.724 216.946 228.176L217.85 227.92ZM221.409 233.153C222.551 233.153 223.148 232.54 223.352 232.114H223.403V233H224.409V228.688C224.409 226.608 222.824 226.369 221.989 226.369C221 226.369 219.875 226.71 219.364 227.903L220.318 228.244C220.54 227.767 221.064 227.256 222.023 227.256C222.947 227.256 223.403 227.746 223.403 228.585V228.619C223.403 229.105 222.909 229.062 221.716 229.216C220.501 229.374 219.176 229.642 219.176 231.142C219.176 232.42 220.165 233.153 221.409 233.153ZM221.562 232.25C220.761 232.25 220.182 231.892 220.182 231.193C220.182 230.426 220.881 230.188 221.665 230.085C222.091 230.034 223.233 229.915 223.403 229.71V230.631C223.403 231.449 222.756 232.25 221.562 232.25ZM226.245 233H227.25V228.909C227.25 227.95 227.949 227.273 228.733 227.273C229.496 227.273 230.029 227.771 230.029 228.517V233H231.051V228.739C231.051 227.895 231.58 227.273 232.5 227.273C233.216 227.273 233.83 227.652 233.83 228.619V233H234.836V228.619C234.836 227.081 234.009 226.369 232.841 226.369C231.904 226.369 231.218 226.8 230.881 227.477H230.813C230.489 226.778 229.918 226.369 229.057 226.369C228.205 226.369 227.574 226.778 227.301 227.477H227.216V226.455H226.245V233ZM236.674 233H237.68V228.909C237.68 227.95 238.379 227.273 239.163 227.273C239.926 227.273 240.458 227.771 240.458 228.517V233H241.481V228.739C241.481 227.895 242.01 227.273 242.93 227.273C243.646 227.273 244.26 227.652 244.26 228.619V233H245.265V228.619C245.265 227.081 244.439 226.369 243.271 226.369C242.333 226.369 241.647 226.8 241.311 227.477H241.243C240.919 226.778 240.348 226.369 239.487 226.369C238.635 226.369 238.004 226.778 237.731 227.477H237.646V226.455H236.674V233ZM249.03 233.153C250.172 233.153 250.769 232.54 250.973 232.114H251.025V233H252.03V228.688C252.03 226.608 250.445 226.369 249.61 226.369C248.621 226.369 247.496 226.71 246.985 227.903L247.939 228.244C248.161 227.767 248.685 227.256 249.644 227.256C250.569 227.256 251.025 227.746 251.025 228.585V228.619C251.025 229.105 250.53 229.062 249.337 229.216C248.123 229.374 246.797 229.642 246.797 231.142C246.797 232.42 247.786 233.153 249.03 233.153ZM249.184 232.25C248.382 232.25 247.803 231.892 247.803 231.193C247.803 230.426 248.502 230.188 249.286 230.085C249.712 230.034 250.854 229.915 251.025 229.71V230.631C251.025 231.449 250.377 232.25 249.184 232.25ZM254.871 229.062C254.871 227.92 255.579 227.273 256.542 227.273C257.475 227.273 258.042 227.882 258.042 228.909V233H259.048V228.841C259.048 227.17 258.157 226.369 256.832 226.369C255.843 226.369 255.229 226.812 254.923 227.477H254.837V226.455H253.866V233H254.871V229.062ZM265.522 227.92C265.206 226.991 264.499 226.369 263.203 226.369C261.823 226.369 260.8 227.153 260.8 228.261C260.8 229.165 261.337 229.77 262.539 230.051L263.63 230.307C264.29 230.46 264.601 230.776 264.601 231.227C264.601 231.79 264.005 232.25 263.067 232.25C262.245 232.25 261.729 231.896 261.55 231.193L260.596 231.432C260.83 232.544 261.746 233.136 263.084 233.136C264.605 233.136 265.641 232.305 265.641 231.176C265.641 230.264 265.07 229.689 263.902 229.403L262.931 229.165C262.155 228.973 261.806 228.713 261.806 228.21C261.806 227.648 262.402 227.239 263.203 227.239C264.081 227.239 264.444 227.724 264.618 228.176L265.522 227.92ZM138.278 250.455H139.284V246.994H139.369C139.59 247.352 140.017 248.136 141.278 248.136C142.914 248.136 144.056 246.824 144.056 244.744C144.056 242.682 142.914 241.369 141.261 241.369C139.982 241.369 139.59 242.153 139.369 242.494H139.249V241.455H138.278V250.455ZM139.267 244.727C139.267 243.261 139.914 242.273 141.142 242.273C142.42 242.273 143.051 243.347 143.051 244.727C143.051 246.125 142.403 247.233 141.142 247.233C139.931 247.233 139.267 246.21 139.267 244.727ZM147.517 248.153C148.659 248.153 149.255 247.54 149.46 247.114H149.511V248H150.517V243.688C150.517 241.608 148.931 241.369 148.096 241.369C147.107 241.369 145.982 241.71 145.471 242.903L146.426 243.244C146.647 242.767 147.171 242.256 148.13 242.256C149.055 242.256 149.511 242.746 149.511 243.585V243.619C149.511 244.105 149.017 244.062 147.823 244.216C146.609 244.374 145.284 244.642 145.284 246.142C145.284 247.42 146.272 248.153 147.517 248.153ZM148.164 240.722C149.034 240.722 149.698 240.091 149.698 239.273C149.698 238.455 149.034 237.773 148.164 237.773C147.295 237.773 146.613 238.455 146.613 239.273C146.613 240.091 147.295 240.722 148.164 240.722ZM147.67 247.25C146.869 247.25 146.289 246.892 146.289 246.193C146.289 245.426 146.988 245.188 147.772 245.085C148.198 245.034 149.34 244.915 149.511 244.71V245.631C149.511 246.449 148.863 247.25 147.67 247.25ZM148.164 240.074C147.687 240.074 147.346 239.682 147.346 239.273C147.346 238.847 147.687 238.438 148.164 238.438C148.642 238.438 148.982 238.847 148.982 239.273C148.982 239.682 148.642 240.074 148.164 240.074ZM155.727 250.455H156.733V246.994H156.818C157.04 247.352 157.466 248.136 158.727 248.136C160.363 248.136 161.506 246.824 161.506 244.744C161.506 242.682 160.363 241.369 158.71 241.369C157.432 241.369 157.04 242.153 156.818 242.494H156.699V241.455H155.727V250.455ZM156.716 244.727C156.716 243.261 157.363 242.273 158.591 242.273C159.869 242.273 160.5 243.347 160.5 244.727C160.5 246.125 159.852 247.233 158.591 247.233C157.381 247.233 156.716 246.21 156.716 244.727ZM163.04 248H164.045V243.858C164.045 242.972 164.744 242.324 165.699 242.324C165.967 242.324 166.244 242.375 166.312 242.392V241.369C166.197 241.361 165.933 241.352 165.784 241.352C165 241.352 164.318 241.795 164.079 242.443H164.011V241.455H163.04V248ZM169.964 248.136C171.737 248.136 172.93 246.79 172.93 244.761C172.93 242.716 171.737 241.369 169.964 241.369C168.192 241.369 166.998 242.716 166.998 244.761C166.998 246.79 168.192 248.136 169.964 248.136ZM169.964 247.233C168.618 247.233 168.004 246.074 168.004 244.761C168.004 243.449 168.618 242.273 169.964 242.273C171.311 242.273 171.925 243.449 171.925 244.761C171.925 246.074 171.311 247.233 169.964 247.233ZM174.465 248H175.471V243.909C175.471 242.95 176.17 242.273 176.954 242.273C177.717 242.273 178.249 242.771 178.249 243.517V248H179.272V243.739C179.272 242.895 179.801 242.273 180.721 242.273C181.437 242.273 182.051 242.652 182.051 243.619V248H183.056V243.619C183.056 242.081 182.23 241.369 181.062 241.369C180.124 241.369 179.438 241.8 179.102 242.477H179.034C178.71 241.778 178.139 241.369 177.278 241.369C176.426 241.369 175.795 241.778 175.522 242.477H175.437V241.455H174.465V248ZM187.639 248.136C188.969 248.136 189.941 247.472 190.247 246.483L189.276 246.21C189.02 246.892 188.428 247.233 187.639 247.233C186.459 247.233 185.645 246.47 185.598 245.068H190.35V244.642C190.35 242.205 188.901 241.369 187.537 241.369C185.764 241.369 184.588 242.767 184.588 244.778C184.588 246.79 185.747 248.136 187.639 248.136ZM185.598 244.199C185.666 243.18 186.387 242.273 187.537 242.273C188.628 242.273 189.327 243.091 189.327 244.199H185.598ZM192.885 244.062C192.885 242.92 193.593 242.273 194.556 242.273C195.489 242.273 196.056 242.882 196.056 243.909V248H197.061V243.841C197.061 242.17 196.171 241.369 194.845 241.369C193.857 241.369 193.243 241.812 192.936 242.477H192.851V241.455H191.879V248H192.885V244.062ZM200.825 248.153C201.967 248.153 202.564 247.54 202.768 247.114H202.819V248H203.825V243.688C203.825 241.608 202.24 241.369 201.405 241.369C200.416 241.369 199.291 241.71 198.78 242.903L199.734 243.244C199.956 242.767 200.48 242.256 201.439 242.256C202.363 242.256 202.819 242.746 202.819 243.585V243.619C202.819 244.105 202.325 244.062 201.132 244.216C199.917 244.374 198.592 244.642 198.592 246.142C198.592 247.42 199.581 248.153 200.825 248.153ZM200.979 247.25C200.177 247.25 199.598 246.892 199.598 246.193C199.598 245.426 200.297 245.188 201.081 245.085C201.507 245.034 202.649 244.915 202.819 244.71V245.631C202.819 246.449 202.172 247.25 200.979 247.25ZM208.132 248.136C209.394 248.136 209.82 247.352 210.041 246.994H210.161V248H211.132V239.273H210.127V242.494H210.041C209.82 242.153 209.428 241.369 208.149 241.369C206.496 241.369 205.354 242.682 205.354 244.744C205.354 246.824 206.496 248.136 208.132 248.136ZM208.269 247.233C207.007 247.233 206.36 246.125 206.36 244.727C206.36 243.347 206.99 242.273 208.269 242.273C209.496 242.273 210.144 243.261 210.144 244.727C210.144 246.21 209.479 247.233 208.269 247.233ZM215.858 248.136C217.188 248.136 218.159 247.472 218.466 246.483L217.494 246.21C217.239 246.892 216.646 247.233 215.858 247.233C214.678 247.233 213.864 246.47 213.817 245.068H218.568V244.642C218.568 242.205 217.119 241.369 215.756 241.369C213.983 241.369 212.807 242.767 212.807 244.778C212.807 246.79 213.966 248.136 215.858 248.136ZM213.817 244.199C213.885 243.18 214.605 242.273 215.756 242.273C216.847 242.273 217.546 243.091 217.546 244.199H213.817ZM220.098 248H221.104V243.858C221.104 242.972 221.803 242.324 222.757 242.324C223.026 242.324 223.303 242.375 223.371 242.392V241.369C223.256 241.361 222.992 241.352 222.843 241.352C222.058 241.352 221.377 241.795 221.138 242.443H221.07V241.455H220.098V248Z" fill="#FBFBFB"/>
<path d="M110 178L110.904 178.238C115.22 179.375 119.801 178.925 123.813 176.97V176.97C127.75 175.051 132.237 174.581 136.487 175.641L149.362 178.854C152.382 179.608 155.537 179.646 158.574 178.966L167.352 177L175.904 175.085C179.086 174.372 182.394 174.449 185.54 175.307L197.827 178.661C201.048 179.54 204.438 179.598 207.687 178.831L222.035 175.445C226.008 174.507 230.178 174.885 233.918 176.523L237.644 178.155C240.319 179.326 243.371 179.269 246 178V178" stroke="#B2DBC3" stroke-width="2"/>
<path d="M110 183L110.904 183.238C115.22 184.375 119.801 183.925 123.813 181.97V181.97C127.75 180.051 132.237 179.581 136.487 180.641L149.362 183.854C152.382 184.608 155.537 184.646 158.574 183.966L167.352 182L175.904 180.085C179.086 179.372 182.394 179.449 185.54 180.307L197.827 183.661C201.048 184.54 204.438 184.598 207.687 183.831L222.035 180.445C226.008 179.507 230.178 179.885 233.918 181.523L237.644 183.155C240.319 184.326 243.371 184.269 246 183V183" stroke="#B2DBC3" stroke-width="2"/>
</svg>
