<svg width="375" height="415" viewBox="0 0 375 415" fill="none" xmlns="http://www.w3.org/2000/svg">
<path fill-rule="evenodd" clip-rule="evenodd" d="M242.979 73.3641C266.618 84.9851 270.645 115.946 287.11 136.481C306.629 160.825 343.61 173.648 348.099 204.467C352.682 235.931 328.703 263.777 309.318 288.945C289.28 314.961 267.46 342.602 235.541 350.606C203.683 358.594 172.044 342.768 141.301 331.075C110.123 319.216 70.2151 312.936 56.5962 282.545C42.9685 252.134 70.5879 220.002 76.8931 187.344C82.0779 160.488 73.3292 129.927 90.2152 108.411C107.227 86.7331 137.303 82.2439 164.219 76.0689C190.449 70.0515 218.796 61.4758 242.979 73.3641Z" fill="#2B5A51"/>
</svg>
