<svg width="138" height="13" viewBox="0 0 138 13" fill="none" xmlns="http://www.w3.org/2000/svg">
<path d="M1 5L1.90425 5.23815C6.22013 6.37482 10.8006 5.92479 14.8128 3.96989V3.96989C18.75 2.05148 23.2371 1.58115 27.4866 2.64145L40.362 5.85403C43.3822 6.6076 46.5365 6.64582 49.574 5.96565L58.3523 4L66.9044 2.08501C70.0864 1.37249 73.3944 1.4488 76.5401 2.30729L88.8273 5.66053C92.0482 6.53951 95.4378 6.59822 98.6872 5.83129L113.035 2.44479C117.008 1.50705 121.178 1.88542 124.918 3.52295L128.644 5.1549C131.319 6.32594 134.371 6.26935 137 5V5" stroke="#B2DBC3" stroke-width="2"/>
<path d="M1 10L1.90425 10.2382C6.22013 11.3748 10.8006 10.9248 14.8128 8.96989V8.96989C18.75 7.05148 23.2371 6.58115 27.4866 7.64145L40.362 10.854C43.3822 11.6076 46.5365 11.6458 49.574 10.9657L58.3523 9L66.9044 7.08501C70.0864 6.37249 73.3944 6.4488 76.5401 7.30729L88.8273 10.6605C92.0482 11.5395 95.4378 11.5982 98.6872 10.8313L113.035 7.44479C117.008 6.50705 121.178 6.88542 124.918 8.52295L128.644 10.1549C131.319 11.3259 134.371 11.2694 137 10V10" stroke="#B2DBC3" stroke-width="2"/>
</svg>
