<svg width="290" height="252" viewBox="0 0 290 252" fill="none" xmlns="http://www.w3.org/2000/svg">
<path fill-rule="evenodd" clip-rule="evenodd" d="M167.405 7.01294C160.346 7.21861 153.276 7.42462 146.379 7.01436C138.682 6.55653 130.717 5.06572 122.756 3.57558C104.046 0.0734458 85.3545 -3.42506 70.2051 6.49769C56.7068 15.3389 52.9712 31.4567 49.1617 47.8938C46.8348 57.9336 44.4804 68.0925 39.8567 76.7853C35.4763 85.0206 28.3772 92.2648 21.3751 99.4099C9.77659 111.245 -1.55567 122.809 0.176093 138.156C1.49881 149.878 8.87426 158.532 18.2627 166.178L9.49828 195.098L49.4034 188.964C50.5952 189.967 51.7508 190.989 52.8616 192.034C55.8698 194.865 58.7972 197.76 61.713 200.643C71.9097 210.727 81.965 220.67 94.8447 227.227C106.476 233.149 119.103 235.135 131.894 237.147C136.714 237.905 141.557 238.667 146.379 239.644C152.987 240.983 159.505 242.821 165.994 244.651C181.108 248.912 196.062 253.128 211.605 250.893C214.41 250.49 217.312 250.105 220.274 249.712C246.397 246.247 277.187 242.163 287.353 219.375C294.719 202.863 285.366 186.217 275.785 169.165C270.069 158.993 264.272 148.675 261.895 138.156C259.821 128.972 259.624 119.626 259.428 110.325C259.18 98.5533 258.934 86.8532 254.883 75.6435L254.667 75.0466C246.544 52.563 237.68 28.0326 217.484 15.2583C202.817 5.98114 185.147 6.496 167.405 7.01294Z" fill="#2B5A51"/>
</svg>
