<svg width="318" height="277" viewBox="0 0 318 277" fill="none" xmlns="http://www.w3.org/2000/svg">
<path fill-rule="evenodd" clip-rule="evenodd" d="M194.137 12.2792C183.647 16.2924 173.097 20.3284 162.519 22.7173C159.886 23.312 157.271 23.897 154.672 24.4786C134.424 29.0094 115.133 33.3259 95.4891 40.3088C86.6444 43.4529 77.037 45.7776 67.4437 48.0989C43.7497 53.8323 20.142 59.5448 8.3253 77.5291C-8.14034 102.589 3.23423 134.372 13.198 162.213C13.4569 162.937 13.7147 163.657 13.9711 164.375C24.1764 192.94 40.1632 219.633 66.0207 239.024C93.3898 259.549 127.454 282.61 162.519 275.774C184.087 271.569 195.595 254.463 207.4 236.916C214.759 225.976 222.235 214.864 232.335 206.601C237.714 202.2 243.832 198.613 250.212 195.356L290.469 204.311L279.108 181.287C288.301 176.225 296.447 170.265 301.893 161.743C317.921 136.663 321.777 106.243 314.396 78.1936C306.597 48.556 291.996 14.7539 260.151 3.12166C238.627 -4.74038 216.518 3.71742 194.137 12.2792Z" fill="#F27063"/>
<mask id="path-2-inside-1" fill="white">
<path fill-rule="evenodd" clip-rule="evenodd" d="M188.267 23.5585C178.862 27.3412 169.403 31.1455 159.895 33.4638C157.528 34.0409 155.178 34.6091 152.841 35.1738C134.639 39.5737 117.298 43.7656 99.6788 50.3688C91.7459 53.342 83.112 55.5876 74.4909 57.8298C53.1979 63.3679 31.9825 68.8857 21.5959 85.2962C7.12289 108.163 17.8759 136.669 27.2952 161.639C27.5398 162.288 27.7836 162.934 28.026 163.578C37.6744 189.198 52.5111 213.039 76.1426 230.139C101.156 248.24 132.249 268.526 163.786 261.818C183.184 257.692 193.306 242.079 203.689 226.063C210.162 216.078 216.736 205.936 225.724 198.324C230.51 194.27 235.976 190.939 241.682 187.902L278.148 195.364L267.542 174.762C275.76 170.053 283.019 164.549 287.802 156.776C301.88 133.897 304.892 106.387 297.8 81.1894C290.306 54.5648 276.611 24.2869 247.695 14.2798C228.152 7.51614 208.331 15.4883 188.267 23.5585Z"/>
</mask>
<path d="M159.895 33.4638L160.606 36.3784L159.895 33.4638ZM188.267 23.5585L187.147 20.7752L187.147 20.7752L188.267 23.5585ZM152.841 35.1738L152.136 32.2578L152.841 35.1738ZM99.6788 50.3688L98.626 47.5597L99.6788 50.3688ZM74.4909 57.8298L73.7358 54.9264L74.4909 57.8298ZM21.5959 85.2962L24.1308 86.9006L21.5959 85.2962ZM27.2952 161.639L30.1021 160.58L30.1021 160.58L27.2952 161.639ZM28.026 163.578L30.8335 162.52L30.8335 162.52L28.026 163.578ZM76.1426 230.139L77.9014 227.709L76.1426 230.139ZM163.786 261.818L163.162 258.884L163.786 261.818ZM203.689 226.063L206.206 227.695L203.689 226.063ZM225.724 198.324L227.663 200.613L225.724 198.324ZM241.682 187.902L242.284 184.963L241.226 184.747L240.273 185.254L241.682 187.902ZM278.148 195.364L277.546 198.303L283.681 199.558L280.815 193.991L278.148 195.364ZM267.542 174.762L266.05 172.159L263.562 173.585L264.874 176.135L267.542 174.762ZM287.802 156.776L290.357 158.348L287.802 156.776ZM297.8 81.1894L300.687 80.3766L297.8 81.1894ZM247.695 14.2798L246.714 17.1148L246.714 17.1148L247.695 14.2798ZM160.606 36.3784C170.36 34.0001 180.021 30.1086 189.386 26.3418L187.147 20.7752C177.703 24.5738 168.447 28.2909 159.184 30.5492L160.606 36.3784ZM153.546 38.0898C155.882 37.5252 158.235 36.9564 160.606 36.3784L159.184 30.5492C156.821 31.1255 154.473 31.693 152.136 32.2578L153.546 38.0898ZM100.732 53.178C118.153 46.6488 135.319 42.4958 153.546 38.0898L152.136 32.2578C133.959 36.6517 116.443 40.8823 98.626 47.5597L100.732 53.178ZM75.246 60.7332C83.836 58.4991 92.6261 56.2159 100.732 53.178L98.626 47.5597C90.8656 50.4681 82.3881 52.6761 73.7358 54.9264L75.246 60.7332ZM24.1308 86.9006C28.8929 79.3767 36.2143 74.214 45.1734 70.2266C54.1695 66.2227 64.5447 63.5165 75.246 60.7332L73.7358 54.9264C63.1441 57.6812 52.2651 60.5029 42.7337 64.745C33.1651 69.0037 24.6855 74.8053 19.061 83.6918L24.1308 86.9006ZM30.1021 160.58C25.3695 148.034 20.4497 134.96 18.4496 122.214C16.4591 109.528 17.4193 97.5046 24.1308 86.9006L19.061 83.6918C11.2995 95.9546 10.3996 109.617 12.5222 123.144C14.6352 136.61 19.8015 150.274 24.4882 162.698L30.1021 160.58ZM30.8335 162.52C30.5908 161.876 30.3467 161.229 30.1021 160.58L24.4882 162.698C24.733 163.347 24.9764 163.992 25.2185 164.635L30.8335 162.52ZM77.9014 227.709C54.8844 211.053 40.344 187.774 30.8335 162.52L25.2185 164.635C35.0047 190.621 50.1377 215.025 74.3839 232.57L77.9014 227.709ZM163.162 258.884C148.222 262.062 133.229 258.884 118.721 252.534C104.196 246.177 90.3917 236.748 77.9014 227.709L74.3839 232.57C86.9066 241.632 101.156 251.396 116.315 258.03C131.491 264.672 147.813 268.283 164.41 264.753L163.162 258.884ZM201.171 224.431C190.654 240.655 181.152 255.058 163.162 258.884L164.41 264.753C185.217 260.327 195.958 243.504 206.206 227.695L201.171 224.431ZM223.785 196.035C214.401 203.982 207.598 214.518 201.171 224.431L206.206 227.695C212.725 217.639 219.071 207.89 227.663 200.613L223.785 196.035ZM240.273 185.254C234.478 188.338 228.802 191.785 223.785 196.035L227.663 200.613C232.217 196.755 237.474 193.54 243.092 190.551L240.273 185.254ZM278.749 192.425L242.284 184.963L241.081 190.841L277.546 198.303L278.749 192.425ZM264.874 176.135L275.48 196.737L280.815 193.991L270.209 173.389L264.874 176.135ZM285.247 155.203C280.846 162.356 274.087 167.553 266.05 172.159L269.033 177.365C277.432 172.552 285.191 166.743 290.357 158.348L285.247 155.203ZM294.912 82.0022C301.793 106.449 298.856 133.087 285.247 155.203L290.357 158.348C304.904 134.708 307.991 106.325 300.687 80.3766L294.912 82.0022ZM246.714 17.1148C274.083 26.5867 287.435 55.4393 294.912 82.0022L300.687 80.3766C293.176 53.6904 279.139 21.9871 248.676 11.4447L246.714 17.1148ZM189.386 26.3418C209.717 18.1645 228.421 10.7841 246.714 17.1148L248.676 11.4447C227.882 4.2482 206.945 12.8121 187.147 20.7752L189.386 26.3418Z" fill="#FBFBFB" mask="url(#path-2-inside-1)"/>
</svg>
