<svg width="285" height="249" viewBox="0 0 285 249" fill="none" xmlns="http://www.w3.org/2000/svg">
<path fill-rule="evenodd" clip-rule="evenodd" d="M202.531 34.6327C179.637 24.2575 156.88 17.6162 132.102 13.3322C124.016 11.9341 115.718 9.68097 107.398 7.42164C84.2043 1.12381 60.8335 -5.22217 41.3723 6.76896C14.9192 23.0682 8.67793 59.7023 6.6293 90.643C5.39958 109.216 5.9536 134.838 11.4945 156.068L0 184.772L23.9427 183.193C31.2095 192.272 41.1381 198.279 51.2056 204.369C57.9547 208.453 64.7662 212.573 70.8799 217.683C89.0904 232.903 108.559 245.407 132.102 248.604C155.858 251.831 178.282 234.777 195.043 217.683C203.412 209.147 206.356 197.741 209.335 186.202C211.725 176.943 214.137 167.598 219.392 159.579C226.63 148.535 238.479 139.583 250.079 130.821C268.724 116.735 286.724 103.137 283.888 82.1177C280.79 59.1653 255.11 51.5339 230.031 44.081C220.326 41.1972 210.712 38.3402 202.531 34.6327Z" fill="#B2DBC3"/>
</svg>
