<svg width="318" height="277" viewBox="0 0 318 277" fill="none" xmlns="http://www.w3.org/2000/svg">
<path fill-rule="evenodd" clip-rule="evenodd" d="M194.137 12.2792C183.647 16.2924 173.097 20.3284 162.519 22.7173C159.886 23.312 157.271 23.897 154.672 24.4786C134.424 29.0094 115.133 33.3259 95.4891 40.3088C86.6444 43.4529 77.037 45.7776 67.4437 48.0989C43.7497 53.8323 20.142 59.5448 8.3253 77.5291C-8.14034 102.589 3.23423 134.372 13.198 162.213C13.4569 162.937 13.7147 163.657 13.9711 164.375C24.1764 192.94 40.1632 219.633 66.0207 239.024C93.3898 259.549 127.454 282.61 162.519 275.774C184.087 271.569 195.595 254.463 207.4 236.916C214.759 225.976 222.235 214.864 232.335 206.601C237.714 202.2 243.832 198.613 250.212 195.356L290.469 204.311L279.108 181.287C288.301 176.225 296.447 170.265 301.893 161.743C317.921 136.663 321.777 106.243 314.396 78.1936C306.597 48.556 291.996 14.7539 260.151 3.12166C238.627 -4.74038 216.518 3.71742 194.137 12.2792Z" fill="#F27063"/>
</svg>
