<svg width="285" height="249" viewBox="0 0 285 249" fill="none" xmlns="http://www.w3.org/2000/svg">
<path fill-rule="evenodd" clip-rule="evenodd" d="M202.531 34.6327C179.637 24.2575 156.88 17.6162 132.102 13.3322C124.016 11.9341 115.718 9.68097 107.398 7.42164C84.2043 1.12381 60.8335 -5.22217 41.3723 6.76896C14.9192 23.0682 8.67793 59.7023 6.6293 90.643C5.39958 109.216 5.9536 134.838 11.4945 156.068L0 184.772L23.9427 183.193C31.2095 192.272 41.1381 198.279 51.2056 204.369C57.9547 208.453 64.7662 212.573 70.8799 217.683C89.0904 232.903 108.559 245.407 132.102 248.604C155.858 251.831 178.282 234.777 195.043 217.683C203.412 209.147 206.356 197.741 209.335 186.202C211.725 176.943 214.137 167.598 219.392 159.579C226.63 148.535 238.479 139.583 250.079 130.821C268.724 116.735 286.724 103.137 283.888 82.1177C280.79 59.1653 255.11 51.5339 230.031 44.081C220.326 41.1972 210.712 38.3402 202.531 34.6327Z" fill="#B2DBC3"/>
<mask id="path-2-inside-1" fill="white">
<path fill-rule="evenodd" clip-rule="evenodd" d="M196.825 44.1836C176.504 34.8147 156.283 28.7708 134.249 24.8137C127.059 23.5223 119.684 21.4685 112.29 19.4091C91.6786 13.6683 70.9094 7.88375 53.5147 18.4464C29.8707 32.8038 24.1027 65.3813 22.1 92.9144C20.8979 109.442 21.243 132.255 26.0531 151.187L15.6543 176.675L36.9783 175.407C43.3951 183.532 52.1994 188.937 61.1267 194.417C67.1115 198.091 73.1516 201.799 78.5648 206.383C94.6886 220.038 111.948 231.282 132.889 234.264C154.019 237.274 174.08 222.222 189.1 207.101C196.601 199.55 199.288 189.413 202.006 179.157C204.187 170.929 206.389 162.623 211.113 155.515C217.621 145.724 228.221 137.824 238.598 130.09C255.279 117.658 271.382 105.656 268.978 86.9273C266.354 66.4761 243.536 59.5337 221.252 52.7538C212.63 50.1305 204.087 47.5314 196.825 44.1836Z"/>
</mask>
<path fill-rule="evenodd" clip-rule="evenodd" d="M196.825 44.1836C176.504 34.8147 156.283 28.7708 134.249 24.8137C127.059 23.5223 119.684 21.4685 112.29 19.4091C91.6786 13.6683 70.9094 7.88375 53.5147 18.4464C29.8707 32.8038 24.1027 65.3813 22.1 92.9144C20.8979 109.442 21.243 132.255 26.0531 151.187L15.6543 176.675L36.9783 175.407C43.3951 183.532 52.1994 188.937 61.1267 194.417C67.1115 198.091 73.1516 201.799 78.5648 206.383C94.6886 220.038 111.948 231.282 132.889 234.264C154.019 237.274 174.08 222.222 189.1 207.101C196.601 199.55 199.288 189.413 202.006 179.157C204.187 170.929 206.389 162.623 211.113 155.515C217.621 145.724 228.221 137.824 238.598 130.09C255.279 117.658 271.382 105.656 268.978 86.9273C266.354 66.4761 243.536 59.5337 221.252 52.7538C212.63 50.1305 204.087 47.5314 196.825 44.1836Z" fill="#B2DBC3"/>
<path d="M134.249 24.8137L133.719 27.7665L134.249 24.8137ZM196.825 44.1836L198.081 41.4592L196.825 44.1836ZM112.29 19.4091L111.485 22.2991L112.29 19.4091ZM53.5147 18.4464L55.0719 21.0106L53.5147 18.4464ZM22.1 92.9144L25.0921 93.132L22.1 92.9144ZM26.0531 151.187L28.8309 152.32L29.204 151.406L28.9608 150.448L26.0531 151.187ZM15.6543 176.675L12.8766 175.541L11.077 179.952L15.8323 179.669L15.6543 176.675ZM36.9783 175.407L39.3327 173.547L38.3627 172.319L36.8003 172.412L36.9783 175.407ZM61.1267 194.417L59.5572 196.974L61.1267 194.417ZM78.5648 206.383L76.626 208.672L76.626 208.672L78.5648 206.383ZM132.889 234.264L133.312 231.294L132.889 234.264ZM189.1 207.101L186.972 204.987L189.1 207.101ZM202.006 179.157L204.906 179.926L202.006 179.157ZM211.113 155.515L208.615 153.854L211.113 155.515ZM238.598 130.09L236.806 127.684L238.598 130.09ZM268.978 86.9273L271.954 86.5455L268.978 86.9273ZM221.252 52.7538L222.125 49.8837L221.252 52.7538ZM133.719 27.7665C155.531 31.6837 175.504 37.6573 195.569 46.908L198.081 41.4592C177.503 31.9722 157.035 25.8579 134.78 21.8609L133.719 27.7665ZM111.485 22.2991C118.852 24.3508 126.365 26.4457 133.719 27.7665L134.78 21.8609C127.752 20.5989 120.517 18.5862 113.095 16.5191L111.485 22.2991ZM55.0719 21.0106C63.0554 16.1628 71.8999 14.9938 81.4425 15.8032C91.0536 16.6185 101.119 19.4118 111.485 22.2991L113.095 16.5191C102.85 13.6656 92.2247 10.6963 81.9497 9.82469C71.6062 8.94732 61.3688 10.1673 51.9576 15.8821L55.0719 21.0106ZM25.0921 93.132C26.0873 79.4504 28.0072 64.7323 32.5257 51.7239C37.0411 38.7247 44.0565 27.6995 55.0719 21.0106L51.9576 15.8821C39.3289 23.5507 31.6383 35.9929 26.8579 49.7551C22.0808 63.5081 20.1154 78.8453 19.1079 92.6968L25.0921 93.132ZM28.9608 150.448C24.2612 131.952 23.9019 109.495 25.0921 93.132L19.1079 92.6968C17.8939 109.388 18.2248 132.559 23.1455 151.926L28.9608 150.448ZM18.432 177.808L28.8309 152.32L23.2754 150.054L12.8766 175.541L18.432 177.808ZM36.8003 172.412L15.4762 173.68L15.8323 179.669L37.1564 178.401L36.8003 172.412ZM62.6962 191.86C53.6857 186.329 45.3634 181.184 39.3327 173.547L34.624 177.266C41.4268 185.88 50.713 191.544 59.5572 196.974L62.6962 191.86ZM80.5036 204.094C74.887 199.337 68.6486 195.514 62.6962 191.86L59.5572 196.974C65.5744 200.667 71.4162 204.26 76.626 208.672L80.5036 204.094ZM133.312 231.294C113.209 228.431 96.4779 217.622 80.5036 204.094L76.626 208.672C92.8994 222.454 110.688 234.132 132.466 237.234L133.312 231.294ZM186.972 204.987C179.56 212.448 171.018 219.773 161.833 224.857C152.654 229.937 143.023 232.678 133.312 231.294L132.466 237.234C143.885 238.861 154.849 235.58 164.739 230.106C174.622 224.636 183.621 216.874 191.229 209.215L186.972 204.987ZM199.106 178.389C196.349 188.793 193.813 198.1 186.972 204.987L191.229 209.215C199.389 201 202.227 190.034 204.906 179.926L199.106 178.389ZM208.615 153.854C203.569 161.445 201.264 170.247 199.106 178.389L204.906 179.926C207.11 171.61 209.208 163.801 213.612 157.175L208.615 153.854ZM236.806 127.684C226.538 135.337 215.466 143.546 208.615 153.854L213.612 157.175C219.775 147.902 229.905 140.311 240.391 132.495L236.806 127.684ZM266.003 87.3092C267.066 95.5934 264.105 102.464 258.651 108.937C253.108 115.515 245.221 121.412 236.806 127.684L240.391 132.495C248.656 126.335 257.161 120.016 263.239 112.803C269.406 105.484 273.294 96.9898 271.954 86.5455L266.003 87.3092ZM220.379 55.6239C231.613 59.042 242.521 62.3777 250.977 67.3057C259.327 72.1725 264.851 78.3361 266.003 87.3092L271.954 86.5455C270.481 75.0673 263.284 67.5341 253.998 62.1219C244.817 56.771 233.175 53.2456 222.125 49.8837L220.379 55.6239ZM195.569 46.908C203.054 50.3584 211.806 53.0157 220.379 55.6239L222.125 49.8837C213.453 47.2453 205.121 44.7045 198.081 41.4592L195.569 46.908Z" fill="#2B5A51" mask="url(#path-2-inside-1)"/>
</svg>
