<svg width="362" height="366" viewBox="0 0 362 366" fill="none" xmlns="http://www.w3.org/2000/svg">
<path fill-rule="evenodd" clip-rule="evenodd" d="M219.536 64.6889C240.38 74.9356 243.93 102.235 258.448 120.342C275.659 141.807 308.267 153.113 312.225 180.288C316.266 208.032 295.123 232.584 278.03 254.777C260.362 277.716 241.122 302.088 212.978 309.145C184.887 316.189 156.989 302.234 129.882 291.924C102.391 281.468 67.2024 275.93 55.194 249.133C43.1778 222.318 67.531 193.986 73.0906 165.19C77.6623 141.51 69.9481 114.563 84.8373 95.5909C99.8377 76.4769 126.357 72.5185 150.09 67.0737C173.218 61.768 198.213 54.2064 219.536 64.6889Z" fill="#2B5A51"/>
<path fill-rule="evenodd" clip-rule="evenodd" d="M216.289 76.4C235.077 85.6365 238.278 110.244 251.364 126.566C266.878 145.914 296.271 156.106 299.839 180.601C303.481 205.609 284.423 227.741 269.015 247.745C253.089 268.422 235.746 290.392 210.377 296.753C185.057 303.102 159.909 290.523 135.475 281.23C110.694 271.804 78.9754 266.813 68.151 242.658C57.3197 218.487 79.2716 192.949 84.283 166.991C88.4039 145.647 81.4504 121.357 94.8715 104.255C108.393 87.0257 132.297 83.4577 153.69 78.5498C174.537 73.7671 197.068 66.9511 216.289 76.4Z" stroke="#FBFBFB" stroke-width="2"/>
</svg>
