<svg width="34" height="30" viewBox="0 0 34 30" fill="none" xmlns="http://www.w3.org/2000/svg">
<path d="M7.48413 17.374L7.03452 16.9767L7.48413 17.374ZM17.6015 15.8755L17.148 15.4828L17.6015 15.8755ZM24.1591 13.1586L24.2454 12.5648L24.2024 12.5586H24.1591V13.1586ZM22.1918 16.5313L22.1598 15.9322L21.5211 15.9663L21.596 16.6016L22.1918 16.5313ZM20.6929 22.8075L20.2173 22.4418L20.1867 22.4815L20.1631 22.5258L20.6929 22.8075ZM19.4751 27.4914L18.8761 27.4562L18.8325 28.1971L19.5662 28.0845L19.4751 27.4914ZM20.8803 28.9903V29.5903H21.3671L21.4674 29.1139L20.8803 28.9903ZM18.632 28.9903L18.1457 29.3418L18.3253 29.5903H18.632V28.9903ZM17.8825 22.5264L18.481 22.5701L18.5454 21.6879L17.7019 21.9543L17.8825 22.5264ZM10.2008 21.6833L10.4816 21.153L9.77992 20.7816L9.61407 21.558L10.2008 21.6833ZM7.10941 25.5242L6.83931 24.9884L6.71417 25.0515L6.62992 25.1635L7.10941 25.5242ZM7.10941 27.4914L6.67337 27.9036L6.90597 28.1497L7.23686 28.0777L7.10941 27.4914ZM8.13988 28.9903V29.5903H8.61023L8.72253 29.1336L8.13988 28.9903ZM5.98525 28.9903V28.3903H5.31262L5.38915 29.0586L5.98525 28.9903ZM5.70421 24.7748L6.11799 25.2093L5.70421 24.7748ZM22.4729 11.285L22.8103 10.7888L22.7994 10.7814L22.7881 10.7745L22.4729 11.285ZM7.10941 17.7491L7.63838 18.0323L7.10941 17.7491ZM5.90911 13.0512C5.64285 13.2485 5.58692 13.6243 5.78418 13.8905C5.98145 14.1568 6.35721 14.2127 6.62347 14.0155L5.90911 13.0512ZM3.17486 11.0979L3.14632 10.4986L3.17486 11.0979ZM1.30127 15.9692L1.89213 15.8649L1.30127 15.9692ZM6.86951 18.4985L7.44378 18.6723L6.86951 18.4985ZM22.2491 17.0492L22.846 16.9884L22.2491 17.0492ZM17.3788 16.0962L16.9898 15.6394L17.3788 16.0962ZM25.9547 14.444L26.5352 14.5957L25.9547 14.444ZM24.4597 16.0762L24.2143 15.5287L24.4597 16.0762ZM24.0728 13.7523C24.4174 13.8024 24.6949 13.8507 24.9169 13.9059C25.1435 13.9622 25.2758 14.0171 25.3495 14.0629C25.4114 14.1014 25.4028 14.1142 25.3971 14.097C25.3957 14.0927 25.4138 14.141 25.3742 14.2923L26.5352 14.5957C26.6086 14.3147 26.6336 14.0115 26.5353 13.717C26.4326 13.4095 26.2233 13.1931 25.9829 13.0437C25.7543 12.9016 25.4827 12.81 25.2062 12.7413C24.9251 12.6714 24.6002 12.6164 24.2454 12.5648L24.0728 13.7523ZM24.2143 15.5287C23.6557 15.7791 23.1014 15.8818 22.1598 15.9322L22.2239 17.1305C23.2296 17.0767 23.9524 16.9611 24.7052 16.6237L24.2143 15.5287ZM20.1631 22.5258C19.2756 24.1954 19.0022 25.3156 18.8761 27.4562L20.0741 27.5267C20.1922 25.5219 20.4318 24.577 21.2227 23.0891L20.1631 22.5258ZM19.5662 28.0845C19.8841 28.0357 20.1069 28.002 20.2811 27.9962C20.466 27.99 20.4698 28.0229 20.4262 27.9917C20.351 27.938 20.3807 27.8855 20.392 28.0268C20.4041 28.178 20.3834 28.4382 20.2932 28.8667L21.4674 29.1139C21.5646 28.6527 21.6142 28.2572 21.5882 27.9314C21.5614 27.5956 21.4447 27.2445 21.1237 27.0152C20.8341 26.8084 20.4925 26.7885 20.2411 26.7968C19.9792 26.8056 19.6751 26.8537 19.384 26.8984L19.5662 28.0845ZM20.8803 28.3903H18.632V29.5903H20.8803V28.3903ZM19.1183 28.6389C18.6304 27.9638 18.4111 27.2403 18.3435 26.2896C18.274 25.3127 18.3661 24.1428 18.481 22.5701L17.2841 22.4827C17.1721 24.0164 17.0693 25.2904 17.1465 26.3748C17.2255 27.4854 17.4944 28.4407 18.1457 29.3418L19.1183 28.6389ZM9.61407 21.558C9.41524 22.4888 9.1799 23.0875 8.79731 23.5718C8.41141 24.0604 7.83199 24.488 6.83931 24.9884L7.37951 26.0599C8.43593 25.5274 9.19504 25.0043 9.73899 24.3156C10.2862 23.6228 10.5721 22.8176 10.7876 21.8086L9.61407 21.558ZM6.62992 25.1635C6.31817 25.5779 6.10099 26.0399 6.09404 26.5395C6.08686 27.0559 6.30509 27.514 6.67337 27.9036L7.54544 27.0793C7.34163 26.8637 7.29201 26.6942 7.29393 26.5562C7.29608 26.4016 7.36495 26.1826 7.58889 25.8848L6.62992 25.1635ZM7.23686 28.0777C7.46853 28.0274 7.57704 28.0458 7.61022 28.0562C7.62072 28.0595 7.60938 28.0522 7.60998 28.0534C7.62102 28.0753 7.64484 28.1466 7.6415 28.2986C7.63828 28.4457 7.61057 28.6301 7.55724 28.8471L8.72253 29.1336C8.78842 28.8656 8.83542 28.589 8.84121 28.325C8.8469 28.066 8.81407 27.7762 8.6816 27.5133C8.53869 27.2298 8.29697 27.0139 7.96907 26.9111C7.66385 26.8155 7.32592 26.8304 6.98196 26.9051L7.23686 28.0777ZM8.13988 28.3903C8.13803 28.3903 8.13617 28.3903 8.13432 28.3903C8.13247 28.3903 8.13062 28.3903 8.12877 28.3903C8.12692 28.3903 8.12508 28.3903 8.12324 28.3903C8.12139 28.3903 8.11955 28.3903 8.11772 28.3903C8.11588 28.3903 8.11405 28.3903 8.11222 28.3903C8.11038 28.3903 8.10856 28.3903 8.10673 28.3903C8.1049 28.3903 8.10308 28.3903 8.10126 28.3903C8.09944 28.3903 8.09762 28.3903 8.0958 28.3903C8.09399 28.3903 8.09217 28.3903 8.09036 28.3903C8.08855 28.3903 8.08675 28.3903 8.08494 28.3903C8.08313 28.3903 8.08133 28.3903 8.07953 28.3903C8.07773 28.3903 8.07593 28.3903 8.07414 28.3903C8.07234 28.3903 8.07055 28.3903 8.06876 28.3903C8.06697 28.3903 8.06518 28.3903 8.0634 28.3903C8.06161 28.3903 8.05983 28.3903 8.05805 28.3903C8.05627 28.3903 8.05449 28.3903 8.05272 28.3903C8.05094 28.3903 8.04917 28.3903 8.0474 28.3903C8.04563 28.3903 8.04386 28.3903 8.04209 28.3903C8.04033 28.3903 8.03857 28.3903 8.03681 28.3903C8.03505 28.3903 8.03329 28.3903 8.03153 28.3903C8.02978 28.3903 8.02802 28.3903 8.02627 28.3903C8.02452 28.3903 8.02278 28.3903 8.02103 28.3903C8.01928 28.3903 8.01754 28.3903 8.0158 28.3903C8.01406 28.3903 8.01232 28.3903 8.01059 28.3903C8.00885 28.3903 8.00712 28.3903 8.00539 28.3903C8.00366 28.3903 8.00193 28.3903 8.0002 28.3903C7.99847 28.3903 7.99675 28.3903 7.99503 28.3903C7.99331 28.3903 7.99159 28.3903 7.98987 28.3903C7.98816 28.3903 7.98644 28.3903 7.98473 28.3903C7.98302 28.3903 7.98131 28.3903 7.9796 28.3903C7.97789 28.3903 7.97619 28.3903 7.97449 28.3903C7.97278 28.3903 7.97108 28.3903 7.96939 28.3903C7.96769 28.3903 7.96599 28.3903 7.9643 28.3903C7.96261 28.3903 7.96092 28.3903 7.95923 28.3903C7.95754 28.3903 7.95585 28.3903 7.95417 28.3903C7.95248 28.3903 7.9508 28.3903 7.94912 28.3903C7.94744 28.3903 7.94577 28.3903 7.94409 28.3903C7.94242 28.3903 7.94074 28.3903 7.93907 28.3903C7.9374 28.3903 7.93574 28.3903 7.93407 28.3903C7.9324 28.3903 7.93074 28.3903 7.92908 28.3903C7.92742 28.3903 7.92576 28.3903 7.9241 28.3903C7.92245 28.3903 7.92079 28.3903 7.91914 28.3903C7.91749 28.3903 7.91584 28.3903 7.91419 28.3903C7.91254 28.3903 7.9109 28.3903 7.90925 28.3903C7.90761 28.3903 7.90597 28.3903 7.90433 28.3903C7.90269 28.3903 7.90105 28.3903 7.89942 28.3903C7.89779 28.3903 7.89615 28.3903 7.89452 28.3903C7.89289 28.3903 7.89127 28.3903 7.88964 28.3903C7.88801 28.3903 7.88639 28.3903 7.88477 28.3903C7.88315 28.3903 7.88153 28.3903 7.87991 28.3903C7.87829 28.3903 7.87668 28.3903 7.87507 28.3903C7.87345 28.3903 7.87184 28.3903 7.87023 28.3903C7.86862 28.3903 7.86702 28.3903 7.86541 28.3903C7.86381 28.3903 7.86221 28.3903 7.86061 28.3903C7.85901 28.3903 7.85741 28.3903 7.85581 28.3903C7.85422 28.3903 7.85262 28.3903 7.85103 28.3903C7.84944 28.3903 7.84785 28.3903 7.84626 28.3903C7.84467 28.3903 7.84309 28.3903 7.8415 28.3903C7.83992 28.3903 7.83834 28.3903 7.83676 28.3903C7.83518 28.3903 7.8336 28.3903 7.83203 28.3903C7.83045 28.3903 7.82888 28.3903 7.82731 28.3903C7.82574 28.3903 7.82417 28.3903 7.8226 28.3903C7.82103 28.3903 7.81947 28.3903 7.8179 28.3903C7.81634 28.3903 7.81478 28.3903 7.81322 28.3903C7.81166 28.3903 7.8101 28.3903 7.80855 28.3903C7.80699 28.3903 7.80544 28.3903 7.80389 28.3903C7.80234 28.3903 7.80079 28.3903 7.79924 28.3903C7.79769 28.3903 7.79615 28.3903 7.79461 28.3903C7.79306 28.3903 7.79152 28.3903 7.78998 28.3903C7.78844 28.3903 7.7869 28.3903 7.78537 28.3903C7.78383 28.3903 7.7823 28.3903 7.78077 28.3903C7.77924 28.3903 7.77771 28.3903 7.77618 28.3903C7.77465 28.3903 7.77313 28.3903 7.7716 28.3903C7.77008 28.3903 7.76856 28.3903 7.76704 28.3903C7.76551 28.3903 7.764 28.3903 7.76248 28.3903C7.76096 28.3903 7.75945 28.3903 7.75794 28.3903C7.75642 28.3903 7.75491 28.3903 7.7534 28.3903C7.75189 28.3903 7.75039 28.3903 7.74888 28.3903C7.74738 28.3903 7.74587 28.3903 7.74437 28.3903C7.74287 28.3903 7.74137 28.3903 7.73987 28.3903C7.73838 28.3903 7.73688 28.3903 7.73539 28.3903C7.73389 28.3903 7.7324 28.3903 7.73091 28.3903C7.72942 28.3903 7.72793 28.3903 7.72644 28.3903C7.72496 28.3903 7.72347 28.3903 7.72199 28.3903C7.7205 28.3903 7.71902 28.3903 7.71754 28.3903C7.71606 28.3903 7.71458 28.3903 7.71311 28.3903C7.71163 28.3903 7.71016 28.3903 7.70868 28.3903C7.70721 28.3903 7.70574 28.3903 7.70427 28.3903C7.7028 28.3903 7.70133 28.3903 7.69987 28.3903C7.6984 28.3903 7.69694 28.3903 7.69548 28.3903C7.69402 28.3903 7.69255 28.3903 7.6911 28.3903C7.68964 28.3903 7.68818 28.3903 7.68672 28.3903C7.68527 28.3903 7.68382 28.3903 7.68236 28.3903C7.68091 28.3903 7.67946 28.3903 7.67801 28.3903C7.67656 28.3903 7.67512 28.3903 7.67367 28.3903C7.67223 28.3903 7.67078 28.3903 7.66934 28.3903C7.6679 28.3903 7.66646 28.3903 7.66502 28.3903C7.66358 28.3903 7.66215 28.3903 7.66071 28.3903C7.65928 28.3903 7.65784 28.3903 7.65641 28.3903C7.65498 28.3903 7.65355 28.3903 7.65212 28.3903C7.65069 28.3903 7.64926 28.3903 7.64784 28.3903C7.64641 28.3903 7.64499 28.3903 7.64357 28.3903C7.64214 28.3903 7.64072 28.3903 7.6393 28.3903C7.63788 28.3903 7.63647 28.3903 7.63505 28.3903C7.63364 28.3903 7.63222 28.3903 7.63081 28.3903C7.6294 28.3903 7.62799 28.3903 7.62658 28.3903C7.62517 28.3903 7.62376 28.3903 7.62235 28.3903C7.62094 28.3903 7.61954 28.3903 7.61814 28.3903C7.61673 28.3903 7.61533 28.3903 7.61393 28.3903C7.61253 28.3903 7.61113 28.3903 7.60973 28.3903C7.60834 28.3903 7.60694 28.3903 7.60555 28.3903C7.60415 28.3903 7.60276 28.3903 7.60137 28.3903C7.59998 28.3903 7.59859 28.3903 7.5972 28.3903C7.59581 28.3903 7.59443 28.3903 7.59304 28.3903C7.59165 28.3903 7.59027 28.3903 7.58889 28.3903C7.58751 28.3903 7.58613 28.3903 7.58475 28.3903C7.58337 28.3903 7.58199 28.3903 7.58061 28.3903C7.57924 28.3903 7.57786 28.3903 7.57649 28.3903C7.57511 28.3903 7.57374 28.3903 7.57237 28.3903C7.571 28.3903 7.56963 28.3903 7.56826 28.3903C7.5669 28.3903 7.56553 28.3903 7.56416 28.3903C7.5628 28.3903 7.56144 28.3903 7.56007 28.3903C7.55871 28.3903 7.55735 28.3903 7.55599 28.3903C7.55463 28.3903 7.55327 28.3903 7.55192 28.3903C7.55056 28.3903 7.5492 28.3903 7.54785 28.3903C7.5465 28.3903 7.54514 28.3903 7.54379 28.3903C7.54244 28.3903 7.54109 28.3903 7.53974 28.3903C7.53839 28.3903 7.53705 28.3903 7.5357 28.3903C7.53435 28.3903 7.53301 28.3903 7.53167 28.3903C7.53032 28.3903 7.52898 28.3903 7.52764 28.3903C7.5263 28.3903 7.52496 28.3903 7.52362 28.3903C7.52229 28.3903 7.52095 28.3903 7.51961 28.3903C7.51828 28.3903 7.51694 28.3903 7.51561 28.3903C7.51428 28.3903 7.51295 28.3903 7.51162 28.3903C7.51029 28.3903 7.50896 28.3903 7.50763 28.3903C7.5063 28.3903 7.50498 28.3903 7.50365 28.3903C7.50233 28.3903 7.501 28.3903 7.49968 28.3903C7.49836 28.3903 7.49703 28.3903 7.49571 28.3903C7.49439 28.3903 7.49307 28.3903 7.49176 28.3903C7.49044 28.3903 7.48912 28.3903 7.48781 28.3903C7.48649 28.3903 7.48518 28.3903 7.48386 28.3903C7.48255 28.3903 7.48124 28.3903 7.47993 28.3903C7.47862 28.3903 7.47731 28.3903 7.476 28.3903C7.47469 28.3903 7.47339 28.3903 7.47208 28.3903C7.47077 28.3903 7.46947 28.3903 7.46817 28.3903C7.46686 28.3903 7.46556 28.3903 7.46426 28.3903C7.46296 28.3903 7.46166 28.3903 7.46036 28.3903C7.45906 28.3903 7.45776 28.3903 7.45646 28.3903C7.45517 28.3903 7.45387 28.3903 7.45258 28.3903C7.45128 28.3903 7.44999 28.3903 7.4487 28.3903C7.44741 28.3903 7.44611 28.3903 7.44482 28.3903C7.44353 28.3903 7.44225 28.3903 7.44096 28.3903C7.43967 28.3903 7.43838 28.3903 7.4371 28.3903C7.43581 28.3903 7.43453 28.3903 7.43324 28.3903C7.43196 28.3903 7.43068 28.3903 7.4294 28.3903C7.42811 28.3903 7.42683 28.3903 7.42555 28.3903C7.42427 28.3903 7.423 28.3903 7.42172 28.3903C7.42044 28.3903 7.41917 28.3903 7.41789 28.3903C7.41661 28.3903 7.41534 28.3903 7.41407 28.3903C7.41279 28.3903 7.41152 28.3903 7.41025 28.3903C7.40898 28.3903 7.40771 28.3903 7.40644 28.3903C7.40517 28.3903 7.4039 28.3903 7.40264 28.3903C7.40137 28.3903 7.4001 28.3903 7.39884 28.3903C7.39757 28.3903 7.39631 28.3903 7.39504 28.3903C7.39378 28.3903 7.39252 28.3903 7.39126 28.3903C7.38999 28.3903 7.38873 28.3903 7.38747 28.3903C7.38621 28.3903 7.38496 28.3903 7.3837 28.3903C7.38244 28.3903 7.38118 28.3903 7.37993 28.3903C7.37867 28.3903 7.37742 28.3903 7.37616 28.3903C7.37491 28.3903 7.37366 28.3903 7.3724 28.3903C7.37115 28.3903 7.3699 28.3903 7.36865 28.3903C7.3674 28.3903 7.36615 28.3903 7.3649 28.3903C7.36365 28.3903 7.3624 28.3903 7.36116 28.3903C7.35991 28.3903 7.35866 28.3903 7.35742 28.3903C7.35617 28.3903 7.35493 28.3903 7.35369 28.3903C7.35244 28.3903 7.3512 28.3903 7.34996 28.3903C7.34872 28.3903 7.34747 28.3903 7.34623 28.3903C7.34499 28.3903 7.34375 28.3903 7.34252 28.3903C7.34128 28.3903 7.34004 28.3903 7.3388 28.3903C7.33757 28.3903 7.33633 28.3903 7.33509 28.3903C7.33386 28.3903 7.33262 28.3903 7.33139 28.3903C7.33016 28.3903 7.32892 28.3903 7.32769 28.3903C7.32646 28.3903 7.32523 28.3903 7.324 28.3903C7.32277 28.3903 7.32154 28.3903 7.32031 28.3903C7.31908 28.3903 7.31785 28.3903 7.31662 28.3903C7.31539 28.3903 7.31417 28.3903 7.31294 28.3903C7.31171 28.3903 7.31049 28.3903 7.30926 28.3903C7.30804 28.3903 7.30681 28.3903 7.30559 28.3903C7.30437 28.3903 7.30314 28.3903 7.30192 28.3903C7.3007 28.3903 7.29948 28.3903 7.29826 28.3903C7.29704 28.3903 7.29582 28.3903 7.2946 28.3903C7.29338 28.3903 7.29216 28.3903 7.29094 28.3903C7.28973 28.3903 7.28851 28.3903 7.28729 28.3903C7.28608 28.3903 7.28486 28.3903 7.28364 28.3903C7.28243 28.3903 7.28121 28.3903 7.28 28.3903C7.27879 28.3903 7.27757 28.3903 7.27636 28.3903C7.27515 28.3903 7.27393 28.3903 7.27272 28.3903C7.27151 28.3903 7.2703 28.3903 7.26909 28.3903C7.26788 28.3903 7.26667 28.3903 7.26546 28.3903C7.26425 28.3903 7.26304 28.3903 7.26184 28.3903C7.26063 28.3903 7.25942 28.3903 7.25821 28.3903C7.25701 28.3903 7.2558 28.3903 7.2546 28.3903C7.25339 28.3903 7.25219 28.3903 7.25098 28.3903C7.24978 28.3903 7.24857 28.3903 7.24737 28.3903C7.24617 28.3903 7.24496 28.3903 7.24376 28.3903C7.24256 28.3903 7.24136 28.3903 7.24015 28.3903C7.23895 28.3903 7.23775 28.3903 7.23655 28.3903C7.23535 28.3903 7.23415 28.3903 7.23295 28.3903C7.23175 28.3903 7.23056 28.3903 7.22936 28.3903C7.22816 28.3903 7.22696 28.3903 7.22576 28.3903C7.22457 28.3903 7.22337 28.3903 7.22217 28.3903C7.22098 28.3903 7.21978 28.3903 7.21859 28.3903C7.21739 28.3903 7.2162 28.3903 7.215 28.3903C7.21381 28.3903 7.21261 28.3903 7.21142 28.3903C7.21023 28.3903 7.20903 28.3903 7.20784 28.3903C7.20665 28.3903 7.20545 28.3903 7.20426 28.3903C7.20307 28.3903 7.20188 28.3903 7.20069 28.3903C7.1995 28.3903 7.19831 28.3903 7.19712 28.3903C7.19593 28.3903 7.19474 28.3903 7.19355 28.3903C7.19236 28.3903 7.19117 28.3903 7.18998 28.3903C7.18879 28.3903 7.1876 28.3903 7.18641 28.3903C7.18523 28.3903 7.18404 28.3903 7.18285 28.3903C7.18166 28.3903 7.18048 28.3903 7.17929 28.3903C7.1781 28.3903 7.17692 28.3903 7.17573 28.3903C7.17455 28.3903 7.17336 28.3903 7.17217 28.3903C7.17099 28.3903 7.1698 28.3903 7.16862 28.3903C7.16744 28.3903 7.16625 28.3903 7.16507 28.3903C7.16388 28.3903 7.1627 28.3903 7.16152 28.3903C7.16033 28.3903 7.15915 28.3903 7.15797 28.3903C7.15678 28.3903 7.1556 28.3903 7.15442 28.3903C7.15324 28.3903 7.15205 28.3903 7.15087 28.3903C7.14969 28.3903 7.14851 28.3903 7.14733 28.3903C7.14615 28.3903 7.14497 28.3903 7.14379 28.3903C7.1426 28.3903 7.14142 28.3903 7.14024 28.3903C7.13906 28.3903 7.13788 28.3903 7.1367 28.3903C7.13552 28.3903 7.13434 28.3903 7.13316 28.3903C7.13199 28.3903 7.13081 28.3903 7.12963 28.3903C7.12845 28.3903 7.12727 28.3903 7.12609 28.3903C7.12491 28.3903 7.12373 28.3903 7.12256 28.3903C7.12138 28.3903 7.1202 28.3903 7.11902 28.3903C7.11784 28.3903 7.11667 28.3903 7.11549 28.3903C7.11431 28.3903 7.11313 28.3903 7.11196 28.3903C7.11078 28.3903 7.1096 28.3903 7.10842 28.3903C7.10725 28.3903 7.10607 28.3903 7.10489 28.3903C7.10372 28.3903 7.10254 28.3903 7.10136 28.3903C7.10019 28.3903 7.09901 28.3903 7.09783 28.3903C7.09666 28.3903 7.09548 28.3903 7.09431 28.3903C7.09313 28.3903 7.09195 28.3903 7.09078 28.3903C7.0896 28.3903 7.08843 28.3903 7.08725 28.3903C7.08607 28.3903 7.0849 28.3903 7.08372 28.3903C7.08255 28.3903 7.08137 28.3903 7.0802 28.3903C7.07902 28.3903 7.07785 28.3903 7.07667 28.3903C7.0755 28.3903 7.07432 28.3903 7.07314 28.3903C7.07197 28.3903 7.07079 28.3903 7.06962 28.3903C7.06844 28.3903 7.06727 28.3903 7.06609 28.3903C7.06492 28.3903 7.06374 28.3903 7.06257 28.3903C7.06139 28.3903 7.06022 28.3903 7.05904 28.3903C7.05787 28.3903 7.05669 28.3903 7.05552 28.3903C7.05434 28.3903 7.05316 28.3903 7.05199 28.3903C7.05081 28.3903 7.04964 28.3903 7.04846 28.3903C7.04729 28.3903 7.04611 28.3903 7.04494 28.3903C7.04376 28.3903 7.04259 28.3903 7.04141 28.3903C7.04024 28.3903 7.03906 28.3903 7.03788 28.3903C7.03671 28.3903 7.03553 28.3903 7.03436 28.3903C7.03318 28.3903 7.032 28.3903 7.03083 28.3903C7.02965 28.3903 7.02848 28.3903 7.0273 28.3903C7.02612 28.3903 7.02495 28.3903 7.02377 28.3903C7.02259 28.3903 7.02142 28.3903 7.02024 28.3903C7.01906 28.3903 7.01789 28.3903 7.01671 28.3903C7.01553 28.3903 7.01436 28.3903 7.01318 28.3903C7.012 28.3903 7.01082 28.3903 7.00965 28.3903C7.00847 28.3903 7.00729 28.3903 7.00611 28.3903C7.00494 28.3903 7.00376 28.3903 7.00258 28.3903C7.0014 28.3903 7.00022 28.3903 6.99904 28.3903C6.99786 28.3903 6.99669 28.3903 6.99551 28.3903C6.99433 28.3903 6.99315 28.3903 6.99197 28.3903C6.99079 28.3903 6.98961 28.3903 6.98843 28.3903C6.98725 28.3903 6.98607 28.3903 6.98489 28.3903C6.98371 28.3903 6.98253 28.3903 6.98135 28.3903C6.98017 28.3903 6.97899 28.3903 6.97781 28.3903C6.97662 28.3903 6.97544 28.3903 6.97426 28.3903C6.97308 28.3903 6.9719 28.3903 6.97072 28.3903C6.96953 28.3903 6.96835 28.3903 6.96717 28.3903C6.96598 28.3903 6.9648 28.3903 6.96362 28.3903C6.96243 28.3903 6.96125 28.3903 6.96007 28.3903C6.95888 28.3903 6.9577 28.3903 6.95651 28.3903C6.95533 28.3903 6.95414 28.3903 6.95296 28.3903C6.95177 28.3903 6.95059 28.3903 6.9494 28.3903C6.94822 28.3903 6.94703 28.3903 6.94584 28.3903C6.94466 28.3903 6.94347 28.3903 6.94228 28.3903C6.9411 28.3903 6.93991 28.3903 6.93872 28.3903C6.93753 28.3903 6.93634 28.3903 6.93516 28.3903C6.93397 28.3903 6.93278 28.3903 6.93159 28.3903C6.9304 28.3903 6.92921 28.3903 6.92802 28.3903C6.92683 28.3903 6.92564 28.3903 6.92445 28.3903C6.92326 28.3903 6.92206 28.3903 6.92087 28.3903C6.91968 28.3903 6.91849 28.3903 6.91729 28.3903C6.9161 28.3903 6.91491 28.3903 6.91372 28.3903C6.91252 28.3903 6.91133 28.3903 6.91013 28.3903C6.90894 28.3903 6.90774 28.3903 6.90655 28.3903C6.90535 28.3903 6.90416 28.3903 6.90296 28.3903C6.90176 28.3903 6.90057 28.3903 6.89937 28.3903C6.89817 28.3903 6.89698 28.3903 6.89578 28.3903C6.89458 28.3903 6.89338 28.3903 6.89218 28.3903C6.89098 28.3903 6.88978 28.3903 6.88858 28.3903C6.88738 28.3903 6.88618 28.3903 6.88498 28.3903C6.88378 28.3903 6.88258 28.3903 6.88137 28.3903C6.88017 28.3903 6.87897 28.3903 6.87777 28.3903C6.87656 28.3903 6.87536 28.3903 6.87415 28.3903C6.87295 28.3903 6.87174 28.3903 6.87054 28.3903C6.86933 28.3903 6.86813 28.3903 6.86692 28.3903C6.86571 28.3903 6.86451 28.3903 6.8633 28.3903C6.86209 28.3903 6.86088 28.3903 6.85967 28.3903C6.85846 28.3903 6.85725 28.3903 6.85604 28.3903C6.85483 28.3903 6.85362 28.3903 6.85241 28.3903C6.8512 28.3903 6.84999 28.3903 6.84877 28.3903C6.84756 28.3903 6.84635 28.3903 6.84513 28.3903C6.84392 28.3903 6.84271 28.3903 6.84149 28.3903C6.84028 28.3903 6.83906 28.3903 6.83784 28.3903C6.83663 28.3903 6.83541 28.3903 6.83419 28.3903C6.83297 28.3903 6.83175 28.3903 6.83054 28.3903C6.82932 28.3903 6.8281 28.3903 6.82688 28.3903C6.82565 28.3903 6.82443 28.3903 6.82321 28.3903C6.82199 28.3903 6.82077 28.3903 6.81954 28.3903C6.81832 28.3903 6.8171 28.3903 6.81587 28.3903C6.81465 28.3903 6.81342 28.3903 6.81219 28.3903C6.81097 28.3903 6.80974 28.3903 6.80851 28.3903C6.80729 28.3903 6.80606 28.3903 6.80483 28.3903C6.8036 28.3903 6.80237 28.3903 6.80114 28.3903C6.79991 28.3903 6.79868 28.3903 6.79744 28.3903C6.79621 28.3903 6.79498 28.3903 6.79374 28.3903C6.79251 28.3903 6.79128 28.3903 6.79004 28.3903C6.78881 28.3903 6.78757 28.3903 6.78633 28.3903C6.7851 28.3903 6.78386 28.3903 6.78262 28.3903C6.78138 28.3903 6.78014 28.3903 6.7789 28.3903C6.77766 28.3903 6.77642 28.3903 6.77518 28.3903C6.77394 28.3903 6.77269 28.3903 6.77145 28.3903C6.77021 28.3903 6.76896 28.3903 6.76772 28.3903C6.76647 28.3903 6.76522 28.3903 6.76398 28.3903C6.76273 28.3903 6.76148 28.3903 6.76023 28.3903C6.75899 28.3903 6.75774 28.3903 6.75648 28.3903C6.75523 28.3903 6.75398 28.3903 6.75273 28.3903C6.75148 28.3903 6.75023 28.3903 6.74897 28.3903C6.74772 28.3903 6.74646 28.3903 6.74521 28.3903C6.74395 28.3903 6.74269 28.3903 6.74144 28.3903C6.74018 28.3903 6.73892 28.3903 6.73766 28.3903C6.7364 28.3903 6.73514 28.3903 6.73388 28.3903C6.73262 28.3903 6.73135 28.3903 6.73009 28.3903C6.72883 28.3903 6.72756 28.3903 6.7263 28.3903C6.72503 28.3903 6.72377 28.3903 6.7225 28.3903C6.72123 28.3903 6.71996 28.3903 6.71869 28.3903C6.71743 28.3903 6.71616 28.3903 6.71488 28.3903C6.71361 28.3903 6.71234 28.3903 6.71107 28.3903C6.70979 28.3903 6.70852 28.3903 6.70724 28.3903C6.70597 28.3903 6.70469 28.3903 6.70342 28.3903C6.70214 28.3903 6.70086 28.3903 6.69958 28.3903C6.6983 28.3903 6.69702 28.3903 6.69574 28.3903C6.69446 28.3903 6.69317 28.3903 6.69189 28.3903C6.69061 28.3903 6.68932 28.3903 6.68804 28.3903C6.68675 28.3903 6.68546 28.3903 6.68418 28.3903C6.68289 28.3903 6.6816 28.3903 6.68031 28.3903C6.67902 28.3903 6.67773 28.3903 6.67644 28.3903C6.67514 28.3903 6.67385 28.3903 6.67256 28.3903C6.67126 28.3903 6.66997 28.3903 6.66867 28.3903C6.66737 28.3903 6.66608 28.3903 6.66478 28.3903C6.66348 28.3903 6.66218 28.3903 6.66088 28.3903C6.65957 28.3903 6.65827 28.3903 6.65697 28.3903C6.65566 28.3903 6.65436 28.3903 6.65305 28.3903C6.65175 28.3903 6.65044 28.3903 6.64913 28.3903C6.64783 28.3903 6.64652 28.3903 6.64521 28.3903C6.64389 28.3903 6.64258 28.3903 6.64127 28.3903C6.63996 28.3903 6.63864 28.3903 6.63733 28.3903C6.63601 28.3903 6.6347 28.3903 6.63338 28.3903C6.63206 28.3903 6.63074 28.3903 6.62942 28.3903C6.6281 28.3903 6.62678 28.3903 6.62546 28.3903C6.62413 28.3903 6.62281 28.3903 6.62148 28.3903C6.62016 28.3903 6.61883 28.3903 6.6175 28.3903C6.61618 28.3903 6.61485 28.3903 6.61352 28.3903C6.61219 28.3903 6.61086 28.3903 6.60952 28.3903C6.60819 28.3903 6.60686 28.3903 6.60552 28.3903C6.60419 28.3903 6.60285 28.3903 6.60151 28.3903C6.60017 28.3903 6.59883 28.3903 6.59749 28.3903C6.59615 28.3903 6.59481 28.3903 6.59347 28.3903C6.59212 28.3903 6.59078 28.3903 6.58943 28.3903C6.58809 28.3903 6.58674 28.3903 6.58539 28.3903C6.58404 28.3903 6.58269 28.3903 6.58134 28.3903C6.57999 28.3903 6.57864 28.3903 6.57728 28.3903C6.57593 28.3903 6.57457 28.3903 6.57322 28.3903C6.57186 28.3903 6.5705 28.3903 6.56914 28.3903C6.56778 28.3903 6.56642 28.3903 6.56506 28.3903C6.5637 28.3903 6.56234 28.3903 6.56097 28.3903C6.55961 28.3903 6.55824 28.3903 6.55687 28.3903C6.5555 28.3903 6.55413 28.3903 6.55276 28.3903C6.55139 28.3903 6.55002 28.3903 6.54865 28.3903C6.54727 28.3903 6.5459 28.3903 6.54452 28.3903C6.54315 28.3903 6.54177 28.3903 6.54039 28.3903C6.53901 28.3903 6.53763 28.3903 6.53625 28.3903C6.53486 28.3903 6.53348 28.3903 6.53209 28.3903C6.53071 28.3903 6.52932 28.3903 6.52793 28.3903C6.52655 28.3903 6.52516 28.3903 6.52377 28.3903C6.52237 28.3903 6.52098 28.3903 6.51959 28.3903C6.51819 28.3903 6.5168 28.3903 6.5154 28.3903C6.514 28.3903 6.5126 28.3903 6.5112 28.3903C6.5098 28.3903 6.5084 28.3903 6.507 28.3903C6.50559 28.3903 6.50419 28.3903 6.50278 28.3903C6.50138 28.3903 6.49997 28.3903 6.49856 28.3903C6.49715 28.3903 6.49574 28.3903 6.49433 28.3903C6.49291 28.3903 6.4915 28.3903 6.49008 28.3903C6.48867 28.3903 6.48725 28.3903 6.48583 28.3903C6.48441 28.3903 6.48299 28.3903 6.48157 28.3903C6.48015 28.3903 6.47872 28.3903 6.4773 28.3903C6.47587 28.3903 6.47444 28.3903 6.47302 28.3903C6.47159 28.3903 6.47016 28.3903 6.46872 28.3903C6.46729 28.3903 6.46586 28.3903 6.46442 28.3903C6.46299 28.3903 6.46155 28.3903 6.46011 28.3903C6.45867 28.3903 6.45723 28.3903 6.45579 28.3903C6.45435 28.3903 6.45291 28.3903 6.45146 28.3903C6.45002 28.3903 6.44857 28.3903 6.44712 28.3903C6.44567 28.3903 6.44422 28.3903 6.44277 28.3903C6.44132 28.3903 6.43987 28.3903 6.43841 28.3903C6.43695 28.3903 6.4355 28.3903 6.43404 28.3903C6.43258 28.3903 6.43112 28.3903 6.42966 28.3903C6.42819 28.3903 6.42673 28.3903 6.42527 28.3903C6.4238 28.3903 6.42233 28.3903 6.42086 28.3903C6.41939 28.3903 6.41792 28.3903 6.41645 28.3903C6.41498 28.3903 6.4135 28.3903 6.41203 28.3903C6.41055 28.3903 6.40907 28.3903 6.40759 28.3903C6.40611 28.3903 6.40463 28.3903 6.40315 28.3903C6.40166 28.3903 6.40018 28.3903 6.39869 28.3903C6.39721 28.3903 6.39572 28.3903 6.39423 28.3903C6.39274 28.3903 6.39124 28.3903 6.38975 28.3903C6.38825 28.3903 6.38676 28.3903 6.38526 28.3903C6.38376 28.3903 6.38226 28.3903 6.38076 28.3903C6.37926 28.3903 6.37776 28.3903 6.37625 28.3903C6.37475 28.3903 6.37324 28.3903 6.37173 28.3903C6.37022 28.3903 6.36871 28.3903 6.3672 28.3903C6.36569 28.3903 6.36417 28.3903 6.36265 28.3903C6.36114 28.3903 6.35962 28.3903 6.3581 28.3903C6.35658 28.3903 6.35506 28.3903 6.35353 28.3903C6.35201 28.3903 6.35048 28.3903 6.34896 28.3903C6.34743 28.3903 6.3459 28.3903 6.34437 28.3903C6.34283 28.3903 6.3413 28.3903 6.33977 28.3903C6.33823 28.3903 6.33669 28.3903 6.33515 28.3903C6.33361 28.3903 6.33207 28.3903 6.33053 28.3903C6.32899 28.3903 6.32744 28.3903 6.32589 28.3903C6.32435 28.3903 6.3228 28.3903 6.32124 28.3903C6.31969 28.3903 6.31814 28.3903 6.31659 28.3903C6.31503 28.3903 6.31347 28.3903 6.31191 28.3903C6.31035 28.3903 6.30879 28.3903 6.30723 28.3903C6.30567 28.3903 6.3041 28.3903 6.30253 28.3903C6.30097 28.3903 6.2994 28.3903 6.29783 28.3903C6.29626 28.3903 6.29468 28.3903 6.29311 28.3903C6.29153 28.3903 6.28995 28.3903 6.28837 28.3903C6.2868 28.3903 6.28521 28.3903 6.28363 28.3903C6.28205 28.3903 6.28046 28.3903 6.27887 28.3903C6.27729 28.3903 6.2757 28.3903 6.2741 28.3903C6.27251 28.3903 6.27092 28.3903 6.26932 28.3903C6.26773 28.3903 6.26613 28.3903 6.26453 28.3903C6.26293 28.3903 6.26133 28.3903 6.25972 28.3903C6.25812 28.3903 6.25651 28.3903 6.2549 28.3903C6.25329 28.3903 6.25168 28.3903 6.25007 28.3903C6.24846 28.3903 6.24684 28.3903 6.24522 28.3903C6.24361 28.3903 6.24199 28.3903 6.24037 28.3903C6.23874 28.3903 6.23712 28.3903 6.2355 28.3903C6.23387 28.3903 6.23224 28.3903 6.23061 28.3903C6.22898 28.3903 6.22735 28.3903 6.22571 28.3903C6.22408 28.3903 6.22244 28.3903 6.2208 28.3903C6.21916 28.3903 6.21752 28.3903 6.21588 28.3903C6.21424 28.3903 6.21259 28.3903 6.21094 28.3903C6.2093 28.3903 6.20765 28.3903 6.20599 28.3903C6.20434 28.3903 6.20269 28.3903 6.20103 28.3903C6.19937 28.3903 6.19771 28.3903 6.19605 28.3903C6.19439 28.3903 6.19273 28.3903 6.19106 28.3903C6.1894 28.3903 6.18773 28.3903 6.18606 28.3903C6.18439 28.3903 6.18272 28.3903 6.18104 28.3903C6.17937 28.3903 6.17769 28.3903 6.17601 28.3903C6.17433 28.3903 6.17265 28.3903 6.17097 28.3903C6.16928 28.3903 6.1676 28.3903 6.16591 28.3903C6.16422 28.3903 6.16253 28.3903 6.16084 28.3903C6.15914 28.3903 6.15745 28.3903 6.15575 28.3903C6.15405 28.3903 6.15235 28.3903 6.15065 28.3903C6.14895 28.3903 6.14724 28.3903 6.14553 28.3903C6.14383 28.3903 6.14212 28.3903 6.14041 28.3903C6.13869 28.3903 6.13698 28.3903 6.13526 28.3903C6.13355 28.3903 6.13183 28.3903 6.13011 28.3903C6.12838 28.3903 6.12666 28.3903 6.12493 28.3903C6.12321 28.3903 6.12148 28.3903 6.11975 28.3903C6.11802 28.3903 6.11628 28.3903 6.11455 28.3903C6.11281 28.3903 6.11107 28.3903 6.10933 28.3903C6.10759 28.3903 6.10585 28.3903 6.1041 28.3903C6.10236 28.3903 6.10061 28.3903 6.09886 28.3903C6.09711 28.3903 6.09536 28.3903 6.0936 28.3903C6.09185 28.3903 6.09009 28.3903 6.08833 28.3903C6.08657 28.3903 6.08481 28.3903 6.08304 28.3903C6.08127 28.3903 6.07951 28.3903 6.07774 28.3903C6.07597 28.3903 6.07419 28.3903 6.07242 28.3903C6.07064 28.3903 6.06887 28.3903 6.06709 28.3903C6.06531 28.3903 6.06352 28.3903 6.06174 28.3903C6.05995 28.3903 6.05817 28.3903 6.05638 28.3903C6.05458 28.3903 6.05279 28.3903 6.051 28.3903C6.0492 28.3903 6.0474 28.3903 6.0456 28.3903C6.0438 28.3903 6.042 28.3903 6.04019 28.3903C6.03839 28.3903 6.03658 28.3903 6.03477 28.3903C6.03296 28.3903 6.03115 28.3903 6.02933 28.3903C6.02751 28.3903 6.0257 28.3903 6.02388 28.3903C6.02205 28.3903 6.02023 28.3903 6.0184 28.3903C6.01658 28.3903 6.01475 28.3903 6.01292 28.3903C6.01109 28.3903 6.00925 28.3903 6.00742 28.3903C6.00558 28.3903 6.00374 28.3903 6.0019 28.3903C6.00006 28.3903 5.99821 28.3903 5.99637 28.3903C5.99452 28.3903 5.99267 28.3903 5.99082 28.3903C5.98896 28.3903 5.98711 28.3903 5.98525 28.3903V29.5903C5.98711 29.5903 5.98896 29.5903 5.99082 29.5903C5.99267 29.5903 5.99452 29.5903 5.99637 29.5903C5.99821 29.5903 6.00006 29.5903 6.0019 29.5903C6.00374 29.5903 6.00558 29.5903 6.00742 29.5903C6.00925 29.5903 6.01109 29.5903 6.01292 29.5903C6.01475 29.5903 6.01658 29.5903 6.0184 29.5903C6.02023 29.5903 6.02205 29.5903 6.02388 29.5903C6.0257 29.5903 6.02751 29.5903 6.02933 29.5903C6.03115 29.5903 6.03296 29.5903 6.03477 29.5903C6.03658 29.5903 6.03839 29.5903 6.04019 29.5903C6.042 29.5903 6.0438 29.5903 6.0456 29.5903C6.0474 29.5903 6.0492 29.5903 6.051 29.5903C6.05279 29.5903 6.05458 29.5903 6.05638 29.5903C6.05817 29.5903 6.05995 29.5903 6.06174 29.5903C6.06352 29.5903 6.06531 29.5903 6.06709 29.5903C6.06887 29.5903 6.07064 29.5903 6.07242 29.5903C6.07419 29.5903 6.07597 29.5903 6.07774 29.5903C6.07951 29.5903 6.08127 29.5903 6.08304 29.5903C6.08481 29.5903 6.08657 29.5903 6.08833 29.5903C6.09009 29.5903 6.09185 29.5903 6.0936 29.5903C6.09536 29.5903 6.09711 29.5903 6.09886 29.5903C6.10061 29.5903 6.10236 29.5903 6.1041 29.5903C6.10585 29.5903 6.10759 29.5903 6.10933 29.5903C6.11107 29.5903 6.11281 29.5903 6.11455 29.5903C6.11628 29.5903 6.11802 29.5903 6.11975 29.5903C6.12148 29.5903 6.12321 29.5903 6.12493 29.5903C6.12666 29.5903 6.12838 29.5903 6.13011 29.5903C6.13183 29.5903 6.13355 29.5903 6.13526 29.5903C6.13698 29.5903 6.13869 29.5903 6.14041 29.5903C6.14212 29.5903 6.14383 29.5903 6.14553 29.5903C6.14724 29.5903 6.14895 29.5903 6.15065 29.5903C6.15235 29.5903 6.15405 29.5903 6.15575 29.5903C6.15745 29.5903 6.15914 29.5903 6.16084 29.5903C6.16253 29.5903 6.16422 29.5903 6.16591 29.5903C6.1676 29.5903 6.16928 29.5903 6.17097 29.5903C6.17265 29.5903 6.17433 29.5903 6.17601 29.5903C6.17769 29.5903 6.17937 29.5903 6.18104 29.5903C6.18272 29.5903 6.18439 29.5903 6.18606 29.5903C6.18773 29.5903 6.1894 29.5903 6.19106 29.5903C6.19273 29.5903 6.19439 29.5903 6.19605 29.5903C6.19771 29.5903 6.19937 29.5903 6.20103 29.5903C6.20269 29.5903 6.20434 29.5903 6.20599 29.5903C6.20765 29.5903 6.2093 29.5903 6.21094 29.5903C6.21259 29.5903 6.21424 29.5903 6.21588 29.5903C6.21752 29.5903 6.21916 29.5903 6.2208 29.5903C6.22244 29.5903 6.22408 29.5903 6.22571 29.5903C6.22735 29.5903 6.22898 29.5903 6.23061 29.5903C6.23224 29.5903 6.23387 29.5903 6.2355 29.5903C6.23712 29.5903 6.23874 29.5903 6.24037 29.5903C6.24199 29.5903 6.24361 29.5903 6.24522 29.5903C6.24684 29.5903 6.24846 29.5903 6.25007 29.5903C6.25168 29.5903 6.25329 29.5903 6.2549 29.5903C6.25651 29.5903 6.25812 29.5903 6.25972 29.5903C6.26133 29.5903 6.26293 29.5903 6.26453 29.5903C6.26613 29.5903 6.26773 29.5903 6.26932 29.5903C6.27092 29.5903 6.27251 29.5903 6.2741 29.5903C6.2757 29.5903 6.27729 29.5903 6.27887 29.5903C6.28046 29.5903 6.28205 29.5903 6.28363 29.5903C6.28521 29.5903 6.2868 29.5903 6.28837 29.5903C6.28995 29.5903 6.29153 29.5903 6.29311 29.5903C6.29468 29.5903 6.29626 29.5903 6.29783 29.5903C6.2994 29.5903 6.30097 29.5903 6.30253 29.5903C6.3041 29.5903 6.30567 29.5903 6.30723 29.5903C6.30879 29.5903 6.31035 29.5903 6.31191 29.5903C6.31347 29.5903 6.31503 29.5903 6.31659 29.5903C6.31814 29.5903 6.31969 29.5903 6.32124 29.5903C6.3228 29.5903 6.32435 29.5903 6.32589 29.5903C6.32744 29.5903 6.32899 29.5903 6.33053 29.5903C6.33207 29.5903 6.33361 29.5903 6.33515 29.5903C6.33669 29.5903 6.33823 29.5903 6.33977 29.5903C6.3413 29.5903 6.34283 29.5903 6.34437 29.5903C6.3459 29.5903 6.34743 29.5903 6.34896 29.5903C6.35048 29.5903 6.35201 29.5903 6.35353 29.5903C6.35506 29.5903 6.35658 29.5903 6.3581 29.5903C6.35962 29.5903 6.36114 29.5903 6.36265 29.5903C6.36417 29.5903 6.36569 29.5903 6.3672 29.5903C6.36871 29.5903 6.37022 29.5903 6.37173 29.5903C6.37324 29.5903 6.37475 29.5903 6.37625 29.5903C6.37776 29.5903 6.37926 29.5903 6.38076 29.5903C6.38226 29.5903 6.38376 29.5903 6.38526 29.5903C6.38676 29.5903 6.38825 29.5903 6.38975 29.5903C6.39124 29.5903 6.39274 29.5903 6.39423 29.5903C6.39572 29.5903 6.39721 29.5903 6.39869 29.5903C6.40018 29.5903 6.40166 29.5903 6.40315 29.5903C6.40463 29.5903 6.40611 29.5903 6.40759 29.5903C6.40907 29.5903 6.41055 29.5903 6.41203 29.5903C6.4135 29.5903 6.41498 29.5903 6.41645 29.5903C6.41792 29.5903 6.41939 29.5903 6.42086 29.5903C6.42233 29.5903 6.4238 29.5903 6.42527 29.5903C6.42673 29.5903 6.42819 29.5903 6.42966 29.5903C6.43112 29.5903 6.43258 29.5903 6.43404 29.5903C6.4355 29.5903 6.43695 29.5903 6.43841 29.5903C6.43987 29.5903 6.44132 29.5903 6.44277 29.5903C6.44422 29.5903 6.44567 29.5903 6.44712 29.5903C6.44857 29.5903 6.45002 29.5903 6.45146 29.5903C6.45291 29.5903 6.45435 29.5903 6.45579 29.5903C6.45723 29.5903 6.45867 29.5903 6.46011 29.5903C6.46155 29.5903 6.46299 29.5903 6.46442 29.5903C6.46586 29.5903 6.46729 29.5903 6.46872 29.5903C6.47016 29.5903 6.47159 29.5903 6.47302 29.5903C6.47444 29.5903 6.47587 29.5903 6.4773 29.5903C6.47872 29.5903 6.48015 29.5903 6.48157 29.5903C6.48299 29.5903 6.48441 29.5903 6.48583 29.5903C6.48725 29.5903 6.48867 29.5903 6.49008 29.5903C6.4915 29.5903 6.49291 29.5903 6.49433 29.5903C6.49574 29.5903 6.49715 29.5903 6.49856 29.5903C6.49997 29.5903 6.50138 29.5903 6.50278 29.5903C6.50419 29.5903 6.50559 29.5903 6.507 29.5903C6.5084 29.5903 6.5098 29.5903 6.5112 29.5903C6.5126 29.5903 6.514 29.5903 6.5154 29.5903C6.5168 29.5903 6.51819 29.5903 6.51959 29.5903C6.52098 29.5903 6.52237 29.5903 6.52377 29.5903C6.52516 29.5903 6.52655 29.5903 6.52793 29.5903C6.52932 29.5903 6.53071 29.5903 6.53209 29.5903C6.53348 29.5903 6.53486 29.5903 6.53625 29.5903C6.53763 29.5903 6.53901 29.5903 6.54039 29.5903C6.54177 29.5903 6.54315 29.5903 6.54452 29.5903C6.5459 29.5903 6.54727 29.5903 6.54865 29.5903C6.55002 29.5903 6.55139 29.5903 6.55276 29.5903C6.55413 29.5903 6.5555 29.5903 6.55687 29.5903C6.55824 29.5903 6.55961 29.5903 6.56097 29.5903C6.56234 29.5903 6.5637 29.5903 6.56506 29.5903C6.56642 29.5903 6.56778 29.5903 6.56914 29.5903C6.5705 29.5903 6.57186 29.5903 6.57322 29.5903C6.57457 29.5903 6.57593 29.5903 6.57728 29.5903C6.57864 29.5903 6.57999 29.5903 6.58134 29.5903C6.58269 29.5903 6.58404 29.5903 6.58539 29.5903C6.58674 29.5903 6.58809 29.5903 6.58943 29.5903C6.59078 29.5903 6.59212 29.5903 6.59347 29.5903C6.59481 29.5903 6.59615 29.5903 6.59749 29.5903C6.59883 29.5903 6.60017 29.5903 6.60151 29.5903C6.60285 29.5903 6.60419 29.5903 6.60552 29.5903C6.60686 29.5903 6.60819 29.5903 6.60952 29.5903C6.61086 29.5903 6.61219 29.5903 6.61352 29.5903C6.61485 29.5903 6.61618 29.5903 6.6175 29.5903C6.61883 29.5903 6.62016 29.5903 6.62148 29.5903C6.62281 29.5903 6.62413 29.5903 6.62546 29.5903C6.62678 29.5903 6.6281 29.5903 6.62942 29.5903C6.63074 29.5903 6.63206 29.5903 6.63338 29.5903C6.6347 29.5903 6.63601 29.5903 6.63733 29.5903C6.63864 29.5903 6.63996 29.5903 6.64127 29.5903C6.64258 29.5903 6.64389 29.5903 6.64521 29.5903C6.64652 29.5903 6.64783 29.5903 6.64913 29.5903C6.65044 29.5903 6.65175 29.5903 6.65305 29.5903C6.65436 29.5903 6.65566 29.5903 6.65697 29.5903C6.65827 29.5903 6.65957 29.5903 6.66088 29.5903C6.66218 29.5903 6.66348 29.5903 6.66478 29.5903C6.66608 29.5903 6.66737 29.5903 6.66867 29.5903C6.66997 29.5903 6.67126 29.5903 6.67256 29.5903C6.67385 29.5903 6.67514 29.5903 6.67644 29.5903C6.67773 29.5903 6.67902 29.5903 6.68031 29.5903C6.6816 29.5903 6.68289 29.5903 6.68418 29.5903C6.68546 29.5903 6.68675 29.5903 6.68804 29.5903C6.68932 29.5903 6.69061 29.5903 6.69189 29.5903C6.69317 29.5903 6.69446 29.5903 6.69574 29.5903C6.69702 29.5903 6.6983 29.5903 6.69958 29.5903C6.70086 29.5903 6.70214 29.5903 6.70342 29.5903C6.70469 29.5903 6.70597 29.5903 6.70724 29.5903C6.70852 29.5903 6.70979 29.5903 6.71107 29.5903C6.71234 29.5903 6.71361 29.5903 6.71488 29.5903C6.71616 29.5903 6.71743 29.5903 6.71869 29.5903C6.71996 29.5903 6.72123 29.5903 6.7225 29.5903C6.72377 29.5903 6.72503 29.5903 6.7263 29.5903C6.72756 29.5903 6.72883 29.5903 6.73009 29.5903C6.73135 29.5903 6.73262 29.5903 6.73388 29.5903C6.73514 29.5903 6.7364 29.5903 6.73766 29.5903C6.73892 29.5903 6.74018 29.5903 6.74144 29.5903C6.74269 29.5903 6.74395 29.5903 6.74521 29.5903C6.74646 29.5903 6.74772 29.5903 6.74897 29.5903C6.75023 29.5903 6.75148 29.5903 6.75273 29.5903C6.75398 29.5903 6.75523 29.5903 6.75648 29.5903C6.75774 29.5903 6.75899 29.5903 6.76023 29.5903C6.76148 29.5903 6.76273 29.5903 6.76398 29.5903C6.76522 29.5903 6.76647 29.5903 6.76772 29.5903C6.76896 29.5903 6.77021 29.5903 6.77145 29.5903C6.77269 29.5903 6.77394 29.5903 6.77518 29.5903C6.77642 29.5903 6.77766 29.5903 6.7789 29.5903C6.78014 29.5903 6.78138 29.5903 6.78262 29.5903C6.78386 29.5903 6.7851 29.5903 6.78633 29.5903C6.78757 29.5903 6.78881 29.5903 6.79004 29.5903C6.79128 29.5903 6.79251 29.5903 6.79374 29.5903C6.79498 29.5903 6.79621 29.5903 6.79744 29.5903C6.79868 29.5903 6.79991 29.5903 6.80114 29.5903C6.80237 29.5903 6.8036 29.5903 6.80483 29.5903C6.80606 29.5903 6.80729 29.5903 6.80851 29.5903C6.80974 29.5903 6.81097 29.5903 6.81219 29.5903C6.81342 29.5903 6.81465 29.5903 6.81587 29.5903C6.8171 29.5903 6.81832 29.5903 6.81954 29.5903C6.82077 29.5903 6.82199 29.5903 6.82321 29.5903C6.82443 29.5903 6.82565 29.5903 6.82688 29.5903C6.8281 29.5903 6.82932 29.5903 6.83054 29.5903C6.83175 29.5903 6.83297 29.5903 6.83419 29.5903C6.83541 29.5903 6.83663 29.5903 6.83784 29.5903C6.83906 29.5903 6.84028 29.5903 6.84149 29.5903C6.84271 29.5903 6.84392 29.5903 6.84513 29.5903C6.84635 29.5903 6.84756 29.5903 6.84877 29.5903C6.84999 29.5903 6.8512 29.5903 6.85241 29.5903C6.85362 29.5903 6.85483 29.5903 6.85604 29.5903C6.85725 29.5903 6.85846 29.5903 6.85967 29.5903C6.86088 29.5903 6.86209 29.5903 6.8633 29.5903C6.86451 29.5903 6.86571 29.5903 6.86692 29.5903C6.86813 29.5903 6.86933 29.5903 6.87054 29.5903C6.87174 29.5903 6.87295 29.5903 6.87415 29.5903C6.87536 29.5903 6.87656 29.5903 6.87777 29.5903C6.87897 29.5903 6.88017 29.5903 6.88137 29.5903C6.88258 29.5903 6.88378 29.5903 6.88498 29.5903C6.88618 29.5903 6.88738 29.5903 6.88858 29.5903C6.88978 29.5903 6.89098 29.5903 6.89218 29.5903C6.89338 29.5903 6.89458 29.5903 6.89578 29.5903C6.89698 29.5903 6.89817 29.5903 6.89937 29.5903C6.90057 29.5903 6.90176 29.5903 6.90296 29.5903C6.90416 29.5903 6.90535 29.5903 6.90655 29.5903C6.90774 29.5903 6.90894 29.5903 6.91013 29.5903C6.91133 29.5903 6.91252 29.5903 6.91372 29.5903C6.91491 29.5903 6.9161 29.5903 6.91729 29.5903C6.91849 29.5903 6.91968 29.5903 6.92087 29.5903C6.92206 29.5903 6.92326 29.5903 6.92445 29.5903C6.92564 29.5903 6.92683 29.5903 6.92802 29.5903C6.92921 29.5903 6.9304 29.5903 6.93159 29.5903C6.93278 29.5903 6.93397 29.5903 6.93516 29.5903C6.93634 29.5903 6.93753 29.5903 6.93872 29.5903C6.93991 29.5903 6.9411 29.5903 6.94228 29.5903C6.94347 29.5903 6.94466 29.5903 6.94584 29.5903C6.94703 29.5903 6.94822 29.5903 6.9494 29.5903C6.95059 29.5903 6.95177 29.5903 6.95296 29.5903C6.95414 29.5903 6.95533 29.5903 6.95651 29.5903C6.9577 29.5903 6.95888 29.5903 6.96007 29.5903C6.96125 29.5903 6.96243 29.5903 6.96362 29.5903C6.9648 29.5903 6.96598 29.5903 6.96717 29.5903C6.96835 29.5903 6.96953 29.5903 6.97072 29.5903C6.9719 29.5903 6.97308 29.5903 6.97426 29.5903C6.97544 29.5903 6.97662 29.5903 6.97781 29.5903C6.97899 29.5903 6.98017 29.5903 6.98135 29.5903C6.98253 29.5903 6.98371 29.5903 6.98489 29.5903C6.98607 29.5903 6.98725 29.5903 6.98843 29.5903C6.98961 29.5903 6.99079 29.5903 6.99197 29.5903C6.99315 29.5903 6.99433 29.5903 6.99551 29.5903C6.99669 29.5903 6.99786 29.5903 6.99904 29.5903C7.00022 29.5903 7.0014 29.5903 7.00258 29.5903C7.00376 29.5903 7.00494 29.5903 7.00611 29.5903C7.00729 29.5903 7.00847 29.5903 7.00965 29.5903C7.01082 29.5903 7.012 29.5903 7.01318 29.5903C7.01436 29.5903 7.01553 29.5903 7.01671 29.5903C7.01789 29.5903 7.01906 29.5903 7.02024 29.5903C7.02142 29.5903 7.02259 29.5903 7.02377 29.5903C7.02495 29.5903 7.02612 29.5903 7.0273 29.5903C7.02848 29.5903 7.02965 29.5903 7.03083 29.5903C7.032 29.5903 7.03318 29.5903 7.03436 29.5903C7.03553 29.5903 7.03671 29.5903 7.03788 29.5903C7.03906 29.5903 7.04024 29.5903 7.04141 29.5903C7.04259 29.5903 7.04376 29.5903 7.04494 29.5903C7.04611 29.5903 7.04729 29.5903 7.04846 29.5903C7.04964 29.5903 7.05081 29.5903 7.05199 29.5903C7.05316 29.5903 7.05434 29.5903 7.05552 29.5903C7.05669 29.5903 7.05787 29.5903 7.05904 29.5903C7.06022 29.5903 7.06139 29.5903 7.06257 29.5903C7.06374 29.5903 7.06492 29.5903 7.06609 29.5903C7.06727 29.5903 7.06844 29.5903 7.06962 29.5903C7.07079 29.5903 7.07197 29.5903 7.07314 29.5903C7.07432 29.5903 7.0755 29.5903 7.07667 29.5903C7.07785 29.5903 7.07902 29.5903 7.0802 29.5903C7.08137 29.5903 7.08255 29.5903 7.08372 29.5903C7.0849 29.5903 7.08607 29.5903 7.08725 29.5903C7.08843 29.5903 7.0896 29.5903 7.09078 29.5903C7.09195 29.5903 7.09313 29.5903 7.09431 29.5903C7.09548 29.5903 7.09666 29.5903 7.09783 29.5903C7.09901 29.5903 7.10019 29.5903 7.10136 29.5903C7.10254 29.5903 7.10372 29.5903 7.10489 29.5903C7.10607 29.5903 7.10725 29.5903 7.10842 29.5903C7.1096 29.5903 7.11078 29.5903 7.11196 29.5903C7.11313 29.5903 7.11431 29.5903 7.11549 29.5903C7.11667 29.5903 7.11784 29.5903 7.11902 29.5903C7.1202 29.5903 7.12138 29.5903 7.12256 29.5903C7.12373 29.5903 7.12491 29.5903 7.12609 29.5903C7.12727 29.5903 7.12845 29.5903 7.12963 29.5903C7.13081 29.5903 7.13199 29.5903 7.13316 29.5903C7.13434 29.5903 7.13552 29.5903 7.1367 29.5903C7.13788 29.5903 7.13906 29.5903 7.14024 29.5903C7.14142 29.5903 7.1426 29.5903 7.14379 29.5903C7.14497 29.5903 7.14615 29.5903 7.14733 29.5903C7.14851 29.5903 7.14969 29.5903 7.15087 29.5903C7.15205 29.5903 7.15324 29.5903 7.15442 29.5903C7.1556 29.5903 7.15678 29.5903 7.15797 29.5903C7.15915 29.5903 7.16033 29.5903 7.16152 29.5903C7.1627 29.5903 7.16388 29.5903 7.16507 29.5903C7.16625 29.5903 7.16744 29.5903 7.16862 29.5903C7.1698 29.5903 7.17099 29.5903 7.17217 29.5903C7.17336 29.5903 7.17455 29.5903 7.17573 29.5903C7.17692 29.5903 7.1781 29.5903 7.17929 29.5903C7.18048 29.5903 7.18166 29.5903 7.18285 29.5903C7.18404 29.5903 7.18523 29.5903 7.18641 29.5903C7.1876 29.5903 7.18879 29.5903 7.18998 29.5903C7.19117 29.5903 7.19236 29.5903 7.19355 29.5903C7.19474 29.5903 7.19593 29.5903 7.19712 29.5903C7.19831 29.5903 7.1995 29.5903 7.20069 29.5903C7.20188 29.5903 7.20307 29.5903 7.20426 29.5903C7.20545 29.5903 7.20665 29.5903 7.20784 29.5903C7.20903 29.5903 7.21023 29.5903 7.21142 29.5903C7.21261 29.5903 7.21381 29.5903 7.215 29.5903C7.2162 29.5903 7.21739 29.5903 7.21859 29.5903C7.21978 29.5903 7.22098 29.5903 7.22217 29.5903C7.22337 29.5903 7.22457 29.5903 7.22576 29.5903C7.22696 29.5903 7.22816 29.5903 7.22936 29.5903C7.23056 29.5903 7.23175 29.5903 7.23295 29.5903C7.23415 29.5903 7.23535 29.5903 7.23655 29.5903C7.23775 29.5903 7.23895 29.5903 7.24015 29.5903C7.24136 29.5903 7.24256 29.5903 7.24376 29.5903C7.24496 29.5903 7.24617 29.5903 7.24737 29.5903C7.24857 29.5903 7.24978 29.5903 7.25098 29.5903C7.25219 29.5903 7.25339 29.5903 7.2546 29.5903C7.2558 29.5903 7.25701 29.5903 7.25821 29.5903C7.25942 29.5903 7.26063 29.5903 7.26184 29.5903C7.26304 29.5903 7.26425 29.5903 7.26546 29.5903C7.26667 29.5903 7.26788 29.5903 7.26909 29.5903C7.2703 29.5903 7.27151 29.5903 7.27272 29.5903C7.27393 29.5903 7.27515 29.5903 7.27636 29.5903C7.27757 29.5903 7.27879 29.5903 7.28 29.5903C7.28121 29.5903 7.28243 29.5903 7.28364 29.5903C7.28486 29.5903 7.28608 29.5903 7.28729 29.5903C7.28851 29.5903 7.28973 29.5903 7.29094 29.5903C7.29216 29.5903 7.29338 29.5903 7.2946 29.5903C7.29582 29.5903 7.29704 29.5903 7.29826 29.5903C7.29948 29.5903 7.3007 29.5903 7.30192 29.5903C7.30314 29.5903 7.30437 29.5903 7.30559 29.5903C7.30681 29.5903 7.30804 29.5903 7.30926 29.5903C7.31049 29.5903 7.31171 29.5903 7.31294 29.5903C7.31417 29.5903 7.31539 29.5903 7.31662 29.5903C7.31785 29.5903 7.31908 29.5903 7.32031 29.5903C7.32154 29.5903 7.32277 29.5903 7.324 29.5903C7.32523 29.5903 7.32646 29.5903 7.32769 29.5903C7.32892 29.5903 7.33016 29.5903 7.33139 29.5903C7.33262 29.5903 7.33386 29.5903 7.33509 29.5903C7.33633 29.5903 7.33757 29.5903 7.3388 29.5903C7.34004 29.5903 7.34128 29.5903 7.34252 29.5903C7.34375 29.5903 7.34499 29.5903 7.34623 29.5903C7.34747 29.5903 7.34872 29.5903 7.34996 29.5903C7.3512 29.5903 7.35244 29.5903 7.35369 29.5903C7.35493 29.5903 7.35617 29.5903 7.35742 29.5903C7.35866 29.5903 7.35991 29.5903 7.36116 29.5903C7.3624 29.5903 7.36365 29.5903 7.3649 29.5903C7.36615 29.5903 7.3674 29.5903 7.36865 29.5903C7.3699 29.5903 7.37115 29.5903 7.3724 29.5903C7.37366 29.5903 7.37491 29.5903 7.37616 29.5903C7.37742 29.5903 7.37867 29.5903 7.37993 29.5903C7.38118 29.5903 7.38244 29.5903 7.3837 29.5903C7.38496 29.5903 7.38621 29.5903 7.38747 29.5903C7.38873 29.5903 7.38999 29.5903 7.39126 29.5903C7.39252 29.5903 7.39378 29.5903 7.39504 29.5903C7.39631 29.5903 7.39757 29.5903 7.39884 29.5903C7.4001 29.5903 7.40137 29.5903 7.40264 29.5903C7.4039 29.5903 7.40517 29.5903 7.40644 29.5903C7.40771 29.5903 7.40898 29.5903 7.41025 29.5903C7.41152 29.5903 7.41279 29.5903 7.41407 29.5903C7.41534 29.5903 7.41661 29.5903 7.41789 29.5903C7.41917 29.5903 7.42044 29.5903 7.42172 29.5903C7.423 29.5903 7.42427 29.5903 7.42555 29.5903C7.42683 29.5903 7.42811 29.5903 7.4294 29.5903C7.43068 29.5903 7.43196 29.5903 7.43324 29.5903C7.43453 29.5903 7.43581 29.5903 7.4371 29.5903C7.43838 29.5903 7.43967 29.5903 7.44096 29.5903C7.44225 29.5903 7.44353 29.5903 7.44482 29.5903C7.44611 29.5903 7.44741 29.5903 7.4487 29.5903C7.44999 29.5903 7.45128 29.5903 7.45258 29.5903C7.45387 29.5903 7.45517 29.5903 7.45646 29.5903C7.45776 29.5903 7.45906 29.5903 7.46036 29.5903C7.46166 29.5903 7.46296 29.5903 7.46426 29.5903C7.46556 29.5903 7.46686 29.5903 7.46817 29.5903C7.46947 29.5903 7.47077 29.5903 7.47208 29.5903C7.47339 29.5903 7.47469 29.5903 7.476 29.5903C7.47731 29.5903 7.47862 29.5903 7.47993 29.5903C7.48124 29.5903 7.48255 29.5903 7.48386 29.5903C7.48518 29.5903 7.48649 29.5903 7.48781 29.5903C7.48912 29.5903 7.49044 29.5903 7.49176 29.5903C7.49307 29.5903 7.49439 29.5903 7.49571 29.5903C7.49703 29.5903 7.49836 29.5903 7.49968 29.5903C7.501 29.5903 7.50233 29.5903 7.50365 29.5903C7.50498 29.5903 7.5063 29.5903 7.50763 29.5903C7.50896 29.5903 7.51029 29.5903 7.51162 29.5903C7.51295 29.5903 7.51428 29.5903 7.51561 29.5903C7.51694 29.5903 7.51828 29.5903 7.51961 29.5903C7.52095 29.5903 7.52229 29.5903 7.52362 29.5903C7.52496 29.5903 7.5263 29.5903 7.52764 29.5903C7.52898 29.5903 7.53032 29.5903 7.53167 29.5903C7.53301 29.5903 7.53435 29.5903 7.5357 29.5903C7.53705 29.5903 7.53839 29.5903 7.53974 29.5903C7.54109 29.5903 7.54244 29.5903 7.54379 29.5903C7.54514 29.5903 7.5465 29.5903 7.54785 29.5903C7.5492 29.5903 7.55056 29.5903 7.55192 29.5903C7.55327 29.5903 7.55463 29.5903 7.55599 29.5903C7.55735 29.5903 7.55871 29.5903 7.56007 29.5903C7.56144 29.5903 7.5628 29.5903 7.56416 29.5903C7.56553 29.5903 7.5669 29.5903 7.56826 29.5903C7.56963 29.5903 7.571 29.5903 7.57237 29.5903C7.57374 29.5903 7.57511 29.5903 7.57649 29.5903C7.57786 29.5903 7.57924 29.5903 7.58061 29.5903C7.58199 29.5903 7.58337 29.5903 7.58475 29.5903C7.58613 29.5903 7.58751 29.5903 7.58889 29.5903C7.59027 29.5903 7.59165 29.5903 7.59304 29.5903C7.59443 29.5903 7.59581 29.5903 7.5972 29.5903C7.59859 29.5903 7.59998 29.5903 7.60137 29.5903C7.60276 29.5903 7.60415 29.5903 7.60555 29.5903C7.60694 29.5903 7.60834 29.5903 7.60973 29.5903C7.61113 29.5903 7.61253 29.5903 7.61393 29.5903C7.61533 29.5903 7.61673 29.5903 7.61814 29.5903C7.61954 29.5903 7.62094 29.5903 7.62235 29.5903C7.62376 29.5903 7.62517 29.5903 7.62658 29.5903C7.62799 29.5903 7.6294 29.5903 7.63081 29.5903C7.63222 29.5903 7.63364 29.5903 7.63505 29.5903C7.63647 29.5903 7.63788 29.5903 7.6393 29.5903C7.64072 29.5903 7.64214 29.5903 7.64357 29.5903C7.64499 29.5903 7.64641 29.5903 7.64784 29.5903C7.64926 29.5903 7.65069 29.5903 7.65212 29.5903C7.65355 29.5903 7.65498 29.5903 7.65641 29.5903C7.65784 29.5903 7.65928 29.5903 7.66071 29.5903C7.66215 29.5903 7.66358 29.5903 7.66502 29.5903C7.66646 29.5903 7.6679 29.5903 7.66934 29.5903C7.67078 29.5903 7.67223 29.5903 7.67367 29.5903C7.67512 29.5903 7.67656 29.5903 7.67801 29.5903C7.67946 29.5903 7.68091 29.5903 7.68236 29.5903C7.68382 29.5903 7.68527 29.5903 7.68672 29.5903C7.68818 29.5903 7.68964 29.5903 7.6911 29.5903C7.69255 29.5903 7.69402 29.5903 7.69548 29.5903C7.69694 29.5903 7.6984 29.5903 7.69987 29.5903C7.70133 29.5903 7.7028 29.5903 7.70427 29.5903C7.70574 29.5903 7.70721 29.5903 7.70868 29.5903C7.71016 29.5903 7.71163 29.5903 7.71311 29.5903C7.71458 29.5903 7.71606 29.5903 7.71754 29.5903C7.71902 29.5903 7.7205 29.5903 7.72199 29.5903C7.72347 29.5903 7.72496 29.5903 7.72644 29.5903C7.72793 29.5903 7.72942 29.5903 7.73091 29.5903C7.7324 29.5903 7.73389 29.5903 7.73539 29.5903C7.73688 29.5903 7.73838 29.5903 7.73987 29.5903C7.74137 29.5903 7.74287 29.5903 7.74437 29.5903C7.74587 29.5903 7.74738 29.5903 7.74888 29.5903C7.75039 29.5903 7.75189 29.5903 7.7534 29.5903C7.75491 29.5903 7.75642 29.5903 7.75794 29.5903C7.75945 29.5903 7.76096 29.5903 7.76248 29.5903C7.764 29.5903 7.76551 29.5903 7.76704 29.5903C7.76856 29.5903 7.77008 29.5903 7.7716 29.5903C7.77313 29.5903 7.77465 29.5903 7.77618 29.5903C7.77771 29.5903 7.77924 29.5903 7.78077 29.5903C7.7823 29.5903 7.78383 29.5903 7.78537 29.5903C7.7869 29.5903 7.78844 29.5903 7.78998 29.5903C7.79152 29.5903 7.79306 29.5903 7.79461 29.5903C7.79615 29.5903 7.79769 29.5903 7.79924 29.5903C7.80079 29.5903 7.80234 29.5903 7.80389 29.5903C7.80544 29.5903 7.80699 29.5903 7.80855 29.5903C7.8101 29.5903 7.81166 29.5903 7.81322 29.5903C7.81478 29.5903 7.81634 29.5903 7.8179 29.5903C7.81947 29.5903 7.82103 29.5903 7.8226 29.5903C7.82417 29.5903 7.82574 29.5903 7.82731 29.5903C7.82888 29.5903 7.83045 29.5903 7.83203 29.5903C7.8336 29.5903 7.83518 29.5903 7.83676 29.5903C7.83834 29.5903 7.83992 29.5903 7.8415 29.5903C7.84309 29.5903 7.84467 29.5903 7.84626 29.5903C7.84785 29.5903 7.84944 29.5903 7.85103 29.5903C7.85262 29.5903 7.85422 29.5903 7.85581 29.5903C7.85741 29.5903 7.85901 29.5903 7.86061 29.5903C7.86221 29.5903 7.86381 29.5903 7.86541 29.5903C7.86702 29.5903 7.86862 29.5903 7.87023 29.5903C7.87184 29.5903 7.87345 29.5903 7.87507 29.5903C7.87668 29.5903 7.87829 29.5903 7.87991 29.5903C7.88153 29.5903 7.88315 29.5903 7.88477 29.5903C7.88639 29.5903 7.88801 29.5903 7.88964 29.5903C7.89127 29.5903 7.89289 29.5903 7.89452 29.5903C7.89615 29.5903 7.89779 29.5903 7.89942 29.5903C7.90105 29.5903 7.90269 29.5903 7.90433 29.5903C7.90597 29.5903 7.90761 29.5903 7.90925 29.5903C7.9109 29.5903 7.91254 29.5903 7.91419 29.5903C7.91584 29.5903 7.91749 29.5903 7.91914 29.5903C7.92079 29.5903 7.92245 29.5903 7.9241 29.5903C7.92576 29.5903 7.92742 29.5903 7.92908 29.5903C7.93074 29.5903 7.9324 29.5903 7.93407 29.5903C7.93574 29.5903 7.9374 29.5903 7.93907 29.5903C7.94074 29.5903 7.94242 29.5903 7.94409 29.5903C7.94577 29.5903 7.94744 29.5903 7.94912 29.5903C7.9508 29.5903 7.95248 29.5903 7.95417 29.5903C7.95585 29.5903 7.95754 29.5903 7.95923 29.5903C7.96092 29.5903 7.96261 29.5903 7.9643 29.5903C7.96599 29.5903 7.96769 29.5903 7.96939 29.5903C7.97108 29.5903 7.97278 29.5903 7.97449 29.5903C7.97619 29.5903 7.97789 29.5903 7.9796 29.5903C7.98131 29.5903 7.98302 29.5903 7.98473 29.5903C7.98644 29.5903 7.98816 29.5903 7.98987 29.5903C7.99159 29.5903 7.99331 29.5903 7.99503 29.5903C7.99675 29.5903 7.99847 29.5903 8.0002 29.5903C8.00193 29.5903 8.00366 29.5903 8.00539 29.5903C8.00712 29.5903 8.00885 29.5903 8.01059 29.5903C8.01232 29.5903 8.01406 29.5903 8.0158 29.5903C8.01754 29.5903 8.01928 29.5903 8.02103 29.5903C8.02278 29.5903 8.02452 29.5903 8.02627 29.5903C8.02802 29.5903 8.02978 29.5903 8.03153 29.5903C8.03329 29.5903 8.03505 29.5903 8.03681 29.5903C8.03857 29.5903 8.04033 29.5903 8.04209 29.5903C8.04386 29.5903 8.04563 29.5903 8.0474 29.5903C8.04917 29.5903 8.05094 29.5903 8.05272 29.5903C8.05449 29.5903 8.05627 29.5903 8.05805 29.5903C8.05983 29.5903 8.06161 29.5903 8.0634 29.5903C8.06518 29.5903 8.06697 29.5903 8.06876 29.5903C8.07055 29.5903 8.07234 29.5903 8.07414 29.5903C8.07593 29.5903 8.07773 29.5903 8.07953 29.5903C8.08133 29.5903 8.08313 29.5903 8.08494 29.5903C8.08675 29.5903 8.08855 29.5903 8.09036 29.5903C8.09217 29.5903 8.09399 29.5903 8.0958 29.5903C8.09762 29.5903 8.09944 29.5903 8.10126 29.5903C8.10308 29.5903 8.1049 29.5903 8.10673 29.5903C8.10856 29.5903 8.11038 29.5903 8.11222 29.5903C8.11405 29.5903 8.11588 29.5903 8.11772 29.5903C8.11955 29.5903 8.12139 29.5903 8.12324 29.5903C8.12508 29.5903 8.12692 29.5903 8.12877 29.5903C8.13062 29.5903 8.13247 29.5903 8.13432 29.5903C8.13617 29.5903 8.13803 29.5903 8.13988 29.5903V28.3903ZM5.38915 29.0586C5.38339 29.0083 5.3702 28.8452 5.47705 28.6759C5.61165 28.4626 5.82753 28.4002 5.97187 28.3981C6.09056 28.3964 6.17746 28.4312 6.20596 28.4432C6.24383 28.4591 6.27092 28.4755 6.2838 28.4836C6.32505 28.5097 6.33976 28.528 6.31723 28.5059C6.28674 28.4759 6.22588 28.4088 6.14784 28.3056C5.99296 28.1008 5.80167 27.7954 5.66526 27.4401C5.52865 27.0843 5.4569 26.7046 5.50564 26.3349C5.55278 25.9774 5.71693 25.5913 6.11799 25.2093L5.29043 24.3403C4.69596 24.9065 4.39982 25.5418 4.31594 26.1781C4.23364 26.8022 4.36011 27.3886 4.54499 27.8702C4.73007 28.3522 4.98354 28.7554 5.1907 29.0294C5.29367 29.1655 5.39315 29.2803 5.47658 29.3622C5.51099 29.396 5.57105 29.4527 5.64283 29.4981C5.66334 29.511 5.69713 29.531 5.74073 29.5493C5.77496 29.5637 5.8666 29.5997 5.98902 29.598C6.13709 29.5959 6.35566 29.5321 6.49188 29.3163C6.60034 29.1444 6.5877 28.9774 6.58135 28.922L5.38915 29.0586ZM17.8825 22.5264C17.7019 21.9543 17.702 21.9542 17.7021 21.9542C17.7021 21.9542 17.7023 21.9541 17.7023 21.9541C17.7025 21.9541 17.7026 21.954 17.7026 21.954C17.7028 21.954 17.7028 21.954 17.7028 21.954C17.7027 21.954 17.7021 21.9542 17.7011 21.9545C17.6992 21.9551 17.6956 21.9562 17.6904 21.9577C17.68 21.9608 17.663 21.9658 17.6399 21.9723C17.5937 21.9852 17.5229 22.0042 17.4303 22.0265C17.2448 22.0712 16.9728 22.129 16.6357 22.1788C15.9593 22.2786 15.0335 22.344 14.0256 22.2125L13.8704 23.4024C15.0172 23.552 16.0586 23.4769 16.8108 23.3659C17.1881 23.3102 17.4957 23.2451 17.7113 23.1932C17.8192 23.1672 17.9043 23.1444 17.9638 23.1277C17.9936 23.1194 18.017 23.1126 18.0337 23.1076C18.042 23.1051 18.0487 23.1031 18.0536 23.1016C18.0561 23.1008 18.0581 23.1002 18.0597 23.0997C18.0605 23.0994 18.0612 23.0992 18.0618 23.099C18.0621 23.0989 18.0624 23.0988 18.0626 23.0988C18.0627 23.0987 18.0629 23.0987 18.0629 23.0987C18.0631 23.0986 18.0632 23.0986 17.8825 22.5264ZM14.0256 22.2125C13.0038 22.0792 12.1115 21.8119 11.4739 21.577C11.1558 21.4598 10.9033 21.3515 10.7323 21.2735C10.6468 21.2345 10.5818 21.2032 10.5393 21.1822C10.5181 21.1717 10.5025 21.1638 10.4928 21.1588C10.4879 21.1563 10.4845 21.1546 10.4826 21.1536C10.4817 21.1531 10.4811 21.1528 10.481 21.1527C10.4809 21.1527 10.4809 21.1527 10.481 21.1527C10.481 21.1527 10.4811 21.1528 10.4812 21.1528C10.4812 21.1529 10.4813 21.1529 10.4814 21.1529C10.4815 21.153 10.4816 21.153 10.2008 21.6833C9.92011 22.2136 9.92022 22.2136 9.92034 22.2137C9.92039 22.2137 9.92052 22.2138 9.92062 22.2138C9.92081 22.2139 9.92103 22.2141 9.92128 22.2142C9.92176 22.2144 9.92235 22.2148 9.92303 22.2151C9.92439 22.2158 9.92615 22.2167 9.92829 22.2179C9.93257 22.2201 9.93839 22.2231 9.94573 22.2269C9.96039 22.2344 9.98111 22.2449 10.0076 22.258C10.0606 22.2842 10.1369 22.3209 10.2344 22.3653C10.4293 22.4542 10.7096 22.5742 11.059 22.703C11.7563 22.9599 12.7376 23.2546 13.8704 23.4024L14.0256 22.2125ZM20.9201 11.7465C21.2232 11.6225 21.4425 11.5905 21.6155 11.6023C21.7851 11.6139 21.9552 11.6705 22.1576 11.7955L22.7881 10.7745C22.4597 10.5716 22.1032 10.4328 21.6972 10.4051C21.2946 10.3776 20.8893 10.4626 20.4658 10.6358L20.9201 11.7465ZM22.1355 11.7811C22.4529 11.997 22.5988 12.3068 22.8176 12.7344C22.9138 12.9225 23.0472 13.1769 23.2451 13.3773C23.4713 13.6062 23.7732 13.7586 24.1591 13.7586V12.5586C24.1235 12.5586 24.1211 12.5565 24.0987 12.5339C24.0481 12.4826 23.9885 12.3883 23.8858 12.1878C23.7069 11.8381 23.4313 11.2111 22.8103 10.7888L22.1355 11.7811ZM7.63838 18.0323C7.64024 18.0288 7.63798 18.0334 7.63216 18.0398C7.62819 18.0441 7.62863 18.0423 7.64904 18.0263C7.68413 17.9987 7.81245 17.9086 7.93373 17.7713L7.03452 16.9767C7.00563 17.0094 6.99718 17.0124 6.90776 17.0826C6.81063 17.1589 6.68504 17.2706 6.58044 17.466L7.63838 18.0323ZM6.62347 14.0155C6.76926 13.9074 6.82548 13.7683 6.84663 13.7035C6.87052 13.6302 6.87743 13.5655 6.8799 13.5245C6.88492 13.4411 6.8764 13.3626 6.86711 13.3031C6.84762 13.178 6.80833 13.0357 6.75511 12.8894C6.64754 12.5936 6.46238 12.2247 6.18197 11.8651C5.61146 11.1333 4.63099 10.4279 3.14632 10.4986L3.20341 11.6972C4.22093 11.6487 4.85269 12.1117 5.2356 12.6029C5.4319 12.8547 5.55874 13.1108 5.62737 13.2995C5.66226 13.3954 5.67712 13.4603 5.68144 13.488C5.68406 13.5048 5.67986 13.489 5.68207 13.4524C5.68313 13.4348 5.68685 13.3894 5.70582 13.3312C5.72205 13.2815 5.77164 13.1531 5.90911 13.0512L6.62347 14.0155ZM3.14632 10.4986C2.40389 10.5339 1.79258 10.7206 1.32936 11.0895C0.860198 11.4632 0.610563 11.9697 0.492876 12.5111C0.377446 13.0422 0.382955 13.6309 0.43719 14.2207C0.491707 14.8135 0.599865 15.4474 0.710409 16.0735L1.89213 15.8649C1.78086 15.2346 1.68147 14.6472 1.63215 14.1108C1.58254 13.5713 1.58791 13.1229 1.6655 12.766C1.74082 12.4195 1.87734 12.1872 2.07693 12.0282C2.28245 11.8645 2.62248 11.7249 3.20341 11.6972L3.14632 10.4986ZM6.11799 25.2093C7.13741 24.2385 7.27124 22.9475 7.27926 21.8056C7.2813 21.5159 7.27486 21.2235 7.26926 20.9428C7.2636 20.6588 7.25875 20.3853 7.26278 20.1173C7.27088 19.5787 7.31499 19.0978 7.44378 18.6723L6.29525 18.3247C6.11872 18.9079 6.07165 19.5186 6.06292 20.0993C6.05853 20.391 6.06387 20.6841 6.0695 20.9668C6.0752 21.2527 6.08119 21.5271 6.07929 21.7972C6.07158 22.8946 5.92808 23.7331 5.29043 24.3403L6.11799 25.2093ZM7.44378 18.6723C7.47172 18.58 7.52478 18.377 7.55157 18.2837C7.59173 18.1437 7.62177 18.0633 7.63838 18.0323L6.58044 17.466C6.49685 17.6221 6.43756 17.8153 6.39813 17.9526C6.34533 18.1366 6.32854 18.2147 6.29525 18.3247L7.44378 18.6723ZM0.710409 16.0735C1.04006 17.9407 2.67824 18.7131 4.03127 19.0102C4.72705 19.163 5.40982 19.2075 5.94111 19.2021C6.20723 19.1994 6.44261 19.1841 6.62937 19.1616C6.72216 19.1504 6.80977 19.1366 6.88668 19.1198C6.94342 19.1074 7.05961 19.0805 7.16581 19.0202L6.57322 17.9767C6.63834 17.9398 6.6792 17.9369 6.63056 17.9475C6.60209 17.9537 6.55425 17.962 6.48571 17.9702C6.34981 17.9866 6.15903 17.9998 5.92893 18.0022C5.46778 18.0069 4.87793 17.9676 4.28866 17.8381C3.07159 17.5709 2.08996 16.9853 1.89213 15.8649L0.710409 16.0735ZM20.6929 11.1912C20.1385 11.4206 20.1385 11.4205 20.1385 11.4204C20.1385 11.4204 20.1384 11.4204 20.1384 11.4204C20.1384 11.4204 20.1384 11.4204 20.1385 11.4204C20.1385 11.4206 20.1386 11.4208 20.1388 11.4213C20.1392 11.4222 20.1398 11.4237 20.1407 11.4258C20.1424 11.4301 20.1452 11.4369 20.1489 11.446C20.1562 11.4643 20.1672 11.4919 20.1812 11.5277C20.2092 11.5995 20.2491 11.704 20.2954 11.8324C20.3884 12.0903 20.5056 12.4396 20.6053 12.8108C20.7061 13.186 20.7833 13.5629 20.8058 13.8817C20.8305 14.2311 20.7791 14.3837 20.7558 14.4186L21.7543 15.0842C22.012 14.6976 22.0309 14.1943 22.0028 13.7972C21.9726 13.3693 21.8742 12.9089 21.7642 12.4995C21.6531 12.086 21.5245 11.7033 21.4242 11.4254C21.3739 11.2859 21.3303 11.1715 21.2991 11.0914C21.2834 11.0513 21.2708 11.0197 21.262 10.9978C21.2576 10.9868 21.2541 10.9782 21.2516 10.9722C21.2504 10.9691 21.2494 10.9668 21.2487 10.965C21.2483 10.9642 21.248 10.9635 21.2478 10.9629C21.2477 10.9626 21.2476 10.9624 21.2475 10.9622C21.2475 10.9621 21.2475 10.962 21.2474 10.962C21.2474 10.9619 21.2474 10.9618 20.6929 11.1912ZM19.0168 14.3801C19.2205 14.0016 19.3629 13.6618 19.4822 13.3715C19.6053 13.0718 19.6943 12.8504 19.8034 12.652C19.9912 12.3105 20.2442 12.023 20.9201 11.7465L20.4658 10.6358C19.5545 11.0086 19.0815 11.4745 18.752 12.0736C18.6025 12.3455 18.4849 12.6411 18.3722 12.9155C18.2555 13.1994 18.1327 13.4908 17.9602 13.8112L19.0168 14.3801ZM20.7558 14.4186C20.7901 14.3671 20.8209 14.4209 20.6316 14.4064C20.4448 14.392 20.1887 14.3145 19.8996 14.1892C19.6198 14.0679 19.3501 13.9202 19.147 13.8001C19.0464 13.7407 18.9643 13.6893 18.9081 13.6532C18.88 13.6352 18.8584 13.6211 18.8444 13.6119C18.8374 13.6072 18.8323 13.6038 18.8291 13.6017C18.8276 13.6006 18.8265 13.5999 18.8259 13.5995C18.8257 13.5993 18.8255 13.5992 18.8255 13.5992C18.8255 13.5992 18.8255 13.5992 18.8256 13.5993C18.8256 13.5993 18.8257 13.5993 18.8257 13.5994C18.8257 13.5994 18.8258 13.5995 18.4885 14.0956C18.1511 14.5918 18.1512 14.5919 18.1513 14.592C18.1514 14.592 18.1515 14.5921 18.1516 14.5921C18.1518 14.5923 18.152 14.5924 18.1523 14.5926C18.1528 14.5929 18.1534 14.5934 18.1542 14.5939C18.1558 14.595 18.1579 14.5964 18.1605 14.5981C18.1657 14.6017 18.1731 14.6065 18.1823 14.6127C18.2008 14.6249 18.2272 14.6422 18.2605 14.6635C18.327 14.7062 18.4215 14.7653 18.5364 14.8332C18.7642 14.9678 19.0807 15.1421 19.4224 15.2902C19.7546 15.4342 20.155 15.5733 20.5397 15.6029C20.9218 15.6322 21.4389 15.5573 21.7543 15.0842L20.7558 14.4186ZM21.596 16.6016C21.6167 16.778 21.6355 16.9472 21.6521 17.1101L22.846 16.9884C22.8286 16.8182 22.8091 16.6425 22.7877 16.4611L21.596 16.6016ZM18.0551 16.2683C18.1681 16.1378 18.2648 15.9981 18.3482 15.8591L17.3194 15.2414C17.263 15.3353 17.2059 15.4158 17.148 15.4828L18.0551 16.2683ZM18.3482 15.8591C18.5248 15.5649 18.6578 15.2472 18.7625 14.985C18.8773 14.6975 18.947 14.5097 19.0168 14.3801L17.9602 13.8112C17.8478 14.02 17.7401 14.3096 17.6481 14.5399C17.546 14.7955 17.4427 15.036 17.3194 15.2414L18.3482 15.8591ZM22.3047 16.4518C21.4081 16.3683 20.7563 16.2489 20.1445 16.0408C19.532 15.8325 18.9327 15.5263 18.1503 15.0405L17.5173 16.06C18.3394 16.5704 19.0254 16.9277 19.7582 17.1769C20.4917 17.4264 21.2453 17.5583 22.1934 17.6466L22.3047 16.4518ZM7.93373 17.7713C8.20438 17.4651 8.70049 17.2757 9.49501 17.2135C10.2763 17.1523 11.2043 17.2225 12.2096 17.3017C13.1908 17.379 14.2433 17.4646 15.1894 17.4064C16.1266 17.3488 17.0717 17.146 17.7679 16.5529L16.9898 15.6394C16.5933 15.9771 15.9701 16.1562 15.1158 16.2087C14.2704 16.2606 13.3082 16.1845 12.3038 16.1054C11.3235 16.0282 10.2951 15.9472 9.40135 16.0172C8.52089 16.0861 7.62351 16.3102 7.03452 16.9767L7.93373 17.7713ZM17.7679 16.5529C17.8698 16.4662 17.9658 16.3715 18.0551 16.2683L17.148 15.4828C17.0994 15.5389 17.0467 15.591 16.9898 15.6394L17.7679 16.5529ZM21.6521 17.1101C21.6812 17.3953 21.7035 17.66 21.7181 17.9082L22.916 17.8379C22.9002 17.5685 22.8763 17.2862 22.846 16.9884L21.6521 17.1101ZM21.7181 17.9082C21.7744 18.8681 21.7148 19.5683 21.4992 20.2287C21.282 20.8941 20.8918 21.5644 20.2173 22.4418L21.1686 23.1731C21.882 22.2452 22.3627 21.4506 22.64 20.6012C22.9188 19.7469 22.9774 18.8825 22.916 17.8379L21.7181 17.9082ZM17.04 16.5914C17.9229 17.1955 18.6726 17.6036 19.4916 17.8917C20.3063 18.1782 21.163 18.3364 22.2442 18.4686L22.3899 17.2775C21.342 17.1493 20.5844 17.004 19.8897 16.7596C19.1992 16.5168 18.5443 16.1667 17.7177 15.601L17.04 16.5914ZM25.3742 14.2923C25.2384 14.8118 24.7961 15.2678 24.2143 15.5287L24.7052 16.6237C25.5215 16.2577 26.2835 15.5586 26.5352 14.5957L25.3742 14.2923Z" fill="#2B5A51"/>
<ellipse cx="22.3372" cy="13.3372" rx="0.337246" ry="0.337246" fill="#2B5A51"/>
<rect x="26.8695" y="10.5652" width="8.21739" height="1.17391" rx="0.586957" transform="rotate(-90 26.8695 10.5652)" fill="#2B5A51"/>
<rect x="23.3478" y="5.86951" width="8.21739" height="1.17391" rx="0.586957" fill="#2B5A51"/>
</svg>
