<svg width="33" height="29" viewBox="0 0 33 29" fill="none" xmlns="http://www.w3.org/2000/svg">
<rect x="26.8696" y="9.56519" width="8.21739" height="1.17391" rx="0.586957" transform="rotate(-90 26.8696 9.56519)" fill="#2B5A51"/>
<rect x="23.3478" y="4.86951" width="8.21739" height="1.17391" rx="0.586957" fill="#2B5A51"/>
<path d="M7.06845 15.7289C6.90992 15.9083 6.77969 15.9253 6.67287 16.1249C6.56709 16.3225 6.48426 16.7024 6.41962 16.9159C6.37599 17.0601 6.34064 17.2074 6.31212 17.3574M7.06845 15.7289C8.88344 13.675 15.207 16.345 17.514 14.3799M7.06845 15.7289C6.32925 16.6274 3.74222 13.3986 2.42263 12.9588C0.663177 13.3986 4.87457 17.8421 6.31212 17.3574M21.0126 9.20182C21.7797 8.88801 22.3313 8.95478 22.8916 9.30084C23.8823 9.97453 23.7817 11.2788 24.6717 11.2788C26.1815 11.4981 26.8349 11.7333 26.5499 12.6981C26.3329 13.4328 25.7432 14.0096 25.0481 14.3318C24.3349 14.6625 23.652 14.7827 22.5949 14.8392C22.6172 15.0281 22.6374 15.2102 22.6554 15.386M21.0126 9.20182C21.0126 9.20182 22.1993 12.0702 21.606 12.9602C21.0126 13.8503 18.6854 12.268 18.6854 12.268M21.0126 9.20182C19.3371 9.88724 19.4798 10.7926 18.6854 12.268M18.6854 12.268C18.4931 12.6251 18.3109 13.2761 17.9943 13.8036M22.6554 15.386C20.7079 15.2046 19.6882 14.8552 17.9943 13.8036M22.6554 15.386C22.6867 15.6937 22.7111 15.9825 22.7271 16.2557M17.9943 13.8036C17.9205 13.9265 17.8394 14.0427 17.7491 14.147C17.6763 14.231 17.5978 14.3085 17.514 14.3799M17.514 14.3799C19.3187 15.6149 20.4795 15.9808 22.7271 16.2557M22.7271 16.2557C22.8514 18.3718 22.4777 19.559 21.0126 21.4648C20.1267 23.1315 19.8559 24.2215 19.727 26.4095C21.0126 26.2121 21.606 26.1133 21.2104 27.9919H18.8369C17.6344 26.3279 17.8062 24.4475 18.0458 21.1681C18.0458 21.1681 16.1668 21.7615 13.8922 21.4648C11.6176 21.1681 9.9364 20.278 9.9364 20.278C9.49898 22.3258 8.83605 23.2422 6.67287 24.3327C6.10735 25.0845 6.06893 25.7706 6.67287 26.4095C7.88825 26.1453 8.01242 26.9681 7.76072 27.9919C6.75658 27.9919 6.49027 27.9919 5.48613 27.9919C5.50596 28.165 3.08754 25.5434 5.18944 23.5417C6.82037 21.9885 5.91918 19.4233 6.31212 17.3574" stroke="#2B5A51" stroke-width="1.3"/>
<circle cx="23.25" cy="11.25" r="0.25" fill="#2B5A51"/>
</svg>
