<svg width="29" height="32" viewBox="0 0 29 32" fill="none" xmlns="http://www.w3.org/2000/svg">
<path d="M20.9901 15.6695C20.8271 15.6054 20.6535 15.5728 20.4784 15.5732H20.46C19.5351 15.587 18.4978 16.4532 17.9535 17.7633C17.301 19.3307 17.6014 20.9343 18.6295 21.3465C18.7923 21.4106 18.9658 21.4433 19.1407 21.4428C20.0702 21.4428 21.1217 20.5715 21.6706 19.2527C22.3186 17.6854 22.0136 16.0818 20.9901 15.6695Z" stroke="black" stroke-width="1.8" stroke-miterlimit="10"/>
<path d="M15.0224 21.7859C13.7476 19.6706 13.1974 18.875 11.7391 18.875C10.2809 18.875 9.72606 19.6756 8.45127 21.7859C7.35989 23.5908 5.15422 23.7412 4.60395 25.2742C4.49232 25.555 4.43625 25.8548 4.43887 26.1569C4.43887 27.4038 5.39267 28.413 6.56659 28.413C8.02481 28.413 10.0104 27.2488 11.7437 27.2488C13.4771 27.2488 15.4535 28.413 16.9117 28.413C18.0856 28.413 19.0348 27.4042 19.0348 26.1569C19.0359 25.8545 18.9783 25.5547 18.8652 25.2742C18.3149 23.7357 16.1138 23.5908 15.0224 21.7859Z" stroke="black" stroke-width="1.8" stroke-miterlimit="10"/>
<path d="M8.82776 16.8573C8.88916 16.8574 8.95048 16.8528 9.01118 16.8436C10.0755 16.689 10.74 15.2143 10.4988 13.5488C10.2718 11.9787 9.31888 10.8043 8.32243 10.8043C8.26103 10.8043 8.19971 10.8089 8.139 10.8181C7.07469 10.9726 6.41023 12.4473 6.65144 14.1128C6.87842 15.6784 7.83131 16.8573 8.82776 16.8573Z" stroke="black" stroke-width="1.8" stroke-miterlimit="10"/>
<path d="M16.8255 14.1128C17.0667 12.4473 16.4022 10.9726 15.3379 10.8181C15.2772 10.8089 15.2159 10.8043 15.1545 10.8043C14.1581 10.8043 13.207 11.9787 12.9796 13.5488C12.7384 15.2143 13.4028 16.689 14.4671 16.8436C14.5278 16.8528 14.5891 16.8574 14.6506 16.8573C15.647 16.8573 16.5999 15.6784 16.8255 14.1128Z" stroke="black" stroke-width="1.8" stroke-miterlimit="10"/>
<path d="M4.85018 21.3466C5.87689 20.9339 6.17679 19.329 5.52518 17.7634C4.97674 16.4446 3.92618 15.5734 2.99806 15.5734C2.82307 15.5729 2.64958 15.6056 2.48676 15.6697C1.46005 16.0824 1.16015 17.6873 1.81176 19.2529C2.3602 20.5717 3.41076 21.4429 4.33889 21.4429C4.51387 21.4434 4.68736 21.4107 4.85018 21.3466V21.3466Z" stroke="black" stroke-width="1.8" stroke-miterlimit="10"/>
<rect x="21.1304" y="11.3912" width="8.21739" height="1.17391" rx="0.586957" transform="rotate(-90 21.1304 11.3912)" fill="black"/>
<rect x="17.6087" y="6.69556" width="8.21739" height="1.17391" rx="0.586957" fill="black"/>
</svg>
