<svg width="20" height="18" viewBox="0 0 20 18" fill="none" xmlns="http://www.w3.org/2000/svg">
<path d="M18.0111 0H4.95185C4.42455 0.000588183 3.91901 0.21032 3.54614 0.583182C3.17328 0.956043 2.96355 1.46158 2.96296 1.98889V2.7H1.98889C1.46158 2.70059 0.956043 2.91032 0.583182 3.28318C0.21032 3.65604 0.000588183 4.16158 0 4.68889V17.037C1.56386e-05 17.1103 0.0217459 17.1819 0.0624438 17.2428C0.103142 17.3037 0.16098 17.3511 0.228646 17.3791C0.296313 17.4072 0.37077 17.4145 0.442604 17.4002C0.514439 17.3859 0.580425 17.3507 0.632222 17.2989L2.85444 15.0767H15.0481C15.5753 15.0761 16.0806 14.8665 16.4535 14.4939C16.8263 14.1213 17.0362 13.616 17.037 13.0889V12.3815H18.0111C18.5384 12.3809 19.044 12.1712 19.4168 11.7983C19.7897 11.4254 19.9994 10.9199 20 10.3926V1.98889C19.9994 1.46158 19.7897 0.956043 19.4168 0.583182C19.044 0.21032 18.5384 0.000588183 18.0111 0ZM16.2963 13.0889C16.2959 13.4198 16.1643 13.737 15.9303 13.971C15.6963 14.205 15.3791 14.3366 15.0481 14.337H2.7C2.60178 14.3371 2.50759 14.3761 2.43815 14.4456L0.740741 16.143V4.68889C0.741133 4.35798 0.87276 4.04074 1.10675 3.80675C1.34074 3.57276 1.65798 3.44113 1.98889 3.44074H15.0481C15.3791 3.44113 15.6963 3.57276 15.9303 3.80675C16.1643 4.04074 16.2959 4.35798 16.2963 4.68889V13.0889ZM19.2593 10.3926C19.2589 10.7235 19.1272 11.0407 18.8933 11.2747C18.6593 11.5087 18.342 11.6403 18.0111 11.6407H17.037V4.68889C17.0364 4.16158 16.8267 3.65604 16.4539 3.28318C16.081 2.91032 15.5755 2.70059 15.0481 2.7H3.7037V1.98889C3.7041 1.65798 3.83572 1.34074 4.06971 1.10675C4.3037 0.87276 4.62094 0.741133 4.95185 0.740741H18.0111C18.342 0.741133 18.6593 0.87276 18.8933 1.10675C19.1272 1.34074 19.2589 1.65798 19.2593 1.98889V10.3926Z" fill="white"/>
<path d="M8.77617 7.97827C8.61837 7.97827 8.46412 8.02506 8.33292 8.11273C8.20171 8.2004 8.09945 8.325 8.03906 8.47079C7.97868 8.61657 7.96288 8.77699 7.99366 8.93176C8.02445 9.08652 8.10043 9.22868 8.21201 9.34026C8.32359 9.45184 8.46575 9.52783 8.62052 9.55861C8.77528 9.5894 8.9357 9.5736 9.08149 9.51321C9.22727 9.45282 9.35188 9.35056 9.43954 9.21936C9.52721 9.08816 9.574 8.9339 9.574 8.77611C9.5738 8.56457 9.48968 8.36176 9.3401 8.21218C9.19052 8.0626 8.9877 7.97848 8.77617 7.97827ZM8.77617 9.1858C8.69514 9.1858 8.61593 9.16177 8.54856 9.11675C8.48118 9.07173 8.42867 9.00775 8.39767 8.93289C8.36666 8.85803 8.35854 8.77565 8.37435 8.69618C8.39016 8.61671 8.42918 8.54371 8.48647 8.48641C8.54377 8.42912 8.61677 8.3901 8.69624 8.37429C8.77571 8.35848 8.85809 8.3666 8.93295 8.3976C9.00781 8.42861 9.0718 8.48112 9.11681 8.5485C9.16183 8.61587 9.18586 8.69508 9.18586 8.77611C9.18575 8.88473 9.14256 8.98888 9.06575 9.06569C8.98894 9.1425 8.88479 9.18569 8.77617 9.1858Z" fill="white"/>
<path d="M12.4027 7.97827C12.2449 7.97827 12.0906 8.02506 11.9594 8.11273C11.8282 8.2004 11.726 8.325 11.6656 8.47079C11.6052 8.61657 11.5894 8.77699 11.6202 8.93176C11.651 9.08652 11.727 9.22868 11.8385 9.34026C11.9501 9.45184 12.0923 9.52783 12.247 9.55861C12.4018 9.5894 12.5622 9.5736 12.708 9.51321C12.8538 9.45282 12.9784 9.35056 13.0661 9.21936C13.1537 9.08816 13.2005 8.9339 13.2005 8.77611C13.2003 8.56459 13.1161 8.3618 12.9666 8.21224C12.817 8.06267 12.6142 7.97853 12.4027 7.97827ZM12.4027 9.1858C12.3217 9.1858 12.2425 9.16177 12.1751 9.11675C12.1077 9.07173 12.0552 9.00775 12.0242 8.93289C11.9932 8.85803 11.9851 8.77565 12.0009 8.69618C12.0167 8.61671 12.0557 8.54371 12.113 8.48641C12.1703 8.42912 12.2433 8.3901 12.3228 8.37429C12.4022 8.35848 12.4846 8.3666 12.5595 8.3976C12.6343 8.42861 12.6983 8.48112 12.7433 8.5485C12.7884 8.61587 12.8124 8.69508 12.8124 8.77611C12.8122 8.88472 12.769 8.98883 12.6922 9.06563C12.6154 9.14243 12.5113 9.18564 12.4027 9.1858Z" fill="white"/>
<path d="M5.14945 7.97827C4.99166 7.97831 4.83743 8.02513 4.70625 8.11283C4.57507 8.20052 4.47284 8.32513 4.41248 8.47092C4.35213 8.61671 4.33635 8.77712 4.36716 8.93188C4.39797 9.08663 4.47397 9.22877 4.58556 9.34033C4.69714 9.45189 4.8393 9.52786 4.99406 9.55863C5.14882 9.5894 5.30923 9.57358 5.45501 9.51319C5.60078 9.4528 5.72537 9.35054 5.81303 9.21934C5.90069 9.08814 5.94748 8.9339 5.94748 8.77611C5.94722 8.56455 5.86306 8.36174 5.71345 8.21217C5.56384 8.06259 5.361 7.97848 5.14945 7.97827ZM5.14945 9.1858C5.06843 9.18576 4.98924 9.1617 4.92189 9.11666C4.85454 9.07162 4.80206 9.00762 4.77108 8.93275C4.74011 8.85789 4.73202 8.77552 4.74785 8.69606C4.76368 8.6166 4.80271 8.54362 4.86002 8.48634C4.91732 8.42907 4.99032 8.39007 5.06979 8.37428C5.14925 8.35848 5.23162 8.36661 5.30647 8.39762C5.38132 8.42864 5.44529 8.48115 5.4903 8.54852C5.53531 8.61588 5.55933 8.69509 5.55933 8.77611C5.55923 8.88477 5.51601 8.98894 5.43915 9.06576C5.3623 9.14257 5.25811 9.18574 5.14945 9.1858Z" fill="white"/>
</svg>
