<svg width="20" height="20" viewBox="0 0 20 20" fill="none" xmlns="http://www.w3.org/2000/svg">
<path d="M18.1875 3.5H17.875V1.9375C17.875 1.42062 17.4544 1 16.9375 1H16.3125C15.7956 1 15.375 1.42062 15.375 1.9375V3.5H5.375V1.9375C5.375 1.42062 4.95438 1 4.4375 1H3.8125C3.29562 1 2.875 1.42062 2.875 1.9375V3.5H2.5625C1.70094 3.5 1 4.20094 1 5.0625V18.1875C1 19.0491 1.70094 19.75 2.5625 19.75H18.1875C19.0491 19.75 19.75 19.0491 19.75 18.1875V5.0625C19.75 4.20094 19.0491 3.5 18.1875 3.5ZM16 1.9375C16 1.765 16.14 1.625 16.3125 1.625H16.9375C17.11 1.625 17.25 1.765 17.25 1.9375V3.8125V5.0625C17.25 5.235 17.11 5.375 16.9375 5.375H16.3125C16.14 5.375 16 5.235 16 5.0625V3.8125V1.9375ZM3.5 1.9375C3.5 1.765 3.64 1.625 3.8125 1.625H4.4375C4.61 1.625 4.75 1.765 4.75 1.9375V3.8125V5.0625C4.75 5.235 4.61 5.375 4.4375 5.375H3.8125C3.64 5.375 3.5 5.235 3.5 5.0625V3.8125V1.9375ZM2.5625 4.125H2.875V5.0625C2.875 5.57938 3.29562 6 3.8125 6H4.4375C4.95438 6 5.375 5.57938 5.375 5.0625V4.125H15.375V5.0625C15.375 5.57938 15.7956 6 16.3125 6H16.9375C17.4544 6 17.875 5.57938 17.875 5.0625V4.125H18.1875C18.7044 4.125 19.125 4.54562 19.125 5.0625V8.5H1.625V5.0625C1.625 4.54562 2.04562 4.125 2.5625 4.125ZM18.1875 19.125H2.5625C2.04562 19.125 1.625 18.7044 1.625 18.1875V9.125H19.125V18.1875C19.125 18.7044 18.7044 19.125 18.1875 19.125Z" fill="black" stroke="black" stroke-width="0.3"/>
<path d="M6.9375 7.5625H13.8125C13.9853 7.5625 14.125 7.42281 14.125 7.25V5.375C14.125 5.20219 13.9853 5.0625 13.8125 5.0625H6.9375C6.76469 5.0625 6.625 5.20219 6.625 5.375V7.25C6.625 7.42281 6.76469 7.5625 6.9375 7.5625ZM7.25 5.6875H13.5V6.9375H7.25V5.6875Z" fill="black" stroke="black" stroke-width="0.3"/>
<path d="M5.0625 10.0625H3.1875C3.01469 10.0625 2.875 10.2022 2.875 10.375V11.9375C2.875 12.1103 3.01469 12.25 3.1875 12.25H5.0625C5.23531 12.25 5.375 12.1103 5.375 11.9375V10.375C5.375 10.2022 5.23531 10.0625 5.0625 10.0625ZM4.75 11.625H3.5V10.6875H4.75V11.625Z" fill="black" stroke="black" stroke-width="0.3"/>
<path d="M9.125 10.0625H7.25C7.07719 10.0625 6.9375 10.2022 6.9375 10.375V11.9375C6.9375 12.1103 7.07719 12.25 7.25 12.25H9.125C9.29781 12.25 9.4375 12.1103 9.4375 11.9375V10.375C9.4375 10.2022 9.29781 10.0625 9.125 10.0625ZM8.8125 11.625H7.5625V10.6875H8.8125V11.625Z" fill="black" stroke="black" stroke-width="0.3"/>
<path d="M11.625 12.25H13.5C13.6728 12.25 13.8125 12.1103 13.8125 11.9375V10.375C13.8125 10.2022 13.6728 10.0625 13.5 10.0625H11.625C11.4522 10.0625 11.3125 10.2022 11.3125 10.375V11.9375C11.3125 12.1103 11.4522 12.25 11.625 12.25ZM11.9375 10.6875H13.1875V11.625H11.9375V10.6875Z" fill="black" stroke="black" stroke-width="0.3"/>
<path d="M17.5625 10.0625H15.6875C15.5147 10.0625 15.375 10.2022 15.375 10.375V11.9375C15.375 12.1103 15.5147 12.25 15.6875 12.25H17.5625C17.7353 12.25 17.875 12.1103 17.875 11.9375V10.375C17.875 10.2022 17.7353 10.0625 17.5625 10.0625ZM17.25 11.625H16V10.6875H17.25V11.625Z" fill="black" stroke="black" stroke-width="0.3"/>
<path d="M5.0625 13.1875H3.1875C3.01469 13.1875 2.875 13.3272 2.875 13.5V15.0625C2.875 15.2353 3.01469 15.375 3.1875 15.375H5.0625C5.23531 15.375 5.375 15.2353 5.375 15.0625V13.5C5.375 13.3272 5.23531 13.1875 5.0625 13.1875ZM4.75 14.75H3.5V13.8125H4.75V14.75Z" fill="black" stroke="black" stroke-width="0.3"/>
<path d="M9.125 13.1875H7.25C7.07719 13.1875 6.9375 13.3272 6.9375 13.5V15.0625C6.9375 15.2353 7.07719 15.375 7.25 15.375H9.125C9.29781 15.375 9.4375 15.2353 9.4375 15.0625V13.5C9.4375 13.3272 9.29781 13.1875 9.125 13.1875ZM8.8125 14.75H7.5625V13.8125H8.8125V14.75Z" fill="black" stroke="black" stroke-width="0.3"/>
<path d="M11.625 15.375H13.5C13.6728 15.375 13.8125 15.2353 13.8125 15.0625V13.5C13.8125 13.3272 13.6728 13.1875 13.5 13.1875H11.625C11.4522 13.1875 11.3125 13.3272 11.3125 13.5V15.0625C11.3125 15.2353 11.4522 15.375 11.625 15.375ZM11.9375 13.8125H13.1875V14.75H11.9375V13.8125Z" fill="black" stroke="black" stroke-width="0.3"/>
<path d="M17.5625 13.1875H15.6875C15.5147 13.1875 15.375 13.3272 15.375 13.5V15.0625C15.375 15.2353 15.5147 15.375 15.6875 15.375H17.5625C17.7353 15.375 17.875 15.2353 17.875 15.0625V13.5C17.875 13.3272 17.7353 13.1875 17.5625 13.1875ZM17.25 14.75H16V13.8125H17.25V14.75Z" fill="black" stroke="black" stroke-width="0.3"/>
<path d="M5.0625 16.3125H3.1875C3.01469 16.3125 2.875 16.4522 2.875 16.625V18.1875C2.875 18.3603 3.01469 18.5 3.1875 18.5H5.0625C5.23531 18.5 5.375 18.3603 5.375 18.1875V16.625C5.375 16.4522 5.23531 16.3125 5.0625 16.3125ZM4.75 17.875H3.5V16.9375H4.75V17.875Z" fill="black" stroke="black" stroke-width="0.3"/>
<path d="M9.125 16.3125H7.25C7.07719 16.3125 6.9375 16.4522 6.9375 16.625V18.1875C6.9375 18.3603 7.07719 18.5 7.25 18.5H9.125C9.29781 18.5 9.4375 18.3603 9.4375 18.1875V16.625C9.4375 16.4522 9.29781 16.3125 9.125 16.3125ZM8.8125 17.875H7.5625V16.9375H8.8125V17.875Z" fill="black" stroke="black" stroke-width="0.3"/>
<path d="M12.2291 17.7247L11.5334 17.0291L11.0916 17.471L12.0291 18.4085C12.0875 18.4675 12.1672 18.5 12.25 18.5C12.2547 18.5 12.2594 18.5 12.2641 18.4997C12.3519 18.4957 12.4337 18.455 12.4903 18.3879L14.0528 16.5129L13.5725 16.1125L12.2291 17.7247Z" fill="black" stroke="black" stroke-width="0.3"/>
<path d="M15.9791 17.7247L15.2834 17.0291L14.8416 17.471L15.7791 18.4085C15.8375 18.4675 15.9172 18.5 16 18.5C16.0047 18.5 16.0094 18.5 16.0141 18.4997C16.1019 18.4957 16.1837 18.455 16.2403 18.3879L17.8028 16.5129L17.3225 16.1125L15.9791 17.7247Z" fill="black" stroke="black" stroke-width="0.3"/>
</svg>
