<svg width="26" height="22" viewBox="0 0 26 22" fill="none" xmlns="http://www.w3.org/2000/svg">
<path d="M4.63006 17.6376H5.86006V20.3904C5.86006 20.7456 6.07006 21.0416 6.37006 21.2192C6.49006 21.2784 6.64006 21.308 6.79006 21.308C6.97006 21.308 7.18006 21.2488 7.33006 21.1304L12.1601 17.6376H21.3401C23.3801 17.6376 25.0301 16.0096 25.0301 13.9968V3.93279C25.0301 1.91999 23.3801 0.291992 21.3401 0.291992H4.63006C2.59006 0.291992 0.940063 1.91999 0.940063 3.93279V13.9968C0.970063 16.0096 2.62006 17.6376 4.63006 17.6376ZM2.83006 3.93279C2.83006 2.95599 3.64006 2.12719 4.66006 2.12719H21.3701C22.3601 2.12719 23.2001 2.92639 23.2001 3.93279V13.9968C23.2001 14.9736 22.3901 15.8024 21.3701 15.8024H11.8901C11.6801 15.8024 11.5001 15.8616 11.3501 15.98L7.75006 18.5848V16.72C7.75006 16.2168 7.33006 15.8024 6.82006 15.8024H4.66006C3.67006 15.8024 2.83006 15.0032 2.83006 13.9968V3.93279ZM11.8901 9.31999C11.8901 8.72799 12.3701 8.22479 13.0001 8.22479C13.6301 8.22479 14.1101 8.69839 14.1101 9.31999C14.1101 9.94159 13.6001 10.4152 13.0001 10.4152C12.4001 10.4152 11.8901 9.91199 11.8901 9.31999ZM15.7001 9.31999C15.7001 8.72799 16.1801 8.22479 16.8101 8.22479C17.4401 8.22479 17.9201 8.69839 17.9201 9.31999C17.9201 9.94159 17.4401 10.4152 16.8101 10.4152C16.1801 10.4152 15.7001 9.91199 15.7001 9.31999ZM8.11006 9.31999C8.11006 8.72799 8.59006 8.22479 9.22006 8.22479C9.82006 8.22479 10.3301 8.69839 10.3301 9.31999C10.3301 9.94159 9.85006 10.4152 9.22006 10.4152C8.59006 10.4152 8.11006 9.91199 8.11006 9.31999Z" fill="#2B5A51"/>
</svg>
