<svg width="21" height="19" viewBox="0 0 21 19" fill="none" xmlns="http://www.w3.org/2000/svg">
<path d="M3.52501 15.1288H4.55001V17.4352C4.55001 17.7328 4.72501 17.9808 4.97501 18.1296C5.07501 18.1792 5.20001 18.204 5.32501 18.204C5.47501 18.204 5.65001 18.1544 5.77501 18.0552L9.80001 15.1288H17.45C19.15 15.1288 20.525 13.7648 20.525 12.0784V3.64641C20.525 1.96001 19.15 0.596008 17.45 0.596008H3.52501C1.82501 0.596008 0.450012 1.96001 0.450012 3.64641V12.0784C0.475012 13.7648 1.85001 15.1288 3.52501 15.1288ZM2.02501 3.64641C2.02501 2.82801 2.70001 2.13361 3.55001 2.13361H17.475C18.3 2.13361 19 2.80321 19 3.64641V12.0784C19 12.8968 18.325 13.5912 17.475 13.5912H9.57501C9.40001 13.5912 9.25001 13.6408 9.12501 13.74L6.12501 15.9224V14.36C6.12501 13.9384 5.77501 13.5912 5.35001 13.5912H3.55001C2.72501 13.5912 2.02501 12.9216 2.02501 12.0784V3.64641ZM9.57501 8.16001C9.57501 7.66401 9.97501 7.24241 10.5 7.24241C11.025 7.24241 11.425 7.63921 11.425 8.16001C11.425 8.68081 11 9.07761 10.5 9.07761C10 9.07761 9.57501 8.65601 9.57501 8.16001ZM12.75 8.16001C12.75 7.66401 13.15 7.24241 13.675 7.24241C14.2 7.24241 14.6 7.63921 14.6 8.16001C14.6 8.68081 14.2 9.07761 13.675 9.07761C13.15 9.07761 12.75 8.65601 12.75 8.16001ZM6.42501 8.16001C6.42501 7.66401 6.82501 7.24241 7.35001 7.24241C7.85001 7.24241 8.27501 7.63921 8.27501 8.16001C8.27501 8.68081 7.87501 9.07761 7.35001 9.07761C6.82501 9.07761 6.42501 8.65601 6.42501 8.16001Z" fill="black"/>
</svg>
