<svg width="27" height="26" viewBox="0 0 27 26" fill="none" xmlns="http://www.w3.org/2000/svg">
<path fill-rule="evenodd" clip-rule="evenodd" d="M4.29289 21.1464H5.64589V24.3456C5.64589 24.7584 5.87689 25.1024 6.20689 25.3088C6.33889 25.3776 6.50389 25.412 6.66889 25.412C6.86689 25.412 7.09789 25.3432 7.26289 25.2056L12.5759 21.1464H22.6739C24.9179 21.1464 26.7329 19.2544 26.7329 16.9152V5.21924C26.7329 2.88004 24.9179 0.988037 22.6739 0.988037H4.29289C2.04889 0.988037 0.233887 2.88004 0.233887 5.21924V16.9152C0.266887 19.2544 2.08189 21.1464 4.29289 21.1464ZM2.31289 5.21924C2.31289 4.08404 3.20389 3.12084 4.32589 3.12084H22.7069C23.7959 3.12084 24.7199 4.04964 24.7199 5.21924V16.9152C24.7199 18.0504 23.8289 19.0136 22.7069 19.0136H12.2789C12.0479 19.0136 11.8499 19.0824 11.6849 19.22L7.72489 22.2472V20.08C7.72489 19.4952 7.26289 19.0136 6.70189 19.0136H4.32589C3.23689 19.0136 2.31289 18.0848 2.31289 16.9152V5.21924ZM11.5687 18H22C23.1046 18 24 17.1046 24 16V6C24 4.89543 23.1046 4 22 4H5C3.89543 4 3 4.89543 3 6V16C3 17.1046 3.89543 18 5 18H8.33949L8.44279 19.9918L11.5687 18Z" fill="#F27063"/>
</svg>
