<svg width="27" height="26" viewBox="0 0 27 26" fill="none" xmlns="http://www.w3.org/2000/svg">
<path d="M4.29301 21.1464H5.64601V24.3456C5.64601 24.7584 5.87701 25.1024 6.20701 25.3088C6.33901 25.3776 6.50401 25.412 6.66901 25.412C6.86701 25.412 7.09801 25.3432 7.26301 25.2056L12.576 21.1464H22.674C24.918 21.1464 26.733 19.2544 26.733 16.9152V5.21924C26.733 2.88004 24.918 0.988037 22.674 0.988037H4.29301C2.04901 0.988037 0.234009 2.88004 0.234009 5.21924V16.9152C0.267009 19.2544 2.08201 21.1464 4.29301 21.1464ZM2.31301 5.21924C2.31301 4.08404 3.20401 3.12084 4.32601 3.12084H22.707C23.796 3.12084 24.72 4.04964 24.72 5.21924V16.9152C24.72 18.0504 23.829 19.0136 22.707 19.0136H12.279C12.048 19.0136 11.85 19.0824 11.685 19.22L7.72501 22.2472V20.08C7.72501 19.4952 7.26301 19.0136 6.70201 19.0136H4.32601C3.23701 19.0136 2.31301 18.0848 2.31301 16.9152V5.21924ZM12.279 11.48C12.279 10.792 12.807 10.2072 13.5 10.2072C14.193 10.2072 14.721 10.7576 14.721 11.48C14.721 12.2024 14.16 12.7528 13.5 12.7528C12.84 12.7528 12.279 12.168 12.279 11.48ZM16.47 11.48C16.47 10.792 16.998 10.2072 17.691 10.2072C18.384 10.2072 18.912 10.7576 18.912 11.48C18.912 12.2024 18.384 12.7528 17.691 12.7528C16.998 12.7528 16.47 12.168 16.47 11.48ZM8.12101 11.48C8.12101 10.792 8.64901 10.2072 9.34201 10.2072C10.002 10.2072 10.563 10.7576 10.563 11.48C10.563 12.2024 10.035 12.7528 9.34201 12.7528C8.64901 12.7528 8.12101 12.168 8.12101 11.48Z" fill="#F27063"/>
</svg>
