<svg width="19" height="18" viewBox="0 0 19 18" fill="none" xmlns="http://www.w3.org/2000/svg">
<path d="M3.083 14.2827H4.026V16.5114C4.026 16.7989 4.187 17.0386 4.417 17.1823C4.509 17.2303 4.624 17.2542 4.739 17.2542C4.877 17.2542 5.038 17.2063 5.153 17.1105L8.856 14.2827H15.894C17.458 14.2827 18.723 12.9647 18.723 11.3351V3.18733C18.723 1.55777 17.458 0.239746 15.894 0.239746H3.083C1.519 0.239746 0.253998 1.55777 0.253998 3.18733V11.3351C0.276998 12.9647 1.542 14.2827 3.083 14.2827ZM1.703 3.18733C1.703 2.39651 2.324 1.72552 3.106 1.72552H15.917C16.676 1.72552 17.32 2.37255 17.32 3.18733V11.3351C17.32 12.1259 16.699 12.7969 15.917 12.7969H8.649C8.488 12.7969 8.35 12.8448 8.235 12.9407L5.475 15.0495V13.5398C5.475 13.1324 5.153 12.7969 4.762 12.7969H3.106C2.347 12.7969 1.703 12.1499 1.703 11.3351V3.18733ZM8.649 7.54879C8.649 7.06951 9.017 6.66212 9.5 6.66212C9.983 6.66212 10.351 7.04554 10.351 7.54879C10.351 8.05203 9.96 8.43546 9.5 8.43546C9.04 8.43546 8.649 8.02807 8.649 7.54879ZM11.57 7.54879C11.57 7.06951 11.938 6.66212 12.421 6.66212C12.904 6.66212 13.272 7.04554 13.272 7.54879C13.272 8.05203 12.904 8.43546 12.421 8.43546C11.938 8.43546 11.57 8.02807 11.57 7.54879ZM5.751 7.54879C5.751 7.06951 6.119 6.66212 6.602 6.66212C7.062 6.66212 7.453 7.04554 7.453 7.54879C7.453 8.05203 7.085 8.43546 6.602 8.43546C6.119 8.43546 5.751 8.02807 5.751 7.54879Z" fill="white"/>
</svg>
