<svg width="70" height="59" viewBox="0 0 70 59" fill="none" xmlns="http://www.w3.org/2000/svg">
<circle cx="29" cy="30" r="28.5" fill="#F2F2F2" stroke="#9B9B9B"/>
<circle cx="29.1487" cy="29.8513" r="10.5051" stroke="#9B9B9B"/>
<mask id="path-3-inside-1" fill="white">
<path fill-rule="evenodd" clip-rule="evenodd" d="M46.8335 52.87C41.9146 56.7111 35.7246 58.9999 29 58.9999C22.2754 58.9999 16.0854 56.7111 11.1665 52.87C15.394 47.7148 21.8129 44.4255 29 44.4255C36.1871 44.4255 42.6061 47.7148 46.8335 52.87Z"/>
</mask>
<path d="M46.8335 52.87L47.449 53.6582L48.2562 53.0278L47.6068 52.2359L46.8335 52.87ZM11.1665 52.87L10.3932 52.2359L9.74384 53.0278L10.551 53.6582L11.1665 52.87ZM46.218 52.0818C41.4687 55.7905 35.4938 57.9999 29 57.9999V59.9999C35.9554 59.9999 42.3605 57.6316 47.449 53.6582L46.218 52.0818ZM29 57.9999C22.5063 57.9999 16.5313 55.7905 11.782 52.0818L10.551 53.6582C15.6395 57.6316 22.0446 59.9999 29 59.9999V57.9999ZM11.9398 53.5041C15.9854 48.5705 22.125 45.4255 29 45.4255V43.4255C21.5007 43.4255 14.8025 46.859 10.3932 52.2359L11.9398 53.5041ZM29 45.4255C35.875 45.4255 42.0146 48.5705 46.0603 53.5041L47.6068 52.2359C43.1975 46.859 36.4993 43.4255 29 43.4255V45.4255Z" fill="#9B9B9B" mask="url(#path-3-inside-1)"/>
<g filter="url(#filter0_d)">
<circle cx="54" cy="16" r="9" fill="#F27063"/>
</g>
<line x1="53.9286" y1="13.75" x2="53.9286" y2="18.25" stroke="white" stroke-width="0.5"/>
<line x1="56.25" y1="15.9285" x2="51.75" y2="15.9285" stroke="white" stroke-width="0.5"/>
<defs>
<filter id="filter0_d" x="38" y="0" width="32" height="32" filterUnits="userSpaceOnUse" color-interpolation-filters="sRGB">
<feFlood flood-opacity="0" result="BackgroundImageFix"/>
<feColorMatrix in="SourceAlpha" type="matrix" values="0 0 0 0 0 0 0 0 0 0 0 0 0 0 0 0 0 0 127 0"/>
<feOffset/>
<feGaussianBlur stdDeviation="3.5"/>
<feColorMatrix type="matrix" values="0 0 0 0 0 0 0 0 0 0 0 0 0 0 0 0 0 0 0.25 0"/>
<feBlend mode="normal" in2="BackgroundImageFix" result="effect1_dropShadow"/>
<feBlend mode="normal" in="SourceGraphic" in2="effect1_dropShadow" result="shape"/>
</filter>
</defs>
</svg>
