<svg width="36" height="34" viewBox="0 0 36 34" fill="none" xmlns="http://www.w3.org/2000/svg">
<path d="M14.1658 17.3535L14.8965 16.6709L14.1658 15.9883L9.56958 11.6946C8.8016 10.9772 8.80162 9.81395 9.56958 9.09654C10.3376 8.37908 11.5827 8.3791 12.3507 9.09654L16.9469 13.3902L17.6777 14.0728L18.4084 13.3902L23.0046 9.09654C23.7726 8.37909 25.0177 8.37907 25.7858 9.09654C26.5537 9.81395 26.5537 10.9772 25.7858 11.6946L21.1896 15.9883L20.4588 16.6709L21.1896 17.3535L25.7858 21.6472C26.5538 22.3646 26.5538 23.5278 25.7858 24.2453C25.0178 24.9627 23.7726 24.9627 23.0046 24.2453L18.4084 19.9516L17.6777 19.269L16.9469 19.9516L12.3507 24.2453C11.5827 24.9627 10.3375 24.9627 9.56958 24.2453C8.80156 23.5278 8.80159 22.3646 9.56958 21.6472L14.1658 17.3535Z" fill="black" stroke="white" stroke-width="2"/>
</svg>
