<svg width="32" height="19" viewBox="0 0 32 19" fill="none" xmlns="http://www.w3.org/2000/svg">
<path d="M10.5497 5.74842C10.4167 7.59459 9.03096 9.04856 7.5372 9.04856C6.04345 9.04856 4.65541 7.59516 4.52468 5.74842C4.38884 3.8278 5.73765 2.45511 7.5372 2.45511C9.33676 2.45511 10.6856 3.86304 10.5497 5.74842Z" stroke="black" stroke-width="2" stroke-linecap="round" stroke-linejoin="round"/>
<path d="M10.8907 12.5727C9.86477 12.1026 8.73478 11.9218 7.53716 11.9218C4.58148 11.9218 1.73379 13.3911 1.02045 16.253C0.926664 16.6316 1.16426 17.0062 1.55304 17.0062H7.93504" stroke="black" stroke-width="2" stroke-miterlimit="10" stroke-linecap="round"/>
<path d="M26.9154 4.59442C26.7703 6.60938 25.2578 8.19628 23.6275 8.19628C21.9971 8.19628 20.4822 6.61 20.3395 4.59442C20.1912 2.49819 21.6634 1 23.6275 1C25.5916 1 27.0637 2.53665 26.9154 4.59442Z" stroke="black" stroke-width="2" stroke-linecap="round" stroke-linejoin="round"/>
<path d="M20.3292 12.3537C21.4361 11.8604 22.6552 11.6708 23.9473 11.6708C27.1361 11.6708 30.2083 13.2126 30.9779 16.2158C31.0791 16.6131 30.8228 17.0061 30.4033 17.0061H23.518" stroke="black" stroke-width="2" stroke-miterlimit="10" stroke-linecap="round"/>
<path d="M15.4789 13.9989C13.2837 13.9989 11.1727 15.0893 10.6439 17.2127C10.5738 17.4936 10.75 17.7715 11.0387 17.7715H19.9194C20.2081 17.7715 20.3833 17.4936 20.3142 17.2127C19.7854 15.0553 17.6744 13.9989 15.4789 13.9989Z" stroke="black" stroke-width="2" stroke-miterlimit="10"/>
<path d="M17.7995 8.49333C17.6927 9.97492 16.5806 11.1418 15.3818 11.1418C14.1831 11.1418 13.0691 9.97537 12.9642 8.49333C12.8552 6.95199 13.9377 5.85038 15.3818 5.85038C16.826 5.85038 17.9085 6.98027 17.7995 8.49333Z" stroke="black" stroke-width="2" stroke-linecap="round" stroke-linejoin="round"/>
</svg>
