<svg width="23" height="26" viewBox="0 0 23 26" fill="none" xmlns="http://www.w3.org/2000/svg">
<path d="M11.6289 12.2031C11.4859 14.189 10.0127 15.7188 8.40628 15.7188C6.79984 15.7188 5.32426 14.1895 5.18363 12.2031C5.03715 10.1372 6.47123 8.6875 8.40628 8.6875C10.3413 8.6875 11.7754 10.1748 11.6289 12.2031Z" stroke="#2B5A51" stroke-width="1.5" stroke-linecap="round" stroke-linejoin="round"/>
<path d="M8.4063 18.8438C5.22417 18.8438 2.16411 20.4243 1.39751 23.5024C1.29595 23.9097 1.55132 24.3125 1.96978 24.3125H14.8433C15.2618 24.3125 15.5157 23.9097 15.4156 23.5024C14.649 20.375 11.5889 18.8438 8.4063 18.8438Z" stroke="#2B5A51" stroke-width="1.5" stroke-miterlimit="10"/>
<rect x="15.8695" y="10.5652" width="8.21739" height="1.17391" rx="0.586957" transform="rotate(-90 15.8695 10.5652)" fill="#2B5A51"/>
<rect x="12.3478" y="5.86951" width="8.21739" height="1.17391" rx="0.586957" fill="#2B5A51"/>
</svg>
