<svg width="25" height="25" viewBox="0 0 25 25" fill="none" xmlns="http://www.w3.org/2000/svg">
<path d="M19.6289 8.20312C19.4859 10.189 18.0127 11.7188 16.4063 11.7188C14.7998 11.7188 13.3243 10.1895 13.1836 8.20312C13.0371 6.13721 14.4712 4.6875 16.4063 4.6875C18.3413 4.6875 19.7754 6.1748 19.6289 8.20312Z" stroke="black" stroke-width="2" stroke-linecap="round" stroke-linejoin="round"/>
<path d="M16.4062 14.8438C13.2241 14.8438 10.1641 16.4243 9.39745 19.5024C9.29589 19.9097 9.55126 20.3125 9.96972 20.3125H22.8432C23.2617 20.3125 23.5156 19.9097 23.4155 19.5024C22.6489 16.375 19.5889 14.8438 16.4062 14.8438Z" stroke="black" stroke-width="2" stroke-miterlimit="10"/>
<path d="M5 3C4.33728 3 3.8 3.53726 3.8 4.2V6.8H1.2C0.53726 6.8 0 7.33724 0 8C0 8.66272 0.53726 9.2 1.2 9.2H3.8V11.8C3.8 12.4627 4.33728 13 5 13C5.66276 13 6.2 12.4627 6.2 11.8V9.2H8.8C9.46274 9.2 10 8.66272 10 8C10 7.33724 9.46274 6.8 8.8 6.8H6.2V4.2C6.2 3.53726 5.66276 3 5 3Z" fill="black"/>
</svg>
