<svg width="18" height="28" viewBox="0 0 18 28" fill="none" xmlns="http://www.w3.org/2000/svg">
<mask id="path-2-inside-1" fill="white">
<path fill-rule="evenodd" clip-rule="evenodd" d="M10.5882 17.1748C14.8013 16.4534 18 12.9132 18 8.65455C18 3.87477 13.9706 0 9 0C4.02944 0 0 3.87477 0 8.65455C0 12.7329 2.93361 16.1524 6.88235 17.0682V19.3454H2.84064C1.85657 19.3454 1.05882 20.1432 1.05882 21.1273C1.05882 22.1113 1.85657 22.9091 2.84064 22.9091H6.88235V26.147C6.88235 27.1704 7.71194 28 8.73529 28C9.75864 28 10.5882 27.1704 10.5882 26.147V22.9091H14.6299C15.614 22.9091 16.4118 22.1113 16.4118 21.1273C16.4118 20.1432 15.614 19.3454 14.6299 19.3454H10.5882L10.5882 17.1748Z"/>
</mask>
<path d="M10.5882 17.1748L10.4195 16.1891L9.58824 16.3314L9.58824 17.1748H10.5882ZM6.88235 17.0682H7.88235V16.2735L7.10827 16.094L6.88235 17.0682ZM6.88235 19.3454V20.3454H7.88235V19.3454H6.88235ZM6.88235 22.9091H7.88235V21.9091H6.88235V22.9091ZM10.5882 22.9091V21.9091H9.58823V22.9091H10.5882ZM10.5882 19.3454H9.58823L9.58823 20.3454H10.5882V19.3454ZM17 8.65455C17 12.39 14.1888 15.5437 10.4195 16.1891L10.757 18.1604C15.4139 17.3631 19 13.4364 19 8.65455H17ZM9 1C13.4555 1 17 4.46359 17 8.65455H19C19 3.28596 14.4856 -1 9 -1V1ZM1 8.65455C1 4.46359 4.54447 1 9 1V-1C3.5144 -1 -1 3.28596 -1 8.65455H1ZM7.10827 16.094C3.57739 15.2752 1 12.2323 1 8.65455H-1C-1 13.2335 2.28983 17.0296 6.65644 18.0423L7.10827 16.094ZM7.88235 19.3454V17.0682H5.88235V19.3454H7.88235ZM6.88235 18.3454H2.84064V20.3454H6.88235V18.3454ZM2.84064 18.3454C1.30429 18.3454 0.0588236 19.5909 0.0588236 21.1273H2.05882C2.05882 20.6955 2.40885 20.3454 2.84064 20.3454V18.3454ZM0.0588236 21.1273C0.0588236 22.6636 1.30429 23.9091 2.84064 23.9091V21.9091C2.40886 21.9091 2.05882 21.5591 2.05882 21.1273H0.0588236ZM2.84064 23.9091H6.88235V21.9091H2.84064V23.9091ZM7.88235 26.147V22.9091H5.88235V26.147H7.88235ZM8.73529 27C8.26423 27 7.88235 26.6181 7.88235 26.147H5.88235C5.88235 27.7227 7.15966 29 8.73529 29V27ZM9.58823 26.147C9.58823 26.6181 9.20636 27 8.73529 27V29C10.3109 29 11.5882 27.7227 11.5882 26.147H9.58823ZM9.58823 22.9091V26.147H11.5882V22.9091H9.58823ZM10.5882 23.9091H14.6299V21.9091H10.5882V23.9091ZM14.6299 23.9091C16.1663 23.9091 17.4118 22.6636 17.4118 21.1273H15.4118C15.4118 21.5591 15.0617 21.9091 14.6299 21.9091V23.9091ZM17.4118 21.1273C17.4118 19.5909 16.1663 18.3454 14.6299 18.3454V20.3454C15.0617 20.3454 15.4118 20.6955 15.4118 21.1273H17.4118ZM14.6299 18.3454H10.5882V20.3454H14.6299V18.3454ZM9.58824 17.1748L9.58823 19.3454H11.5882L11.5882 17.1748H9.58824Z" fill="#2B5A51" mask="url(#path-2-inside-1)"/>
<path d="M14.658 8.65456C14.658 11.6305 12.1435 14.0761 9.00006 14.0761C5.85666 14.0761 3.34216 11.6305 3.34216 8.65456C3.34216 5.6786 5.85666 3.23303 9.00006 3.23303C12.1435 3.23303 14.658 5.6786 14.658 8.65456Z" stroke="#2B5A51"/>
</svg>
