<svg width="26" height="26" viewBox="0 0 26 26" fill="none" xmlns="http://www.w3.org/2000/svg">
<path d="M6.3335 6.33185C7.80585 6.33185 8.99942 5.13828 8.99942 3.66593C8.99942 2.19358 7.80585 1 6.3335 1C4.86115 1 3.66757 2.19358 3.66757 3.66593C3.66757 5.13828 4.86115 6.33185 6.3335 6.33185Z" stroke="#F27063" stroke-width="1.5" stroke-miterlimit="10" stroke-linecap="round" stroke-linejoin="round"/>
<path d="M2.33463 16.332L3.66759 13.3327V10.9991V13.3327L2.33463 16.332Z" stroke="#F27063" stroke-width="1.5" stroke-miterlimit="10" stroke-linecap="round" stroke-linejoin="round"/>
<path d="M10.3337 16.332L8.99945 13.3327V10.9991V13.3327L10.3337 16.332Z" stroke="#F27063" stroke-width="1.5" stroke-miterlimit="10" stroke-linecap="round" stroke-linejoin="round"/>
<path d="M2.33463 16.332C1.59732 16.332 1 15.7357 1 14.9994V9.66553C1 8.19324 2.1943 6.99927 3.66759 6.99927C4.02958 7.36092 4.44524 7.63192 4.89056 7.81658C5.35121 8.00691 5.84254 8.10324 6.33419 8.10357C6.82451 8.10324 7.31449 8.00691 7.77648 7.81658C8.2218 7.63192 8.63879 7.36092 8.99945 6.99927C10.4727 6.99927 11.667 8.19324 11.667 9.66553V14.9994C11.667 15.7357 11.0697 16.332 10.3337 16.332L11.667 19.3323H8.99945V22.9992C8.99945 23.7355 8.40346 24.3321 7.66715 24.3321C6.93017 24.3321 6.33419 23.7355 6.33419 22.9992V19.3323V22.9992C6.33419 23.7355 5.73687 24.3321 4.99956 24.3321C4.26491 24.3321 3.66759 23.7355 3.66759 22.9992V19.3323H1L2.33463 16.332Z" stroke="#F27063" stroke-width="1.5" stroke-miterlimit="10" stroke-linecap="round" stroke-linejoin="round"/>
<path d="M19.6664 6.33185C21.1388 6.33185 22.3324 5.13828 22.3324 3.66593C22.3324 2.19358 21.1388 1 19.6664 1C18.1941 1 17.0005 2.19358 17.0005 3.66593C17.0005 5.13828 18.1941 6.33185 19.6664 6.33185Z" stroke="#F27063" stroke-width="1.5" stroke-miterlimit="10" stroke-linecap="round" stroke-linejoin="round"/>
<path d="M15.6676 16.332L17.0009 13.3327V10.9991V13.3327L15.6676 16.332Z" stroke="#F27063" stroke-width="1.5" stroke-miterlimit="10" stroke-linecap="round" stroke-linejoin="round"/>
<path d="M23.6671 16.332L22.3324 13.3327V10.9991" stroke="#F27063" stroke-width="1.5" stroke-miterlimit="10" stroke-linecap="round" stroke-linejoin="round"/>
<path d="M15.6676 16.332C14.9303 16.332 14.3333 15.7357 14.3333 14.9994V9.66553C14.3333 8.19324 15.5276 6.99927 17.0009 6.99927C17.3625 7.36092 17.7782 7.63192 18.2238 7.81658C18.6845 8.00691 19.1755 8.10324 19.6671 8.10357C20.1578 8.10324 20.6478 8.00691 21.1094 7.81658C21.5551 7.63192 21.9721 7.36092 22.3324 6.99927C23.8057 6.99927 25 8.19324 25 9.66553V14.9994C25 15.7357 24.403 16.332 23.667 16.332L25 19.3323H22.3324V22.9992C22.3324 23.7355 21.7364 24.3321 21.0004 24.3321C20.2631 24.3321 19.6671 23.7355 19.6671 22.9992V19.3323V22.9992C19.6671 23.7355 19.0702 24.3321 18.3328 24.3321C17.5979 24.3321 17.0009 23.7355 17.0009 22.9992V19.3323H14.3333L15.6676 16.332Z" stroke="#F27063" stroke-width="1.5" stroke-miterlimit="10" stroke-linecap="round" stroke-linejoin="round"/>
</svg>
