<svg width="375" height="18" viewBox="0 0 375 18" fill="none" xmlns="http://www.w3.org/2000/svg">
<path d="M0 0.5H375V17.1729C375 17.1729 370.5 20.7972 359.5 12.872C348.5 4.94668 332 17.1729 332 17.1729C332 17.1729 323.5 18.0001 314.5 12.872C305.5 7.74384 289 17.1729 289 17.1729C289 17.1729 280.5 18.4663 272.5 12.872C264.5 7.27765 248.5 17.1729 248.5 17.1729C248.5 17.1729 238.5 18.9325 231.5 12.872C224.5 6.81145 207 17.1729 207 17.1729C207 17.1729 200.5 20.1899 189.5 12.872C178.5 5.55401 166 17.1729 166 17.1729C166 17.1729 161.5 18.7913 153 12.872C144.5 6.95259 126 17.1729 126 17.1729C126 17.1729 119 19.3986 109.5 12.872C100 6.34526 81.5 17.1729 81.5 17.1729C81.5 17.1729 75 18.5316 68 12.872C61 7.21226 39 17.1729 39 17.1729C39 17.1729 38 18.0001 26.5 12.872C15 7.74384 0 17.1729 0 17.1729V0.5Z" fill="#F2F2F2"/>
</svg>
