<svg width="18" height="21" viewBox="0 0 18 21" fill="none" xmlns="http://www.w3.org/2000/svg">
<path d="M9.25 11.725C12.0625 11.6017 14.3125 9.2892 14.3125 6.48337C14.3125 3.58503 11.9375 1.2417 9 1.2417C6.0625 1.2417 3.6875 3.58503 3.6875 6.48337C3.6875 9.2892 5.9375 11.5709 8.75 11.725C4.3264 11.8725 0.874784 15.2073 0.58256 19.733C0.560319 20.0775 0.842322 20.3584 1.1875 20.3584C1.53268 20.3584 1.81004 20.0773 1.83453 19.733C2.11803 15.747 5.10681 12.9584 9 12.9584C12.8932 12.9584 15.882 15.747 16.1655 19.733C16.19 20.0773 16.4673 20.3584 16.8125 20.3584C17.1577 20.3584 17.4397 20.0775 17.4174 19.733C17.1252 15.2073 13.6736 11.8725 9.25 11.725ZM4.9375 6.5142C4.9375 4.2942 6.75 2.50587 9 2.50587C11.25 2.50587 13.0625 4.2942 13.0625 6.5142C13.0625 8.7342 11.25 10.5225 9 10.5225C6.75 10.5225 4.9375 8.70337 4.9375 6.5142Z" fill="black" stroke="black" stroke-width="0.6"/>
</svg>
