<svg width="27" height="27" viewBox="0 0 27 27" fill="none" xmlns="http://www.w3.org/2000/svg">
<path d="M24.1386 8.97011C23.9512 8.89639 23.7515 8.85881 23.5501 8.85937H23.529C22.4654 8.87519 21.2725 9.87134 20.6465 11.378C19.8961 13.1804 20.2415 15.0245 21.4239 15.4986C21.6111 15.5723 21.8106 15.6099 22.0118 15.6094C23.0808 15.6094 24.29 14.6074 24.9212 13.0908C25.6663 11.2883 25.3156 9.44419 24.1386 8.97011Z" stroke="black" stroke-width="2" stroke-miterlimit="10"/>
<path d="M17.2758 16.0038C15.8098 13.5712 15.177 12.6562 13.5 12.6562C11.8231 12.6562 11.185 13.577 9.71897 16.0038C8.46389 18.0795 5.92737 18.2524 5.29456 20.0153C5.16618 20.3382 5.1017 20.683 5.10472 21.0305C5.10472 22.4643 6.20159 23.625 7.55159 23.625C9.22854 23.625 11.5119 22.2861 13.5053 22.2861C15.4987 22.2861 17.7715 23.625 19.4485 23.625C20.7985 23.625 21.8901 22.4648 21.8901 21.0305C21.8913 20.6827 21.825 20.3379 21.6949 20.0153C21.0621 18.2461 18.5309 18.0795 17.2758 16.0038Z" stroke="black" stroke-width="2" stroke-miterlimit="10"/>
<path d="M10.1519 10.3359C10.2225 10.336 10.293 10.3307 10.3629 10.3201C11.5868 10.1424 12.3509 8.44646 12.0736 6.53115C11.8125 4.72552 10.7167 3.37499 9.57079 3.37499C9.50018 3.37494 9.42966 3.38022 9.35985 3.39081C8.13589 3.56853 7.37177 5.26447 7.64915 7.17978C7.91018 8.98013 9.006 10.3359 10.1519 10.3359Z" stroke="black" stroke-width="2" stroke-miterlimit="10"/>
<path d="M19.3493 7.17978C19.6267 5.26447 18.8626 3.56853 17.6386 3.39081C17.5688 3.38022 17.4983 3.37494 17.4277 3.37499C16.2818 3.37499 15.1881 4.72552 14.9265 6.53115C14.6491 8.44646 15.4132 10.1424 16.6372 10.3201C16.707 10.3307 16.7775 10.336 16.8481 10.3359C17.994 10.3359 19.0899 8.98013 19.3493 7.17978Z" stroke="black" stroke-width="2" stroke-miterlimit="10"/>
<path d="M5.57774 15.4986C6.75846 15.024 7.10334 13.1783 6.35399 11.378C5.72329 9.86133 4.51514 8.85938 3.4478 8.85938C3.24657 8.85882 3.04705 8.8964 2.85981 8.97012C1.67909 9.44473 1.33421 11.2904 2.08356 13.0908C2.71426 14.6074 3.92241 15.6094 4.98975 15.6094C5.19098 15.6099 5.3905 15.5723 5.57774 15.4986V15.4986Z" stroke="black" stroke-width="2" stroke-miterlimit="10"/>
</svg>
