<svg width="31" height="23" viewBox="0 0 31 23" fill="none" xmlns="http://www.w3.org/2000/svg">
<path d="M8.50655 8.28851C8.33198 8.48394 8.18857 8.50251 8.07094 8.71988C7.95446 8.93513 7.86325 9.34899 7.79207 9.58163C7.74402 9.73865 7.7051 9.89916 7.67369 10.0625M8.50655 8.28851C10.5052 6.05107 17.4687 8.95968 20.0092 6.81899M8.50655 8.28851C7.69255 9.26729 4.84372 5.75004 3.3906 5.27087C1.4531 5.75004 6.09067 10.5905 7.67369 10.0625M23.8618 1.17823C24.7065 0.836378 25.3139 0.909116 25.9309 1.2861C27.0219 2.01998 26.9111 3.44074 27.8912 3.44074C29.6054 3.68712 30.3171 3.95187 29.9272 5.08727C29.6782 5.81227 29.0991 6.38533 28.4086 6.71823C27.585 7.11527 26.819 7.25512 25.6042 7.31937C25.6288 7.52516 25.651 7.72346 25.6708 7.91499M23.8618 1.17823C23.8618 1.17823 25.1686 4.30289 24.5152 5.27247C23.8618 6.24206 21.2991 4.51835 21.2991 4.51835M23.8618 1.17823C22.0167 1.92489 22.1738 2.91116 21.2991 4.51835M21.2991 4.51835C21.0873 4.90744 20.8867 5.61661 20.538 6.19115M25.6708 7.91499C23.5262 7.7174 22.4034 7.33674 20.538 6.19115M25.6708 7.91499C25.7053 8.25023 25.7321 8.56474 25.7498 8.86238M20.538 6.19115C20.4568 6.32509 20.3674 6.45171 20.268 6.56525C20.1879 6.65682 20.1014 6.74123 20.0092 6.81899M20.0092 6.81899C21.9965 8.16432 23.2748 8.56289 25.7498 8.86238M25.7498 8.86238C25.8867 11.1676 25.4752 12.4608 23.8618 14.5369C22.8862 16.3525 22.588 17.54 22.4461 19.9235C23.8618 19.7085 24.5152 19.6008 24.0796 21.6472H21.4659C20.1417 19.8346 20.3309 17.7861 20.5947 14.2137C20.5947 14.2137 18.5256 14.8602 16.0208 14.5369C13.5161 14.2137 11.6647 13.2442 11.6647 13.2442C11.183 15.4748 10.453 16.4732 8.07094 17.6612C7.4482 18.4801 7.40588 19.2275 8.07094 19.9235C9.40931 19.6357 9.54605 20.532 9.26887 21.6472C8.16312 21.6472 7.86987 21.6472 6.76411 21.6472C6.78594 21.8358 4.1228 18.98 6.4374 16.7994C8.23336 15.1075 7.24099 12.3131 7.67369 10.0625" stroke="#2B5A51" stroke-width="1.3"/>
<ellipse cx="25.6896" cy="3.0052" rx="0.326707" ry="0.323194" fill="#2B5A51"/>
</svg>
