<svg width="31" height="23" viewBox="0 0 31 23" fill="none" xmlns="http://www.w3.org/2000/svg">
<path d="M8.50654 8.28851L8.02179 7.85548L8.50654 8.28851ZM20.268 6.56525L19.7789 6.13712L20.268 6.56525ZM27.8912 3.44074L27.9837 2.79735L27.9377 2.79074H27.8912V3.44074ZM25.6042 7.31937L25.5699 6.67028L24.8767 6.70695L24.9588 7.39629L25.6042 7.31937ZM23.8618 14.5369L23.3485 14.1381L23.315 14.1812L23.2892 14.2293L23.8618 14.5369ZM22.446 19.9235L21.7972 19.8849L21.7494 20.6868L22.5436 20.5662L22.446 19.9235ZM24.0796 21.6472V22.2972H24.6058L24.7154 21.7826L24.0796 21.6472ZM21.4659 21.6472L20.9411 22.0307L21.1358 22.2972H21.4659V21.6472ZM20.5947 14.2137L21.2429 14.2616L21.3133 13.3082L20.4009 13.5933L20.5947 14.2137ZM11.6647 13.2442L11.9663 12.6683L11.2096 12.2721L11.0294 13.107L11.6647 13.2442ZM8.07093 17.6612L7.78084 17.0795L7.64524 17.1471L7.55353 17.2677L8.07093 17.6612ZM8.07093 19.9235L7.60098 20.3726L7.85214 20.6354L8.20759 20.559L8.07093 19.9235ZM9.26886 21.6472V22.2972H9.77709L9.89967 21.804L9.26886 21.6472ZM6.7641 21.6472V20.9972H6.03451L6.11841 21.722L6.7641 21.6472ZM6.43739 16.7994L6.88311 17.2725L6.43739 16.7994ZM25.9309 1.2861L26.2937 0.746774L26.2819 0.738839L26.2698 0.731428L25.9309 1.2861ZM8.07093 8.71988L8.6426 9.02924L8.07093 8.71988ZM6.70657 3.34745C6.41702 3.55966 6.35433 3.96642 6.56654 4.25596C6.77875 4.54551 7.1855 4.6082 7.47505 4.39599L6.70657 3.34745ZM3.49703 1.07095L3.46643 0.421665L3.49703 1.07095ZM1.31898 6.67295L1.95887 6.55874L1.31898 6.67295ZM7.79206 9.58163L8.41361 9.77182L7.79206 9.58163ZM25.6708 7.91499L26.3173 7.84836L25.6708 7.91499ZM20.0091 6.81899L19.5903 6.32192L20.0091 6.81899ZM29.9272 5.08727L30.5419 5.2984L29.9272 5.08727ZM28.4086 6.71823L28.1263 6.13272L28.4086 6.71823ZM27.7987 4.08413C28.222 4.14496 28.5596 4.20378 28.8262 4.27199C29.0991 4.34185 29.2492 4.41003 29.3271 4.46422C29.3615 4.48814 29.3724 4.50299 29.3741 4.5055C29.3747 4.50627 29.376 4.50728 29.3779 4.51638C29.3836 4.54395 29.3915 4.6458 29.3124 4.87614L30.5419 5.2984C30.6578 4.96104 30.723 4.60402 30.6513 4.25492C30.5739 3.87782 30.3552 3.59582 30.0694 3.39702C29.8039 3.21231 29.4789 3.09715 29.1485 3.01258C28.8117 2.92638 28.4175 2.85971 27.9837 2.79735L27.7987 4.08413ZM28.1263 6.13272C27.413 6.47659 26.7443 6.60817 25.5699 6.67028L25.6386 7.96847C26.8937 7.90208 27.757 7.75394 28.6908 7.30373L28.1263 6.13272ZM23.2892 14.2293C22.2605 16.1438 21.9436 17.4269 21.7972 19.8849L23.0949 19.9622C23.2324 17.653 23.5119 16.5613 24.4344 14.8446L23.2892 14.2293ZM22.5436 20.5662C22.912 20.5102 23.1747 20.4708 23.3812 20.464C23.5996 20.4568 23.6189 20.4942 23.582 20.4682C23.5094 20.4169 23.5459 20.3698 23.5593 20.5366C23.5737 20.7153 23.5489 21.0182 23.4438 21.5119L24.7154 21.7826C24.8281 21.2531 24.8849 20.802 24.8551 20.4321C24.8243 20.0502 24.6906 19.6598 24.3322 19.4065C24.0094 19.1784 23.6271 19.1552 23.3384 19.1647C23.0378 19.1746 22.688 19.2293 22.3484 19.2809L22.5436 20.5662ZM24.0796 20.9972H21.4659V22.2972H24.0796V20.9972ZM21.9908 21.2638C21.4183 20.4801 21.162 19.6412 21.0831 18.5438C21.0021 17.4174 21.1095 16.0691 21.2429 14.2616L19.9465 14.1659C19.8161 15.9307 19.697 17.393 19.7865 18.637C19.878 19.9101 20.1893 21.0017 20.9411 22.0307L21.9908 21.2638ZM11.0294 13.107C10.7978 14.1793 10.5228 14.8742 10.0725 15.4381C9.61822 16.0071 8.93781 16.5025 7.78084 17.0795L8.36102 18.2428C9.58614 17.6319 10.4618 17.0341 11.0884 16.2492C11.7191 15.4593 12.0499 14.5397 12.3001 13.3814L11.0294 13.107ZM7.55353 17.2677C7.19433 17.7401 6.94601 18.2642 6.93807 18.8293C6.92986 19.4129 7.17898 19.9309 7.60098 20.3726L8.54089 19.4745C8.29783 19.2201 8.23557 19.0164 8.23794 18.8476C8.24058 18.6602 8.32479 18.4012 8.58834 18.0546L7.55353 17.2677ZM8.20759 20.559C8.48197 20.5 8.61851 20.5197 8.66924 20.5354C8.69557 20.5436 8.69145 20.5443 8.69655 20.5543C8.71306 20.5867 8.74093 20.6749 8.73699 20.8525C8.73316 21.0248 8.70042 21.2395 8.63805 21.4904L9.89967 21.804C9.9759 21.4973 10.03 21.1818 10.0367 20.8814C10.0432 20.5863 10.0052 20.2593 9.8549 19.9642C9.69317 19.6467 9.42124 19.4075 9.05418 19.2938C8.71152 19.1875 8.32908 19.2031 7.93428 19.288L8.20759 20.559ZM9.26886 20.9972C9.2667 20.9972 9.26455 20.9972 9.26239 20.9972C9.26024 20.9972 9.25809 20.9972 9.25594 20.9972C9.25379 20.9972 9.25165 20.9972 9.24951 20.9972C9.24737 20.9972 9.24523 20.9972 9.24309 20.9972C9.24096 20.9972 9.23883 20.9972 9.2367 20.9972C9.23457 20.9972 9.23244 20.9972 9.23032 20.9972C9.2282 20.9972 9.22608 20.9972 9.22396 20.9972C9.22184 20.9972 9.21973 20.9972 9.21762 20.9972C9.21551 20.9972 9.2134 20.9972 9.2113 20.9972C9.20919 20.9972 9.20709 20.9972 9.20499 20.9972C9.20289 20.9972 9.20079 20.9972 9.1987 20.9972C9.19661 20.9972 9.19452 20.9972 9.19243 20.9972C9.19034 20.9972 9.18826 20.9972 9.18618 20.9972C9.1841 20.9972 9.18202 20.9972 9.17994 20.9972C9.17787 20.9972 9.1758 20.9972 9.17373 20.9972C9.17166 20.9972 9.16959 20.9972 9.16753 20.9972C9.16546 20.9972 9.1634 20.9972 9.16135 20.9972C9.15929 20.9972 9.15723 20.9972 9.15518 20.9972C9.15313 20.9972 9.15108 20.9972 9.14903 20.9972C9.14699 20.9972 9.14494 20.9972 9.1429 20.9972C9.14086 20.9972 9.13883 20.9972 9.13679 20.9972C9.13476 20.9972 9.13272 20.9972 9.13069 20.9972C9.12866 20.9972 9.12664 20.9972 9.12462 20.9972C9.12259 20.9972 9.12057 20.9972 9.11855 20.9972C9.11654 20.9972 9.11452 20.9972 9.11251 20.9972C9.1105 20.9972 9.10849 20.9972 9.10648 20.9972C9.10447 20.9972 9.10247 20.9972 9.10047 20.9972C9.09847 20.9972 9.09647 20.9972 9.09447 20.9972C9.09248 20.9972 9.09048 20.9972 9.08849 20.9972C9.0865 20.9972 9.08452 20.9972 9.08253 20.9972C9.08055 20.9972 9.07857 20.9972 9.07659 20.9972C9.07461 20.9972 9.07263 20.9972 9.07066 20.9972C9.06868 20.9972 9.06671 20.9972 9.06474 20.9972C9.06278 20.9972 9.06081 20.9972 9.05885 20.9972C9.05688 20.9972 9.05492 20.9972 9.05297 20.9972C9.05101 20.9972 9.04905 20.9972 9.0471 20.9972C9.04515 20.9972 9.0432 20.9972 9.04125 20.9972C9.03931 20.9972 9.03736 20.9972 9.03542 20.9972C9.03348 20.9972 9.03154 20.9972 9.0296 20.9972C9.02767 20.9972 9.02573 20.9972 9.0238 20.9972C9.02187 20.9972 9.01994 20.9972 9.01802 20.9972C9.01609 20.9972 9.01417 20.9972 9.01225 20.9972C9.01033 20.9972 9.00841 20.9972 9.00649 20.9972C9.00458 20.9972 9.00266 20.9972 9.00075 20.9972C8.99884 20.9972 8.99694 20.9972 8.99503 20.9972C8.99313 20.9972 8.99122 20.9972 8.98932 20.9972C8.98742 20.9972 8.98553 20.9972 8.98363 20.9972C8.98174 20.9972 8.97984 20.9972 8.97795 20.9972C8.97606 20.9972 8.97417 20.9972 8.97229 20.9972C8.9704 20.9972 8.96852 20.9972 8.96664 20.9972C8.96476 20.9972 8.96288 20.9972 8.96101 20.9972C8.95914 20.9972 8.95726 20.9972 8.95539 20.9972C8.95352 20.9972 8.95165 20.9972 8.94979 20.9972C8.94792 20.9972 8.94606 20.9972 8.9442 20.9972C8.94234 20.9972 8.94048 20.9972 8.93863 20.9972C8.93677 20.9972 8.93492 20.9972 8.93307 20.9972C8.93122 20.9972 8.92937 20.9972 8.92753 20.9972C8.92568 20.9972 8.92384 20.9972 8.922 20.9972C8.92015 20.9972 8.91832 20.9972 8.91648 20.9972C8.91464 20.9972 8.91281 20.9972 8.91098 20.9972C8.90915 20.9972 8.90732 20.9972 8.90549 20.9972C8.90367 20.9972 8.90184 20.9972 8.90002 20.9972C8.8982 20.9972 8.89638 20.9972 8.89456 20.9972C8.89274 20.9972 8.89093 20.9972 8.88912 20.9972C8.8873 20.9972 8.88549 20.9972 8.88369 20.9972C8.88188 20.9972 8.88007 20.9972 8.87827 20.9972C8.87646 20.9972 8.87466 20.9972 8.87287 20.9972C8.87107 20.9972 8.86927 20.9972 8.86748 20.9972C8.86568 20.9972 8.86389 20.9972 8.8621 20.9972C8.86031 20.9972 8.85852 20.9972 8.85674 20.9972C8.85495 20.9972 8.85317 20.9972 8.85139 20.9972C8.84961 20.9972 8.84783 20.9972 8.84606 20.9972C8.84428 20.9972 8.8425 20.9972 8.84073 20.9972C8.83896 20.9972 8.83719 20.9972 8.83542 20.9972C8.83366 20.9972 8.83189 20.9972 8.83013 20.9972C8.82837 20.9972 8.82661 20.9972 8.82485 20.9972C8.82309 20.9972 8.82133 20.9972 8.81958 20.9972C8.81782 20.9972 8.81607 20.9972 8.81432 20.9972C8.81257 20.9972 8.81083 20.9972 8.80908 20.9972C8.80733 20.9972 8.80559 20.9972 8.80385 20.9972C8.80211 20.9972 8.80037 20.9972 8.79863 20.9972C8.7969 20.9972 8.79516 20.9972 8.79343 20.9972C8.79169 20.9972 8.78996 20.9972 8.78824 20.9972C8.78651 20.9972 8.78478 20.9972 8.78306 20.9972C8.78133 20.9972 8.77961 20.9972 8.77789 20.9972C8.77617 20.9972 8.77445 20.9972 8.77273 20.9972C8.77102 20.9972 8.7693 20.9972 8.76759 20.9972C8.76588 20.9972 8.76417 20.9972 8.76246 20.9972C8.76075 20.9972 8.75905 20.9972 8.75734 20.9972C8.75564 20.9972 8.75394 20.9972 8.75224 20.9972C8.75054 20.9972 8.74884 20.9972 8.74715 20.9972C8.74545 20.9972 8.74376 20.9972 8.74206 20.9972C8.74037 20.9972 8.73868 20.9972 8.73699 20.9972C8.73531 20.9972 8.73362 20.9972 8.73194 20.9972C8.73025 20.9972 8.72857 20.9972 8.72689 20.9972C8.72521 20.9972 8.72353 20.9972 8.72186 20.9972C8.72018 20.9972 8.71851 20.9972 8.71683 20.9972C8.71516 20.9972 8.71349 20.9972 8.71182 20.9972C8.71015 20.9972 8.70849 20.9972 8.70682 20.9972C8.70516 20.9972 8.7035 20.9972 8.70183 20.9972C8.70017 20.9972 8.69851 20.9972 8.69686 20.9972C8.6952 20.9972 8.69355 20.9972 8.69189 20.9972C8.69024 20.9972 8.68859 20.9972 8.68694 20.9972C8.68529 20.9972 8.68364 20.9972 8.68199 20.9972C8.68035 20.9972 8.6787 20.9972 8.67706 20.9972C8.67542 20.9972 8.67378 20.9972 8.67214 20.9972C8.6705 20.9972 8.66887 20.9972 8.66723 20.9972C8.6656 20.9972 8.66396 20.9972 8.66233 20.9972C8.6607 20.9972 8.65907 20.9972 8.65744 20.9972C8.65581 20.9972 8.65419 20.9972 8.65256 20.9972C8.65094 20.9972 8.64932 20.9972 8.6477 20.9972C8.64607 20.9972 8.64446 20.9972 8.64284 20.9972C8.64122 20.9972 8.63961 20.9972 8.63799 20.9972C8.63638 20.9972 8.63477 20.9972 8.63316 20.9972C8.63155 20.9972 8.62994 20.9972 8.62833 20.9972C8.62672 20.9972 8.62512 20.9972 8.62351 20.9972C8.62191 20.9972 8.62031 20.9972 8.61871 20.9972C8.61711 20.9972 8.61551 20.9972 8.61391 20.9972C8.61232 20.9972 8.61072 20.9972 8.60913 20.9972C8.60753 20.9972 8.60594 20.9972 8.60435 20.9972C8.60276 20.9972 8.60117 20.9972 8.59959 20.9972C8.598 20.9972 8.59642 20.9972 8.59483 20.9972C8.59325 20.9972 8.59167 20.9972 8.59009 20.9972C8.58851 20.9972 8.58693 20.9972 8.58535 20.9972C8.58377 20.9972 8.5822 20.9972 8.58062 20.9972C8.57905 20.9972 8.57748 20.9972 8.57591 20.9972C8.57433 20.9972 8.57276 20.9972 8.5712 20.9972C8.56963 20.9972 8.56806 20.9972 8.5665 20.9972C8.56493 20.9972 8.56337 20.9972 8.56181 20.9972C8.56025 20.9972 8.55869 20.9972 8.55713 20.9972C8.55557 20.9972 8.55401 20.9972 8.55246 20.9972C8.5509 20.9972 8.54935 20.9972 8.5478 20.9972C8.54625 20.9972 8.54469 20.9972 8.54315 20.9972C8.5416 20.9972 8.54005 20.9972 8.5385 20.9972C8.53695 20.9972 8.53541 20.9972 8.53387 20.9972C8.53232 20.9972 8.53078 20.9972 8.52924 20.9972C8.5277 20.9972 8.52616 20.9972 8.52462 20.9972C8.52309 20.9972 8.52155 20.9972 8.52001 20.9972C8.51848 20.9972 8.51695 20.9972 8.51541 20.9972C8.51388 20.9972 8.51235 20.9972 8.51082 20.9972C8.50929 20.9972 8.50777 20.9972 8.50624 20.9972C8.50471 20.9972 8.50319 20.9972 8.50166 20.9972C8.50014 20.9972 8.49862 20.9972 8.4971 20.9972C8.49558 20.9972 8.49406 20.9972 8.49254 20.9972C8.49102 20.9972 8.4895 20.9972 8.48799 20.9972C8.48647 20.9972 8.48496 20.9972 8.48345 20.9972C8.48193 20.9972 8.48042 20.9972 8.47891 20.9972C8.4774 20.9972 8.47589 20.9972 8.47439 20.9972C8.47288 20.9972 8.47137 20.9972 8.46987 20.9972C8.46836 20.9972 8.46686 20.9972 8.46536 20.9972C8.46386 20.9972 8.46235 20.9972 8.46086 20.9972C8.45936 20.9972 8.45786 20.9972 8.45636 20.9972C8.45486 20.9972 8.45337 20.9972 8.45187 20.9972C8.45038 20.9972 8.44888 20.9972 8.44739 20.9972C8.4459 20.9972 8.44441 20.9972 8.44292 20.9972C8.44143 20.9972 8.43994 20.9972 8.43845 20.9972C8.43697 20.9972 8.43548 20.9972 8.434 20.9972C8.43251 20.9972 8.43103 20.9972 8.42954 20.9972C8.42806 20.9972 8.42658 20.9972 8.4251 20.9972C8.42362 20.9972 8.42214 20.9972 8.42066 20.9972C8.41919 20.9972 8.41771 20.9972 8.41623 20.9972C8.41476 20.9972 8.41328 20.9972 8.41181 20.9972C8.41034 20.9972 8.40886 20.9972 8.40739 20.9972C8.40592 20.9972 8.40445 20.9972 8.40298 20.9972C8.40152 20.9972 8.40005 20.9972 8.39858 20.9972C8.39712 20.9972 8.39565 20.9972 8.39419 20.9972C8.39272 20.9972 8.39126 20.9972 8.3898 20.9972C8.38833 20.9972 8.38687 20.9972 8.38541 20.9972C8.38395 20.9972 8.38249 20.9972 8.38104 20.9972C8.37958 20.9972 8.37812 20.9972 8.37667 20.9972C8.37521 20.9972 8.37376 20.9972 8.3723 20.9972C8.37085 20.9972 8.3694 20.9972 8.36794 20.9972C8.36649 20.9972 8.36504 20.9972 8.36359 20.9972C8.36214 20.9972 8.36069 20.9972 8.35925 20.9972C8.3578 20.9972 8.35635 20.9972 8.35491 20.9972C8.35346 20.9972 8.35202 20.9972 8.35057 20.9972C8.34913 20.9972 8.34769 20.9972 8.34624 20.9972C8.3448 20.9972 8.34336 20.9972 8.34192 20.9972C8.34048 20.9972 8.33904 20.9972 8.3376 20.9972C8.33617 20.9972 8.33473 20.9972 8.33329 20.9972C8.33186 20.9972 8.33042 20.9972 8.32899 20.9972C8.32755 20.9972 8.32612 20.9972 8.32469 20.9972C8.32326 20.9972 8.32182 20.9972 8.32039 20.9972C8.31896 20.9972 8.31753 20.9972 8.3161 20.9972C8.31467 20.9972 8.31325 20.9972 8.31182 20.9972C8.31039 20.9972 8.30897 20.9972 8.30754 20.9972C8.30611 20.9972 8.30469 20.9972 8.30327 20.9972C8.30184 20.9972 8.30042 20.9972 8.299 20.9972C8.29757 20.9972 8.29615 20.9972 8.29473 20.9972C8.29331 20.9972 8.29189 20.9972 8.29047 20.9972C8.28905 20.9972 8.28764 20.9972 8.28622 20.9972C8.2848 20.9972 8.28338 20.9972 8.28197 20.9972C8.28055 20.9972 8.27914 20.9972 8.27772 20.9972C8.27631 20.9972 8.2749 20.9972 8.27348 20.9972C8.27207 20.9972 8.27066 20.9972 8.26925 20.9972C8.26784 20.9972 8.26643 20.9972 8.26502 20.9972C8.26361 20.9972 8.2622 20.9972 8.26079 20.9972C8.25938 20.9972 8.25797 20.9972 8.25657 20.9972C8.25516 20.9972 8.25375 20.9972 8.25235 20.9972C8.25094 20.9972 8.24954 20.9972 8.24813 20.9972C8.24673 20.9972 8.24532 20.9972 8.24392 20.9972C8.24252 20.9972 8.24112 20.9972 8.23971 20.9972C8.23831 20.9972 8.23691 20.9972 8.23551 20.9972C8.23411 20.9972 8.23271 20.9972 8.23131 20.9972C8.22991 20.9972 8.22852 20.9972 8.22712 20.9972C8.22572 20.9972 8.22432 20.9972 8.22293 20.9972C8.22153 20.9972 8.22013 20.9972 8.21874 20.9972C8.21734 20.9972 8.21595 20.9972 8.21456 20.9972C8.21316 20.9972 8.21177 20.9972 8.21037 20.9972C8.20898 20.9972 8.20759 20.9972 8.2062 20.9972C8.20481 20.9972 8.20341 20.9972 8.20202 20.9972C8.20063 20.9972 8.19924 20.9972 8.19785 20.9972C8.19646 20.9972 8.19507 20.9972 8.19369 20.9972C8.1923 20.9972 8.19091 20.9972 8.18952 20.9972C8.18813 20.9972 8.18675 20.9972 8.18536 20.9972C8.18397 20.9972 8.18259 20.9972 8.1812 20.9972C8.17982 20.9972 8.17843 20.9972 8.17705 20.9972C8.17566 20.9972 8.17428 20.9972 8.17289 20.9972C8.17151 20.9972 8.17013 20.9972 8.16874 20.9972C8.16736 20.9972 8.16598 20.9972 8.1646 20.9972C8.16322 20.9972 8.16183 20.9972 8.16045 20.9972C8.15907 20.9972 8.15769 20.9972 8.15631 20.9972C8.15493 20.9972 8.15355 20.9972 8.15217 20.9972C8.15079 20.9972 8.14941 20.9972 8.14803 20.9972C8.14666 20.9972 8.14528 20.9972 8.1439 20.9972C8.14252 20.9972 8.14114 20.9972 8.13977 20.9972C8.13839 20.9972 8.13701 20.9972 8.13564 20.9972C8.13426 20.9972 8.13288 20.9972 8.13151 20.9972C8.13013 20.9972 8.12876 20.9972 8.12738 20.9972C8.12601 20.9972 8.12463 20.9972 8.12326 20.9972C8.12188 20.9972 8.12051 20.9972 8.11914 20.9972C8.11776 20.9972 8.11639 20.9972 8.11502 20.9972C8.11364 20.9972 8.11227 20.9972 8.1109 20.9972C8.10952 20.9972 8.10815 20.9972 8.10678 20.9972C8.10541 20.9972 8.10404 20.9972 8.10266 20.9972C8.10129 20.9972 8.09992 20.9972 8.09855 20.9972C8.09718 20.9972 8.09581 20.9972 8.09444 20.9972C8.09307 20.9972 8.0917 20.9972 8.09033 20.9972C8.08896 20.9972 8.08759 20.9972 8.08622 20.9972C8.08485 20.9972 8.08348 20.9972 8.08211 20.9972C8.08074 20.9972 8.07937 20.9972 8.078 20.9972C8.07663 20.9972 8.07526 20.9972 8.0739 20.9972C8.07253 20.9972 8.07116 20.9972 8.06979 20.9972C8.06842 20.9972 8.06705 20.9972 8.06569 20.9972C8.06432 20.9972 8.06295 20.9972 8.06158 20.9972C8.06021 20.9972 8.05885 20.9972 8.05748 20.9972C8.05611 20.9972 8.05475 20.9972 8.05338 20.9972C8.05201 20.9972 8.05064 20.9972 8.04928 20.9972C8.04791 20.9972 8.04654 20.9972 8.04518 20.9972C8.04381 20.9972 8.04244 20.9972 8.04108 20.9972C8.03971 20.9972 8.03834 20.9972 8.03698 20.9972C8.03561 20.9972 8.03424 20.9972 8.03288 20.9972C8.03151 20.9972 8.03014 20.9972 8.02878 20.9972C8.02741 20.9972 8.02604 20.9972 8.02468 20.9972C8.02331 20.9972 8.02195 20.9972 8.02058 20.9972C8.01921 20.9972 8.01785 20.9972 8.01648 20.9972C8.01512 20.9972 8.01375 20.9972 8.01238 20.9972C8.01102 20.9972 8.00965 20.9972 8.00828 20.9972C8.00692 20.9972 8.00555 20.9972 8.00419 20.9972C8.00282 20.9972 8.00145 20.9972 8.00009 20.9972C7.99872 20.9972 7.99735 20.9972 7.99599 20.9972C7.99462 20.9972 7.99325 20.9972 7.99189 20.9972C7.99052 20.9972 7.98915 20.9972 7.98779 20.9972C7.98642 20.9972 7.98505 20.9972 7.98369 20.9972C7.98232 20.9972 7.98095 20.9972 7.97958 20.9972C7.97822 20.9972 7.97685 20.9972 7.97548 20.9972C7.97412 20.9972 7.97275 20.9972 7.97138 20.9972C7.97001 20.9972 7.96864 20.9972 7.96728 20.9972C7.96591 20.9972 7.96454 20.9972 7.96317 20.9972C7.9618 20.9972 7.96044 20.9972 7.95907 20.9972C7.9577 20.9972 7.95633 20.9972 7.95496 20.9972C7.95359 20.9972 7.95222 20.9972 7.95085 20.9972C7.94948 20.9972 7.94811 20.9972 7.94674 20.9972C7.94537 20.9972 7.94401 20.9972 7.94264 20.9972C7.94127 20.9972 7.93989 20.9972 7.93852 20.9972C7.93715 20.9972 7.93578 20.9972 7.93441 20.9972C7.93304 20.9972 7.93167 20.9972 7.9303 20.9972C7.92893 20.9972 7.92755 20.9972 7.92618 20.9972C7.92481 20.9972 7.92344 20.9972 7.92207 20.9972C7.92069 20.9972 7.91932 20.9972 7.91795 20.9972C7.91657 20.9972 7.9152 20.9972 7.91383 20.9972C7.91245 20.9972 7.91108 20.9972 7.9097 20.9972C7.90833 20.9972 7.90695 20.9972 7.90558 20.9972C7.9042 20.9972 7.90283 20.9972 7.90145 20.9972C7.90008 20.9972 7.8987 20.9972 7.89733 20.9972C7.89595 20.9972 7.89457 20.9972 7.8932 20.9972C7.89182 20.9972 7.89044 20.9972 7.88906 20.9972C7.88768 20.9972 7.88631 20.9972 7.88493 20.9972C7.88355 20.9972 7.88217 20.9972 7.88079 20.9972C7.87941 20.9972 7.87803 20.9972 7.87665 20.9972C7.87527 20.9972 7.87389 20.9972 7.87251 20.9972C7.87113 20.9972 7.86975 20.9972 7.86837 20.9972C7.86698 20.9972 7.8656 20.9972 7.86422 20.9972C7.86284 20.9972 7.86145 20.9972 7.86007 20.9972C7.85868 20.9972 7.8573 20.9972 7.85592 20.9972C7.85453 20.9972 7.85315 20.9972 7.85176 20.9972C7.85038 20.9972 7.84899 20.9972 7.8476 20.9972C7.84622 20.9972 7.84483 20.9972 7.84344 20.9972C7.84205 20.9972 7.84067 20.9972 7.83928 20.9972C7.83789 20.9972 7.8365 20.9972 7.83511 20.9972C7.83372 20.9972 7.83233 20.9972 7.83094 20.9972C7.82955 20.9972 7.82816 20.9972 7.82677 20.9972C7.82537 20.9972 7.82398 20.9972 7.82259 20.9972C7.8212 20.9972 7.8198 20.9972 7.81841 20.9972C7.81701 20.9972 7.81562 20.9972 7.81422 20.9972C7.81283 20.9972 7.81143 20.9972 7.81004 20.9972C7.80864 20.9972 7.80724 20.9972 7.80584 20.9972C7.80445 20.9972 7.80305 20.9972 7.80165 20.9972C7.80025 20.9972 7.79885 20.9972 7.79745 20.9972C7.79605 20.9972 7.79465 20.9972 7.79325 20.9972C7.79185 20.9972 7.79044 20.9972 7.78904 20.9972C7.78764 20.9972 7.78624 20.9972 7.78483 20.9972C7.78343 20.9972 7.78202 20.9972 7.78062 20.9972C7.77921 20.9972 7.7778 20.9972 7.7764 20.9972C7.77499 20.9972 7.77358 20.9972 7.77217 20.9972C7.77077 20.9972 7.76936 20.9972 7.76795 20.9972C7.76654 20.9972 7.76513 20.9972 7.76372 20.9972C7.7623 20.9972 7.76089 20.9972 7.75948 20.9972C7.75807 20.9972 7.75665 20.9972 7.75524 20.9972C7.75383 20.9972 7.75241 20.9972 7.75099 20.9972C7.74958 20.9972 7.74816 20.9972 7.74674 20.9972C7.74533 20.9972 7.74391 20.9972 7.74249 20.9972C7.74107 20.9972 7.73965 20.9972 7.73823 20.9972C7.73681 20.9972 7.73539 20.9972 7.73397 20.9972C7.73254 20.9972 7.73112 20.9972 7.7297 20.9972C7.72827 20.9972 7.72685 20.9972 7.72542 20.9972C7.724 20.9972 7.72257 20.9972 7.72114 20.9972C7.71972 20.9972 7.71829 20.9972 7.71686 20.9972C7.71543 20.9972 7.714 20.9972 7.71257 20.9972C7.71114 20.9972 7.70971 20.9972 7.70828 20.9972C7.70684 20.9972 7.70541 20.9972 7.70398 20.9972C7.70254 20.9972 7.70111 20.9972 7.69967 20.9972C7.69823 20.9972 7.6968 20.9972 7.69536 20.9972C7.69392 20.9972 7.69248 20.9972 7.69104 20.9972C7.6896 20.9972 7.68816 20.9972 7.68672 20.9972C7.68528 20.9972 7.68383 20.9972 7.68239 20.9972C7.68095 20.9972 7.6795 20.9972 7.67806 20.9972C7.67661 20.9972 7.67516 20.9972 7.67372 20.9972C7.67227 20.9972 7.67082 20.9972 7.66937 20.9972C7.66792 20.9972 7.66647 20.9972 7.66502 20.9972C7.66357 20.9972 7.66211 20.9972 7.66066 20.9972C7.65921 20.9972 7.65775 20.9972 7.6563 20.9972C7.65484 20.9972 7.65338 20.9972 7.65193 20.9972C7.65047 20.9972 7.64901 20.9972 7.64755 20.9972C7.64609 20.9972 7.64463 20.9972 7.64317 20.9972C7.6417 20.9972 7.64024 20.9972 7.63878 20.9972C7.63731 20.9972 7.63585 20.9972 7.63438 20.9972C7.63291 20.9972 7.63145 20.9972 7.62998 20.9972C7.62851 20.9972 7.62704 20.9972 7.62557 20.9972C7.6241 20.9972 7.62263 20.9972 7.62115 20.9972C7.61968 20.9972 7.61821 20.9972 7.61673 20.9972C7.61525 20.9972 7.61378 20.9972 7.6123 20.9972C7.61082 20.9972 7.60934 20.9972 7.60786 20.9972C7.60638 20.9972 7.6049 20.9972 7.60342 20.9972C7.60194 20.9972 7.60045 20.9972 7.59897 20.9972C7.59748 20.9972 7.596 20.9972 7.59451 20.9972C7.59302 20.9972 7.59153 20.9972 7.59004 20.9972C7.58855 20.9972 7.58706 20.9972 7.58557 20.9972C7.58408 20.9972 7.58259 20.9972 7.58109 20.9972C7.5796 20.9972 7.5781 20.9972 7.5766 20.9972C7.57511 20.9972 7.57361 20.9972 7.57211 20.9972C7.57061 20.9972 7.56911 20.9972 7.56761 20.9972C7.5661 20.9972 7.5646 20.9972 7.56309 20.9972C7.56159 20.9972 7.56008 20.9972 7.55858 20.9972C7.55707 20.9972 7.55556 20.9972 7.55405 20.9972C7.55254 20.9972 7.55103 20.9972 7.54952 20.9972C7.548 20.9972 7.54649 20.9972 7.54497 20.9972C7.54346 20.9972 7.54194 20.9972 7.54042 20.9972C7.53891 20.9972 7.53739 20.9972 7.53586 20.9972C7.53434 20.9972 7.53282 20.9972 7.5313 20.9972C7.52977 20.9972 7.52825 20.9972 7.52672 20.9972C7.5252 20.9972 7.52367 20.9972 7.52214 20.9972C7.52061 20.9972 7.51908 20.9972 7.51755 20.9972C7.51602 20.9972 7.51448 20.9972 7.51295 20.9972C7.51141 20.9972 7.50988 20.9972 7.50834 20.9972C7.5068 20.9972 7.50526 20.9972 7.50372 20.9972C7.50218 20.9972 7.50064 20.9972 7.4991 20.9972C7.49755 20.9972 7.49601 20.9972 7.49446 20.9972C7.49292 20.9972 7.49137 20.9972 7.48982 20.9972C7.48827 20.9972 7.48672 20.9972 7.48517 20.9972C7.48361 20.9972 7.48206 20.9972 7.4805 20.9972C7.47895 20.9972 7.47739 20.9972 7.47583 20.9972C7.47427 20.9972 7.47271 20.9972 7.47115 20.9972C7.46959 20.9972 7.46803 20.9972 7.46646 20.9972C7.4649 20.9972 7.46333 20.9972 7.46177 20.9972C7.4602 20.9972 7.45863 20.9972 7.45706 20.9972C7.45549 20.9972 7.45391 20.9972 7.45234 20.9972C7.45077 20.9972 7.44919 20.9972 7.44761 20.9972C7.44604 20.9972 7.44446 20.9972 7.44288 20.9972C7.4413 20.9972 7.43971 20.9972 7.43813 20.9972C7.43655 20.9972 7.43496 20.9972 7.43338 20.9972C7.43179 20.9972 7.4302 20.9972 7.42861 20.9972C7.42702 20.9972 7.42543 20.9972 7.42383 20.9972C7.42224 20.9972 7.42065 20.9972 7.41905 20.9972C7.41745 20.9972 7.41585 20.9972 7.41425 20.9972C7.41265 20.9972 7.41105 20.9972 7.40945 20.9972C7.40785 20.9972 7.40624 20.9972 7.40463 20.9972C7.40303 20.9972 7.40142 20.9972 7.39981 20.9972C7.3982 20.9972 7.39658 20.9972 7.39497 20.9972C7.39336 20.9972 7.39174 20.9972 7.39012 20.9972C7.38851 20.9972 7.38689 20.9972 7.38527 20.9972C7.38365 20.9972 7.38202 20.9972 7.3804 20.9972C7.37878 20.9972 7.37715 20.9972 7.37552 20.9972C7.37389 20.9972 7.37226 20.9972 7.37063 20.9972C7.369 20.9972 7.36737 20.9972 7.36573 20.9972C7.3641 20.9972 7.36246 20.9972 7.36082 20.9972C7.35918 20.9972 7.35754 20.9972 7.3559 20.9972C7.35426 20.9972 7.35261 20.9972 7.35097 20.9972C7.34932 20.9972 7.34767 20.9972 7.34602 20.9972C7.34438 20.9972 7.34272 20.9972 7.34107 20.9972C7.33942 20.9972 7.33776 20.9972 7.3361 20.9972C7.33445 20.9972 7.33279 20.9972 7.33113 20.9972C7.32947 20.9972 7.3278 20.9972 7.32614 20.9972C7.32448 20.9972 7.32281 20.9972 7.32114 20.9972C7.31947 20.9972 7.3178 20.9972 7.31613 20.9972C7.31446 20.9972 7.31278 20.9972 7.31111 20.9972C7.30943 20.9972 7.30775 20.9972 7.30607 20.9972C7.30439 20.9972 7.30271 20.9972 7.30103 20.9972C7.29934 20.9972 7.29766 20.9972 7.29597 20.9972C7.29428 20.9972 7.29259 20.9972 7.2909 20.9972C7.28921 20.9972 7.28751 20.9972 7.28582 20.9972C7.28412 20.9972 7.28242 20.9972 7.28072 20.9972C7.27902 20.9972 7.27732 20.9972 7.27562 20.9972C7.27391 20.9972 7.27221 20.9972 7.2705 20.9972C7.26879 20.9972 7.26708 20.9972 7.26537 20.9972C7.26366 20.9972 7.26194 20.9972 7.26023 20.9972C7.25851 20.9972 7.25679 20.9972 7.25507 20.9972C7.25335 20.9972 7.25163 20.9972 7.24991 20.9972C7.24818 20.9972 7.24646 20.9972 7.24473 20.9972C7.243 20.9972 7.24127 20.9972 7.23954 20.9972C7.2378 20.9972 7.23607 20.9972 7.23433 20.9972C7.23259 20.9972 7.23085 20.9972 7.22911 20.9972C7.22737 20.9972 7.22563 20.9972 7.22388 20.9972C7.22214 20.9972 7.22039 20.9972 7.21864 20.9972C7.21689 20.9972 7.21514 20.9972 7.21338 20.9972C7.21163 20.9972 7.20987 20.9972 7.20812 20.9972C7.20636 20.9972 7.2046 20.9972 7.20283 20.9972C7.20107 20.9972 7.19931 20.9972 7.19754 20.9972C7.19577 20.9972 7.194 20.9972 7.19223 20.9972C7.19046 20.9972 7.18868 20.9972 7.18691 20.9972C7.18513 20.9972 7.18335 20.9972 7.18157 20.9972C7.17979 20.9972 7.17801 20.9972 7.17622 20.9972C7.17444 20.9972 7.17265 20.9972 7.17086 20.9972C7.16907 20.9972 7.16728 20.9972 7.16549 20.9972C7.16369 20.9972 7.1619 20.9972 7.1601 20.9972C7.1583 20.9972 7.1565 20.9972 7.15469 20.9972C7.15289 20.9972 7.15109 20.9972 7.14928 20.9972C7.14747 20.9972 7.14566 20.9972 7.14385 20.9972C7.14203 20.9972 7.14022 20.9972 7.1384 20.9972C7.13659 20.9972 7.13477 20.9972 7.13294 20.9972C7.13112 20.9972 7.1293 20.9972 7.12747 20.9972C7.12564 20.9972 7.12382 20.9972 7.12198 20.9972C7.12015 20.9972 7.11832 20.9972 7.11648 20.9972C7.11465 20.9972 7.11281 20.9972 7.11097 20.9972C7.10913 20.9972 7.10728 20.9972 7.10544 20.9972C7.10359 20.9972 7.10174 20.9972 7.09989 20.9972C7.09804 20.9972 7.09619 20.9972 7.09433 20.9972C7.09248 20.9972 7.09062 20.9972 7.08876 20.9972C7.0869 20.9972 7.08504 20.9972 7.08317 20.9972C7.08131 20.9972 7.07944 20.9972 7.07757 20.9972C7.0757 20.9972 7.07383 20.9972 7.07195 20.9972C7.07008 20.9972 7.0682 20.9972 7.06632 20.9972C7.06444 20.9972 7.06256 20.9972 7.06067 20.9972C7.05879 20.9972 7.0569 20.9972 7.05501 20.9972C7.05312 20.9972 7.05123 20.9972 7.04933 20.9972C7.04744 20.9972 7.04554 20.9972 7.04364 20.9972C7.04174 20.9972 7.03984 20.9972 7.03793 20.9972C7.03603 20.9972 7.03412 20.9972 7.03221 20.9972C7.0303 20.9972 7.02839 20.9972 7.02647 20.9972C7.02455 20.9972 7.02264 20.9972 7.02072 20.9972C7.01879 20.9972 7.01687 20.9972 7.01495 20.9972C7.01302 20.9972 7.01109 20.9972 7.00916 20.9972C7.00723 20.9972 7.0053 20.9972 7.00336 20.9972C7.00142 20.9972 6.99948 20.9972 6.99754 20.9972C6.9956 20.9972 6.99366 20.9972 6.99171 20.9972C6.98976 20.9972 6.98781 20.9972 6.98586 20.9972C6.98391 20.9972 6.98195 20.9972 6.98 20.9972C6.97804 20.9972 6.97608 20.9972 6.97412 20.9972C6.97215 20.9972 6.97019 20.9972 6.96822 20.9972C6.96625 20.9972 6.96428 20.9972 6.96231 20.9972C6.96033 20.9972 6.95836 20.9972 6.95638 20.9972C6.9544 20.9972 6.95241 20.9972 6.95043 20.9972C6.94845 20.9972 6.94646 20.9972 6.94447 20.9972C6.94248 20.9972 6.94049 20.9972 6.93849 20.9972C6.93649 20.9972 6.9345 20.9972 6.93249 20.9972C6.93049 20.9972 6.92849 20.9972 6.92648 20.9972C6.92448 20.9972 6.92247 20.9972 6.92045 20.9972C6.91844 20.9972 6.91643 20.9972 6.91441 20.9972C6.91239 20.9972 6.91037 20.9972 6.90835 20.9972C6.90632 20.9972 6.9043 20.9972 6.90227 20.9972C6.90024 20.9972 6.89821 20.9972 6.89617 20.9972C6.89414 20.9972 6.8921 20.9972 6.89006 20.9972C6.88802 20.9972 6.88598 20.9972 6.88393 20.9972C6.88188 20.9972 6.87983 20.9972 6.87778 20.9972C6.87573 20.9972 6.87367 20.9972 6.87162 20.9972C6.86956 20.9972 6.8675 20.9972 6.86543 20.9972C6.86337 20.9972 6.8613 20.9972 6.85924 20.9972C6.85717 20.9972 6.85509 20.9972 6.85302 20.9972C6.85094 20.9972 6.84887 20.9972 6.84678 20.9972C6.8447 20.9972 6.84262 20.9972 6.84053 20.9972C6.83844 20.9972 6.83635 20.9972 6.83426 20.9972C6.83217 20.9972 6.83007 20.9972 6.82797 20.9972C6.82587 20.9972 6.82377 20.9972 6.82167 20.9972C6.81956 20.9972 6.81746 20.9972 6.81534 20.9972C6.81323 20.9972 6.81112 20.9972 6.809 20.9972C6.80689 20.9972 6.80477 20.9972 6.80264 20.9972C6.80052 20.9972 6.79839 20.9972 6.79627 20.9972C6.79414 20.9972 6.792 20.9972 6.78987 20.9972C6.78773 20.9972 6.7856 20.9972 6.78345 20.9972C6.78131 20.9972 6.77917 20.9972 6.77702 20.9972C6.77487 20.9972 6.77272 20.9972 6.77057 20.9972C6.76842 20.9972 6.76626 20.9972 6.7641 20.9972V22.2972C6.76626 22.2972 6.76842 22.2972 6.77057 22.2972C6.77272 22.2972 6.77487 22.2972 6.77702 22.2972C6.77917 22.2972 6.78131 22.2972 6.78345 22.2972C6.7856 22.2972 6.78773 22.2972 6.78987 22.2972C6.792 22.2972 6.79414 22.2972 6.79627 22.2972C6.79839 22.2972 6.80052 22.2972 6.80264 22.2972C6.80477 22.2972 6.80689 22.2972 6.809 22.2972C6.81112 22.2972 6.81323 22.2972 6.81534 22.2972C6.81746 22.2972 6.81956 22.2972 6.82167 22.2972C6.82377 22.2972 6.82587 22.2972 6.82797 22.2972C6.83007 22.2972 6.83217 22.2972 6.83426 22.2972C6.83635 22.2972 6.83844 22.2972 6.84053 22.2972C6.84262 22.2972 6.8447 22.2972 6.84678 22.2972C6.84887 22.2972 6.85094 22.2972 6.85302 22.2972C6.85509 22.2972 6.85717 22.2972 6.85924 22.2972C6.8613 22.2972 6.86337 22.2972 6.86543 22.2972C6.8675 22.2972 6.86956 22.2972 6.87162 22.2972C6.87367 22.2972 6.87573 22.2972 6.87778 22.2972C6.87983 22.2972 6.88188 22.2972 6.88393 22.2972C6.88598 22.2972 6.88802 22.2972 6.89006 22.2972C6.8921 22.2972 6.89414 22.2972 6.89617 22.2972C6.89821 22.2972 6.90024 22.2972 6.90227 22.2972C6.9043 22.2972 6.90632 22.2972 6.90835 22.2972C6.91037 22.2972 6.91239 22.2972 6.91441 22.2972C6.91643 22.2972 6.91844 22.2972 6.92045 22.2972C6.92247 22.2972 6.92448 22.2972 6.92648 22.2972C6.92849 22.2972 6.93049 22.2972 6.93249 22.2972C6.9345 22.2972 6.93649 22.2972 6.93849 22.2972C6.94049 22.2972 6.94248 22.2972 6.94447 22.2972C6.94646 22.2972 6.94845 22.2972 6.95043 22.2972C6.95241 22.2972 6.9544 22.2972 6.95638 22.2972C6.95836 22.2972 6.96033 22.2972 6.96231 22.2972C6.96428 22.2972 6.96625 22.2972 6.96822 22.2972C6.97019 22.2972 6.97215 22.2972 6.97412 22.2972C6.97608 22.2972 6.97804 22.2972 6.98 22.2972C6.98195 22.2972 6.98391 22.2972 6.98586 22.2972C6.98781 22.2972 6.98976 22.2972 6.99171 22.2972C6.99366 22.2972 6.9956 22.2972 6.99754 22.2972C6.99948 22.2972 7.00142 22.2972 7.00336 22.2972C7.0053 22.2972 7.00723 22.2972 7.00916 22.2972C7.01109 22.2972 7.01302 22.2972 7.01495 22.2972C7.01687 22.2972 7.01879 22.2972 7.02072 22.2972C7.02264 22.2972 7.02455 22.2972 7.02647 22.2972C7.02839 22.2972 7.0303 22.2972 7.03221 22.2972C7.03412 22.2972 7.03603 22.2972 7.03793 22.2972C7.03984 22.2972 7.04174 22.2972 7.04364 22.2972C7.04554 22.2972 7.04744 22.2972 7.04933 22.2972C7.05123 22.2972 7.05312 22.2972 7.05501 22.2972C7.0569 22.2972 7.05879 22.2972 7.06067 22.2972C7.06256 22.2972 7.06444 22.2972 7.06632 22.2972C7.0682 22.2972 7.07008 22.2972 7.07195 22.2972C7.07383 22.2972 7.0757 22.2972 7.07757 22.2972C7.07944 22.2972 7.08131 22.2972 7.08317 22.2972C7.08504 22.2972 7.0869 22.2972 7.08876 22.2972C7.09062 22.2972 7.09248 22.2972 7.09433 22.2972C7.09619 22.2972 7.09804 22.2972 7.09989 22.2972C7.10174 22.2972 7.10359 22.2972 7.10544 22.2972C7.10728 22.2972 7.10913 22.2972 7.11097 22.2972C7.11281 22.2972 7.11465 22.2972 7.11648 22.2972C7.11832 22.2972 7.12015 22.2972 7.12198 22.2972C7.12382 22.2972 7.12564 22.2972 7.12747 22.2972C7.1293 22.2972 7.13112 22.2972 7.13294 22.2972C7.13477 22.2972 7.13659 22.2972 7.1384 22.2972C7.14022 22.2972 7.14203 22.2972 7.14385 22.2972C7.14566 22.2972 7.14747 22.2972 7.14928 22.2972C7.15109 22.2972 7.15289 22.2972 7.15469 22.2972C7.1565 22.2972 7.1583 22.2972 7.1601 22.2972C7.1619 22.2972 7.16369 22.2972 7.16549 22.2972C7.16728 22.2972 7.16907 22.2972 7.17086 22.2972C7.17265 22.2972 7.17444 22.2972 7.17622 22.2972C7.17801 22.2972 7.17979 22.2972 7.18157 22.2972C7.18335 22.2972 7.18513 22.2972 7.18691 22.2972C7.18868 22.2972 7.19046 22.2972 7.19223 22.2972C7.194 22.2972 7.19577 22.2972 7.19754 22.2972C7.19931 22.2972 7.20107 22.2972 7.20283 22.2972C7.2046 22.2972 7.20636 22.2972 7.20812 22.2972C7.20987 22.2972 7.21163 22.2972 7.21338 22.2972C7.21514 22.2972 7.21689 22.2972 7.21864 22.2972C7.22039 22.2972 7.22214 22.2972 7.22388 22.2972C7.22563 22.2972 7.22737 22.2972 7.22911 22.2972C7.23085 22.2972 7.23259 22.2972 7.23433 22.2972C7.23607 22.2972 7.2378 22.2972 7.23954 22.2972C7.24127 22.2972 7.243 22.2972 7.24473 22.2972C7.24646 22.2972 7.24818 22.2972 7.24991 22.2972C7.25163 22.2972 7.25335 22.2972 7.25507 22.2972C7.25679 22.2972 7.25851 22.2972 7.26023 22.2972C7.26194 22.2972 7.26366 22.2972 7.26537 22.2972C7.26708 22.2972 7.26879 22.2972 7.2705 22.2972C7.27221 22.2972 7.27391 22.2972 7.27562 22.2972C7.27732 22.2972 7.27902 22.2972 7.28072 22.2972C7.28242 22.2972 7.28412 22.2972 7.28582 22.2972C7.28751 22.2972 7.28921 22.2972 7.2909 22.2972C7.29259 22.2972 7.29428 22.2972 7.29597 22.2972C7.29766 22.2972 7.29934 22.2972 7.30103 22.2972C7.30271 22.2972 7.30439 22.2972 7.30607 22.2972C7.30775 22.2972 7.30943 22.2972 7.31111 22.2972C7.31278 22.2972 7.31446 22.2972 7.31613 22.2972C7.3178 22.2972 7.31947 22.2972 7.32114 22.2972C7.32281 22.2972 7.32448 22.2972 7.32614 22.2972C7.3278 22.2972 7.32947 22.2972 7.33113 22.2972C7.33279 22.2972 7.33445 22.2972 7.3361 22.2972C7.33776 22.2972 7.33942 22.2972 7.34107 22.2972C7.34272 22.2972 7.34438 22.2972 7.34602 22.2972C7.34767 22.2972 7.34932 22.2972 7.35097 22.2972C7.35261 22.2972 7.35426 22.2972 7.3559 22.2972C7.35754 22.2972 7.35918 22.2972 7.36082 22.2972C7.36246 22.2972 7.3641 22.2972 7.36573 22.2972C7.36737 22.2972 7.369 22.2972 7.37063 22.2972C7.37226 22.2972 7.37389 22.2972 7.37552 22.2972C7.37715 22.2972 7.37878 22.2972 7.3804 22.2972C7.38202 22.2972 7.38365 22.2972 7.38527 22.2972C7.38689 22.2972 7.38851 22.2972 7.39012 22.2972C7.39174 22.2972 7.39336 22.2972 7.39497 22.2972C7.39658 22.2972 7.3982 22.2972 7.39981 22.2972C7.40142 22.2972 7.40303 22.2972 7.40463 22.2972C7.40624 22.2972 7.40785 22.2972 7.40945 22.2972C7.41105 22.2972 7.41265 22.2972 7.41425 22.2972C7.41585 22.2972 7.41745 22.2972 7.41905 22.2972C7.42065 22.2972 7.42224 22.2972 7.42383 22.2972C7.42543 22.2972 7.42702 22.2972 7.42861 22.2972C7.4302 22.2972 7.43179 22.2972 7.43338 22.2972C7.43496 22.2972 7.43655 22.2972 7.43813 22.2972C7.43971 22.2972 7.4413 22.2972 7.44288 22.2972C7.44446 22.2972 7.44604 22.2972 7.44761 22.2972C7.44919 22.2972 7.45077 22.2972 7.45234 22.2972C7.45391 22.2972 7.45549 22.2972 7.45706 22.2972C7.45863 22.2972 7.4602 22.2972 7.46177 22.2972C7.46333 22.2972 7.4649 22.2972 7.46646 22.2972C7.46803 22.2972 7.46959 22.2972 7.47115 22.2972C7.47271 22.2972 7.47427 22.2972 7.47583 22.2972C7.47739 22.2972 7.47895 22.2972 7.4805 22.2972C7.48206 22.2972 7.48361 22.2972 7.48517 22.2972C7.48672 22.2972 7.48827 22.2972 7.48982 22.2972C7.49137 22.2972 7.49292 22.2972 7.49446 22.2972C7.49601 22.2972 7.49755 22.2972 7.4991 22.2972C7.50064 22.2972 7.50218 22.2972 7.50372 22.2972C7.50526 22.2972 7.5068 22.2972 7.50834 22.2972C7.50988 22.2972 7.51141 22.2972 7.51295 22.2972C7.51448 22.2972 7.51602 22.2972 7.51755 22.2972C7.51908 22.2972 7.52061 22.2972 7.52214 22.2972C7.52367 22.2972 7.5252 22.2972 7.52672 22.2972C7.52825 22.2972 7.52977 22.2972 7.5313 22.2972C7.53282 22.2972 7.53434 22.2972 7.53586 22.2972C7.53739 22.2972 7.53891 22.2972 7.54042 22.2972C7.54194 22.2972 7.54346 22.2972 7.54497 22.2972C7.54649 22.2972 7.548 22.2972 7.54952 22.2972C7.55103 22.2972 7.55254 22.2972 7.55405 22.2972C7.55556 22.2972 7.55707 22.2972 7.55858 22.2972C7.56008 22.2972 7.56159 22.2972 7.56309 22.2972C7.5646 22.2972 7.5661 22.2972 7.56761 22.2972C7.56911 22.2972 7.57061 22.2972 7.57211 22.2972C7.57361 22.2972 7.57511 22.2972 7.5766 22.2972C7.5781 22.2972 7.5796 22.2972 7.58109 22.2972C7.58259 22.2972 7.58408 22.2972 7.58557 22.2972C7.58706 22.2972 7.58855 22.2972 7.59004 22.2972C7.59153 22.2972 7.59302 22.2972 7.59451 22.2972C7.596 22.2972 7.59748 22.2972 7.59897 22.2972C7.60045 22.2972 7.60194 22.2972 7.60342 22.2972C7.6049 22.2972 7.60638 22.2972 7.60786 22.2972C7.60934 22.2972 7.61082 22.2972 7.6123 22.2972C7.61378 22.2972 7.61525 22.2972 7.61673 22.2972C7.61821 22.2972 7.61968 22.2972 7.62115 22.2972C7.62263 22.2972 7.6241 22.2972 7.62557 22.2972C7.62704 22.2972 7.62851 22.2972 7.62998 22.2972C7.63145 22.2972 7.63291 22.2972 7.63438 22.2972C7.63585 22.2972 7.63731 22.2972 7.63878 22.2972C7.64024 22.2972 7.6417 22.2972 7.64317 22.2972C7.64463 22.2972 7.64609 22.2972 7.64755 22.2972C7.64901 22.2972 7.65047 22.2972 7.65193 22.2972C7.65338 22.2972 7.65484 22.2972 7.6563 22.2972C7.65775 22.2972 7.65921 22.2972 7.66066 22.2972C7.66211 22.2972 7.66357 22.2972 7.66502 22.2972C7.66647 22.2972 7.66792 22.2972 7.66937 22.2972C7.67082 22.2972 7.67227 22.2972 7.67372 22.2972C7.67516 22.2972 7.67661 22.2972 7.67806 22.2972C7.6795 22.2972 7.68095 22.2972 7.68239 22.2972C7.68383 22.2972 7.68528 22.2972 7.68672 22.2972C7.68816 22.2972 7.6896 22.2972 7.69104 22.2972C7.69248 22.2972 7.69392 22.2972 7.69536 22.2972C7.6968 22.2972 7.69823 22.2972 7.69967 22.2972C7.70111 22.2972 7.70254 22.2972 7.70398 22.2972C7.70541 22.2972 7.70684 22.2972 7.70828 22.2972C7.70971 22.2972 7.71114 22.2972 7.71257 22.2972C7.714 22.2972 7.71543 22.2972 7.71686 22.2972C7.71829 22.2972 7.71972 22.2972 7.72114 22.2972C7.72257 22.2972 7.724 22.2972 7.72542 22.2972C7.72685 22.2972 7.72827 22.2972 7.7297 22.2972C7.73112 22.2972 7.73254 22.2972 7.73397 22.2972C7.73539 22.2972 7.73681 22.2972 7.73823 22.2972C7.73965 22.2972 7.74107 22.2972 7.74249 22.2972C7.74391 22.2972 7.74533 22.2972 7.74674 22.2972C7.74816 22.2972 7.74958 22.2972 7.75099 22.2972C7.75241 22.2972 7.75383 22.2972 7.75524 22.2972C7.75665 22.2972 7.75807 22.2972 7.75948 22.2972C7.76089 22.2972 7.7623 22.2972 7.76372 22.2972C7.76513 22.2972 7.76654 22.2972 7.76795 22.2972C7.76936 22.2972 7.77077 22.2972 7.77217 22.2972C7.77358 22.2972 7.77499 22.2972 7.7764 22.2972C7.7778 22.2972 7.77921 22.2972 7.78062 22.2972C7.78202 22.2972 7.78343 22.2972 7.78483 22.2972C7.78624 22.2972 7.78764 22.2972 7.78904 22.2972C7.79044 22.2972 7.79185 22.2972 7.79325 22.2972C7.79465 22.2972 7.79605 22.2972 7.79745 22.2972C7.79885 22.2972 7.80025 22.2972 7.80165 22.2972C7.80305 22.2972 7.80445 22.2972 7.80584 22.2972C7.80724 22.2972 7.80864 22.2972 7.81004 22.2972C7.81143 22.2972 7.81283 22.2972 7.81422 22.2972C7.81562 22.2972 7.81701 22.2972 7.81841 22.2972C7.8198 22.2972 7.8212 22.2972 7.82259 22.2972C7.82398 22.2972 7.82537 22.2972 7.82677 22.2972C7.82816 22.2972 7.82955 22.2972 7.83094 22.2972C7.83233 22.2972 7.83372 22.2972 7.83511 22.2972C7.8365 22.2972 7.83789 22.2972 7.83928 22.2972C7.84067 22.2972 7.84205 22.2972 7.84344 22.2972C7.84483 22.2972 7.84622 22.2972 7.8476 22.2972C7.84899 22.2972 7.85038 22.2972 7.85176 22.2972C7.85315 22.2972 7.85453 22.2972 7.85592 22.2972C7.8573 22.2972 7.85868 22.2972 7.86007 22.2972C7.86145 22.2972 7.86284 22.2972 7.86422 22.2972C7.8656 22.2972 7.86698 22.2972 7.86837 22.2972C7.86975 22.2972 7.87113 22.2972 7.87251 22.2972C7.87389 22.2972 7.87527 22.2972 7.87665 22.2972C7.87803 22.2972 7.87941 22.2972 7.88079 22.2972C7.88217 22.2972 7.88355 22.2972 7.88493 22.2972C7.88631 22.2972 7.88768 22.2972 7.88906 22.2972C7.89044 22.2972 7.89182 22.2972 7.8932 22.2972C7.89457 22.2972 7.89595 22.2972 7.89733 22.2972C7.8987 22.2972 7.90008 22.2972 7.90145 22.2972C7.90283 22.2972 7.9042 22.2972 7.90558 22.2972C7.90695 22.2972 7.90833 22.2972 7.9097 22.2972C7.91108 22.2972 7.91245 22.2972 7.91383 22.2972C7.9152 22.2972 7.91657 22.2972 7.91795 22.2972C7.91932 22.2972 7.92069 22.2972 7.92207 22.2972C7.92344 22.2972 7.92481 22.2972 7.92618 22.2972C7.92755 22.2972 7.92893 22.2972 7.9303 22.2972C7.93167 22.2972 7.93304 22.2972 7.93441 22.2972C7.93578 22.2972 7.93715 22.2972 7.93852 22.2972C7.93989 22.2972 7.94127 22.2972 7.94264 22.2972C7.94401 22.2972 7.94537 22.2972 7.94674 22.2972C7.94811 22.2972 7.94948 22.2972 7.95085 22.2972C7.95222 22.2972 7.95359 22.2972 7.95496 22.2972C7.95633 22.2972 7.9577 22.2972 7.95907 22.2972C7.96044 22.2972 7.9618 22.2972 7.96317 22.2972C7.96454 22.2972 7.96591 22.2972 7.96728 22.2972C7.96864 22.2972 7.97001 22.2972 7.97138 22.2972C7.97275 22.2972 7.97412 22.2972 7.97548 22.2972C7.97685 22.2972 7.97822 22.2972 7.97958 22.2972C7.98095 22.2972 7.98232 22.2972 7.98369 22.2972C7.98505 22.2972 7.98642 22.2972 7.98779 22.2972C7.98915 22.2972 7.99052 22.2972 7.99189 22.2972C7.99325 22.2972 7.99462 22.2972 7.99599 22.2972C7.99735 22.2972 7.99872 22.2972 8.00009 22.2972C8.00145 22.2972 8.00282 22.2972 8.00419 22.2972C8.00555 22.2972 8.00692 22.2972 8.00828 22.2972C8.00965 22.2972 8.01102 22.2972 8.01238 22.2972C8.01375 22.2972 8.01512 22.2972 8.01648 22.2972C8.01785 22.2972 8.01921 22.2972 8.02058 22.2972C8.02195 22.2972 8.02331 22.2972 8.02468 22.2972C8.02604 22.2972 8.02741 22.2972 8.02878 22.2972C8.03014 22.2972 8.03151 22.2972 8.03288 22.2972C8.03424 22.2972 8.03561 22.2972 8.03698 22.2972C8.03834 22.2972 8.03971 22.2972 8.04108 22.2972C8.04244 22.2972 8.04381 22.2972 8.04518 22.2972C8.04654 22.2972 8.04791 22.2972 8.04928 22.2972C8.05064 22.2972 8.05201 22.2972 8.05338 22.2972C8.05475 22.2972 8.05611 22.2972 8.05748 22.2972C8.05885 22.2972 8.06021 22.2972 8.06158 22.2972C8.06295 22.2972 8.06432 22.2972 8.06569 22.2972C8.06705 22.2972 8.06842 22.2972 8.06979 22.2972C8.07116 22.2972 8.07253 22.2972 8.0739 22.2972C8.07526 22.2972 8.07663 22.2972 8.078 22.2972C8.07937 22.2972 8.08074 22.2972 8.08211 22.2972C8.08348 22.2972 8.08485 22.2972 8.08622 22.2972C8.08759 22.2972 8.08896 22.2972 8.09033 22.2972C8.0917 22.2972 8.09307 22.2972 8.09444 22.2972C8.09581 22.2972 8.09718 22.2972 8.09855 22.2972C8.09992 22.2972 8.10129 22.2972 8.10266 22.2972C8.10404 22.2972 8.10541 22.2972 8.10678 22.2972C8.10815 22.2972 8.10952 22.2972 8.1109 22.2972C8.11227 22.2972 8.11364 22.2972 8.11502 22.2972C8.11639 22.2972 8.11776 22.2972 8.11914 22.2972C8.12051 22.2972 8.12188 22.2972 8.12326 22.2972C8.12463 22.2972 8.12601 22.2972 8.12738 22.2972C8.12876 22.2972 8.13013 22.2972 8.13151 22.2972C8.13288 22.2972 8.13426 22.2972 8.13564 22.2972C8.13701 22.2972 8.13839 22.2972 8.13977 22.2972C8.14114 22.2972 8.14252 22.2972 8.1439 22.2972C8.14528 22.2972 8.14666 22.2972 8.14803 22.2972C8.14941 22.2972 8.15079 22.2972 8.15217 22.2972C8.15355 22.2972 8.15493 22.2972 8.15631 22.2972C8.15769 22.2972 8.15907 22.2972 8.16045 22.2972C8.16183 22.2972 8.16322 22.2972 8.1646 22.2972C8.16598 22.2972 8.16736 22.2972 8.16874 22.2972C8.17013 22.2972 8.17151 22.2972 8.17289 22.2972C8.17428 22.2972 8.17566 22.2972 8.17705 22.2972C8.17843 22.2972 8.17982 22.2972 8.1812 22.2972C8.18259 22.2972 8.18397 22.2972 8.18536 22.2972C8.18675 22.2972 8.18813 22.2972 8.18952 22.2972C8.19091 22.2972 8.1923 22.2972 8.19369 22.2972C8.19507 22.2972 8.19646 22.2972 8.19785 22.2972C8.19924 22.2972 8.20063 22.2972 8.20202 22.2972C8.20341 22.2972 8.20481 22.2972 8.2062 22.2972C8.20759 22.2972 8.20898 22.2972 8.21037 22.2972C8.21177 22.2972 8.21316 22.2972 8.21456 22.2972C8.21595 22.2972 8.21734 22.2972 8.21874 22.2972C8.22013 22.2972 8.22153 22.2972 8.22293 22.2972C8.22432 22.2972 8.22572 22.2972 8.22712 22.2972C8.22852 22.2972 8.22991 22.2972 8.23131 22.2972C8.23271 22.2972 8.23411 22.2972 8.23551 22.2972C8.23691 22.2972 8.23831 22.2972 8.23971 22.2972C8.24112 22.2972 8.24252 22.2972 8.24392 22.2972C8.24532 22.2972 8.24673 22.2972 8.24813 22.2972C8.24954 22.2972 8.25094 22.2972 8.25235 22.2972C8.25375 22.2972 8.25516 22.2972 8.25657 22.2972C8.25797 22.2972 8.25938 22.2972 8.26079 22.2972C8.2622 22.2972 8.26361 22.2972 8.26502 22.2972C8.26643 22.2972 8.26784 22.2972 8.26925 22.2972C8.27066 22.2972 8.27207 22.2972 8.27348 22.2972C8.2749 22.2972 8.27631 22.2972 8.27772 22.2972C8.27914 22.2972 8.28055 22.2972 8.28197 22.2972C8.28338 22.2972 8.2848 22.2972 8.28622 22.2972C8.28764 22.2972 8.28905 22.2972 8.29047 22.2972C8.29189 22.2972 8.29331 22.2972 8.29473 22.2972C8.29615 22.2972 8.29757 22.2972 8.299 22.2972C8.30042 22.2972 8.30184 22.2972 8.30327 22.2972C8.30469 22.2972 8.30611 22.2972 8.30754 22.2972C8.30897 22.2972 8.31039 22.2972 8.31182 22.2972C8.31325 22.2972 8.31467 22.2972 8.3161 22.2972C8.31753 22.2972 8.31896 22.2972 8.32039 22.2972C8.32182 22.2972 8.32326 22.2972 8.32469 22.2972C8.32612 22.2972 8.32755 22.2972 8.32899 22.2972C8.33042 22.2972 8.33186 22.2972 8.33329 22.2972C8.33473 22.2972 8.33617 22.2972 8.3376 22.2972C8.33904 22.2972 8.34048 22.2972 8.34192 22.2972C8.34336 22.2972 8.3448 22.2972 8.34624 22.2972C8.34769 22.2972 8.34913 22.2972 8.35057 22.2972C8.35202 22.2972 8.35346 22.2972 8.35491 22.2972C8.35635 22.2972 8.3578 22.2972 8.35925 22.2972C8.36069 22.2972 8.36214 22.2972 8.36359 22.2972C8.36504 22.2972 8.36649 22.2972 8.36794 22.2972C8.3694 22.2972 8.37085 22.2972 8.3723 22.2972C8.37376 22.2972 8.37521 22.2972 8.37667 22.2972C8.37812 22.2972 8.37958 22.2972 8.38104 22.2972C8.38249 22.2972 8.38395 22.2972 8.38541 22.2972C8.38687 22.2972 8.38833 22.2972 8.3898 22.2972C8.39126 22.2972 8.39272 22.2972 8.39419 22.2972C8.39565 22.2972 8.39712 22.2972 8.39858 22.2972C8.40005 22.2972 8.40152 22.2972 8.40298 22.2972C8.40445 22.2972 8.40592 22.2972 8.40739 22.2972C8.40886 22.2972 8.41034 22.2972 8.41181 22.2972C8.41328 22.2972 8.41476 22.2972 8.41623 22.2972C8.41771 22.2972 8.41919 22.2972 8.42066 22.2972C8.42214 22.2972 8.42362 22.2972 8.4251 22.2972C8.42658 22.2972 8.42806 22.2972 8.42954 22.2972C8.43103 22.2972 8.43251 22.2972 8.434 22.2972C8.43548 22.2972 8.43697 22.2972 8.43845 22.2972C8.43994 22.2972 8.44143 22.2972 8.44292 22.2972C8.44441 22.2972 8.4459 22.2972 8.44739 22.2972C8.44888 22.2972 8.45038 22.2972 8.45187 22.2972C8.45337 22.2972 8.45486 22.2972 8.45636 22.2972C8.45786 22.2972 8.45936 22.2972 8.46086 22.2972C8.46235 22.2972 8.46386 22.2972 8.46536 22.2972C8.46686 22.2972 8.46836 22.2972 8.46987 22.2972C8.47137 22.2972 8.47288 22.2972 8.47439 22.2972C8.47589 22.2972 8.4774 22.2972 8.47891 22.2972C8.48042 22.2972 8.48193 22.2972 8.48345 22.2972C8.48496 22.2972 8.48647 22.2972 8.48799 22.2972C8.4895 22.2972 8.49102 22.2972 8.49254 22.2972C8.49406 22.2972 8.49558 22.2972 8.4971 22.2972C8.49862 22.2972 8.50014 22.2972 8.50166 22.2972C8.50319 22.2972 8.50471 22.2972 8.50624 22.2972C8.50777 22.2972 8.50929 22.2972 8.51082 22.2972C8.51235 22.2972 8.51388 22.2972 8.51541 22.2972C8.51695 22.2972 8.51848 22.2972 8.52001 22.2972C8.52155 22.2972 8.52309 22.2972 8.52462 22.2972C8.52616 22.2972 8.5277 22.2972 8.52924 22.2972C8.53078 22.2972 8.53232 22.2972 8.53387 22.2972C8.53541 22.2972 8.53695 22.2972 8.5385 22.2972C8.54005 22.2972 8.5416 22.2972 8.54315 22.2972C8.54469 22.2972 8.54625 22.2972 8.5478 22.2972C8.54935 22.2972 8.5509 22.2972 8.55246 22.2972C8.55401 22.2972 8.55557 22.2972 8.55713 22.2972C8.55869 22.2972 8.56025 22.2972 8.56181 22.2972C8.56337 22.2972 8.56493 22.2972 8.5665 22.2972C8.56806 22.2972 8.56963 22.2972 8.5712 22.2972C8.57276 22.2972 8.57433 22.2972 8.57591 22.2972C8.57748 22.2972 8.57905 22.2972 8.58062 22.2972C8.5822 22.2972 8.58377 22.2972 8.58535 22.2972C8.58693 22.2972 8.58851 22.2972 8.59009 22.2972C8.59167 22.2972 8.59325 22.2972 8.59483 22.2972C8.59642 22.2972 8.598 22.2972 8.59959 22.2972C8.60117 22.2972 8.60276 22.2972 8.60435 22.2972C8.60594 22.2972 8.60753 22.2972 8.60913 22.2972C8.61072 22.2972 8.61232 22.2972 8.61391 22.2972C8.61551 22.2972 8.61711 22.2972 8.61871 22.2972C8.62031 22.2972 8.62191 22.2972 8.62351 22.2972C8.62512 22.2972 8.62672 22.2972 8.62833 22.2972C8.62994 22.2972 8.63155 22.2972 8.63316 22.2972C8.63477 22.2972 8.63638 22.2972 8.63799 22.2972C8.63961 22.2972 8.64122 22.2972 8.64284 22.2972C8.64446 22.2972 8.64607 22.2972 8.6477 22.2972C8.64932 22.2972 8.65094 22.2972 8.65256 22.2972C8.65419 22.2972 8.65581 22.2972 8.65744 22.2972C8.65907 22.2972 8.6607 22.2972 8.66233 22.2972C8.66396 22.2972 8.6656 22.2972 8.66723 22.2972C8.66887 22.2972 8.6705 22.2972 8.67214 22.2972C8.67378 22.2972 8.67542 22.2972 8.67706 22.2972C8.6787 22.2972 8.68035 22.2972 8.68199 22.2972C8.68364 22.2972 8.68529 22.2972 8.68694 22.2972C8.68859 22.2972 8.69024 22.2972 8.69189 22.2972C8.69355 22.2972 8.6952 22.2972 8.69686 22.2972C8.69851 22.2972 8.70017 22.2972 8.70183 22.2972C8.7035 22.2972 8.70516 22.2972 8.70682 22.2972C8.70849 22.2972 8.71015 22.2972 8.71182 22.2972C8.71349 22.2972 8.71516 22.2972 8.71683 22.2972C8.71851 22.2972 8.72018 22.2972 8.72186 22.2972C8.72353 22.2972 8.72521 22.2972 8.72689 22.2972C8.72857 22.2972 8.73025 22.2972 8.73194 22.2972C8.73362 22.2972 8.73531 22.2972 8.73699 22.2972C8.73868 22.2972 8.74037 22.2972 8.74206 22.2972C8.74376 22.2972 8.74545 22.2972 8.74715 22.2972C8.74884 22.2972 8.75054 22.2972 8.75224 22.2972C8.75394 22.2972 8.75564 22.2972 8.75734 22.2972C8.75905 22.2972 8.76075 22.2972 8.76246 22.2972C8.76417 22.2972 8.76588 22.2972 8.76759 22.2972C8.7693 22.2972 8.77102 22.2972 8.77273 22.2972C8.77445 22.2972 8.77617 22.2972 8.77789 22.2972C8.77961 22.2972 8.78133 22.2972 8.78306 22.2972C8.78478 22.2972 8.78651 22.2972 8.78824 22.2972C8.78996 22.2972 8.79169 22.2972 8.79343 22.2972C8.79516 22.2972 8.7969 22.2972 8.79863 22.2972C8.80037 22.2972 8.80211 22.2972 8.80385 22.2972C8.80559 22.2972 8.80733 22.2972 8.80908 22.2972C8.81083 22.2972 8.81257 22.2972 8.81432 22.2972C8.81607 22.2972 8.81782 22.2972 8.81958 22.2972C8.82133 22.2972 8.82309 22.2972 8.82485 22.2972C8.82661 22.2972 8.82837 22.2972 8.83013 22.2972C8.83189 22.2972 8.83366 22.2972 8.83542 22.2972C8.83719 22.2972 8.83896 22.2972 8.84073 22.2972C8.8425 22.2972 8.84428 22.2972 8.84606 22.2972C8.84783 22.2972 8.84961 22.2972 8.85139 22.2972C8.85317 22.2972 8.85495 22.2972 8.85674 22.2972C8.85852 22.2972 8.86031 22.2972 8.8621 22.2972C8.86389 22.2972 8.86568 22.2972 8.86748 22.2972C8.86927 22.2972 8.87107 22.2972 8.87287 22.2972C8.87466 22.2972 8.87646 22.2972 8.87827 22.2972C8.88007 22.2972 8.88188 22.2972 8.88369 22.2972C8.88549 22.2972 8.8873 22.2972 8.88912 22.2972C8.89093 22.2972 8.89274 22.2972 8.89456 22.2972C8.89638 22.2972 8.8982 22.2972 8.90002 22.2972C8.90184 22.2972 8.90367 22.2972 8.90549 22.2972C8.90732 22.2972 8.90915 22.2972 8.91098 22.2972C8.91281 22.2972 8.91464 22.2972 8.91648 22.2972C8.91832 22.2972 8.92015 22.2972 8.922 22.2972C8.92384 22.2972 8.92568 22.2972 8.92753 22.2972C8.92937 22.2972 8.93122 22.2972 8.93307 22.2972C8.93492 22.2972 8.93677 22.2972 8.93863 22.2972C8.94048 22.2972 8.94234 22.2972 8.9442 22.2972C8.94606 22.2972 8.94792 22.2972 8.94979 22.2972C8.95165 22.2972 8.95352 22.2972 8.95539 22.2972C8.95726 22.2972 8.95914 22.2972 8.96101 22.2972C8.96288 22.2972 8.96476 22.2972 8.96664 22.2972C8.96852 22.2972 8.9704 22.2972 8.97229 22.2972C8.97417 22.2972 8.97606 22.2972 8.97795 22.2972C8.97984 22.2972 8.98174 22.2972 8.98363 22.2972C8.98553 22.2972 8.98742 22.2972 8.98932 22.2972C8.99122 22.2972 8.99313 22.2972 8.99503 22.2972C8.99694 22.2972 8.99884 22.2972 9.00075 22.2972C9.00266 22.2972 9.00458 22.2972 9.00649 22.2972C9.00841 22.2972 9.01033 22.2972 9.01225 22.2972C9.01417 22.2972 9.01609 22.2972 9.01802 22.2972C9.01994 22.2972 9.02187 22.2972 9.0238 22.2972C9.02573 22.2972 9.02767 22.2972 9.0296 22.2972C9.03154 22.2972 9.03348 22.2972 9.03542 22.2972C9.03736 22.2972 9.03931 22.2972 9.04125 22.2972C9.0432 22.2972 9.04515 22.2972 9.0471 22.2972C9.04905 22.2972 9.05101 22.2972 9.05297 22.2972C9.05492 22.2972 9.05688 22.2972 9.05885 22.2972C9.06081 22.2972 9.06278 22.2972 9.06474 22.2972C9.06671 22.2972 9.06868 22.2972 9.07066 22.2972C9.07263 22.2972 9.07461 22.2972 9.07659 22.2972C9.07857 22.2972 9.08055 22.2972 9.08253 22.2972C9.08452 22.2972 9.0865 22.2972 9.08849 22.2972C9.09048 22.2972 9.09248 22.2972 9.09447 22.2972C9.09647 22.2972 9.09847 22.2972 9.10047 22.2972C9.10247 22.2972 9.10447 22.2972 9.10648 22.2972C9.10849 22.2972 9.1105 22.2972 9.11251 22.2972C9.11452 22.2972 9.11654 22.2972 9.11855 22.2972C9.12057 22.2972 9.12259 22.2972 9.12462 22.2972C9.12664 22.2972 9.12866 22.2972 9.13069 22.2972C9.13272 22.2972 9.13476 22.2972 9.13679 22.2972C9.13883 22.2972 9.14086 22.2972 9.1429 22.2972C9.14494 22.2972 9.14699 22.2972 9.14903 22.2972C9.15108 22.2972 9.15313 22.2972 9.15518 22.2972C9.15723 22.2972 9.15929 22.2972 9.16135 22.2972C9.1634 22.2972 9.16546 22.2972 9.16753 22.2972C9.16959 22.2972 9.17166 22.2972 9.17373 22.2972C9.1758 22.2972 9.17787 22.2972 9.17994 22.2972C9.18202 22.2972 9.1841 22.2972 9.18618 22.2972C9.18826 22.2972 9.19034 22.2972 9.19243 22.2972C9.19452 22.2972 9.19661 22.2972 9.1987 22.2972C9.20079 22.2972 9.20289 22.2972 9.20499 22.2972C9.20709 22.2972 9.20919 22.2972 9.2113 22.2972C9.2134 22.2972 9.21551 22.2972 9.21762 22.2972C9.21973 22.2972 9.22184 22.2972 9.22396 22.2972C9.22608 22.2972 9.2282 22.2972 9.23032 22.2972C9.23244 22.2972 9.23457 22.2972 9.2367 22.2972C9.23883 22.2972 9.24096 22.2972 9.24309 22.2972C9.24523 22.2972 9.24737 22.2972 9.24951 22.2972C9.25165 22.2972 9.25379 22.2972 9.25594 22.2972C9.25809 22.2972 9.26024 22.2972 9.26239 22.2972C9.26455 22.2972 9.2667 22.2972 9.26886 22.2972V20.9972ZM6.11841 21.722C6.11202 21.6668 6.09764 21.4886 6.21519 21.3043C6.36224 21.0738 6.596 21.0083 6.74933 21.0062C6.87636 21.0044 6.96939 21.0412 6.99995 21.0539C7.04051 21.0708 7.06947 21.0881 7.08312 21.0966C7.12658 21.1238 7.1408 21.142 7.11423 21.1162C7.07686 21.0799 7.00474 21.001 6.91318 20.8812C6.7313 20.6433 6.50698 20.289 6.34692 19.8766C6.18665 19.4636 6.10175 19.0213 6.15934 18.5892C6.21515 18.1705 6.40972 17.7185 6.88311 17.2725L5.99168 16.3263C5.30776 16.9706 4.96725 17.6933 4.87074 18.4175C4.776 19.1283 4.92154 19.7969 5.135 20.3469C5.34867 20.8975 5.64138 21.3581 5.88037 21.6707C5.99924 21.8262 6.11351 21.9565 6.20856 22.0488C6.2482 22.0873 6.31514 22.1497 6.39408 22.199C6.4166 22.2131 6.45335 22.2345 6.50057 22.2542C6.53779 22.2697 6.63634 22.3079 6.76771 22.306C6.92536 22.3038 7.16225 22.2369 7.31118 22.0034C7.43061 21.8162 7.41686 21.6336 7.40979 21.5725L6.11841 21.722ZM20.5947 14.2137C20.4009 13.5933 20.401 13.5933 20.4011 13.5932C20.4012 13.5932 20.4013 13.5932 20.4014 13.5932C20.4015 13.5931 20.4016 13.5931 20.4017 13.5931C20.4018 13.593 20.4018 13.593 20.4017 13.593C20.4015 13.5931 20.4008 13.5933 20.3997 13.5937C20.3973 13.5944 20.393 13.5957 20.3868 13.5975C20.3744 13.6012 20.3544 13.607 20.3272 13.6145C20.2729 13.6296 20.19 13.6516 20.0816 13.6774C19.8647 13.7291 19.5468 13.7959 19.1532 13.8534C18.3635 13.9686 17.2819 14.0443 16.104 13.8923L15.9376 15.1816C17.2645 15.3528 18.4699 15.2669 19.3409 15.1397C19.7776 15.076 20.1336 15.0014 20.3829 14.942C20.5077 14.9123 20.606 14.8863 20.6746 14.8673C20.7089 14.8577 20.7358 14.85 20.7549 14.8443C20.7645 14.8415 20.7721 14.8392 20.7777 14.8375C20.7805 14.8366 20.7828 14.8359 20.7846 14.8354C20.7855 14.8351 20.7863 14.8349 20.787 14.8347C20.7873 14.8346 20.7876 14.8345 20.7878 14.8344C20.788 14.8343 20.7882 14.8343 20.7882 14.8343C20.7884 14.8342 20.7885 14.8342 20.5947 14.2137ZM16.104 13.8923C14.9111 13.7383 13.8699 13.4297 13.126 13.1586C12.755 13.0234 12.4603 12.8984 12.2604 12.8082C12.1605 12.7631 12.0845 12.7269 12.0347 12.7025C12.0097 12.6903 11.9914 12.6811 11.9799 12.6753C11.9741 12.6724 11.9701 12.6703 11.9678 12.6691C11.9667 12.6686 11.966 12.6682 11.9657 12.6681C11.9656 12.668 11.9656 12.668 11.9657 12.668C11.9657 12.668 11.9658 12.6681 11.9659 12.6681C11.9659 12.6682 11.966 12.6682 11.9661 12.6682C11.9662 12.6683 11.9663 12.6683 11.6647 13.2442C11.3632 13.82 11.3633 13.82 11.3634 13.8201C11.3635 13.8201 11.3636 13.8202 11.3637 13.8203C11.3639 13.8204 11.3642 13.8205 11.3644 13.8206C11.365 13.8209 11.3656 13.8213 11.3664 13.8217C11.3679 13.8225 11.3699 13.8235 11.3724 13.8248C11.3772 13.8273 11.3839 13.8307 11.3923 13.8349C11.4092 13.8435 11.433 13.8554 11.4637 13.8704C11.5248 13.9003 11.613 13.9423 11.7259 13.9932C11.9514 14.0949 12.276 14.2325 12.6809 14.38C13.4889 14.6745 14.6257 15.0123 15.9376 15.1816L16.104 13.8923ZM24.1056 1.78076C24.4631 1.63609 24.7264 1.59685 24.938 1.61113C25.1459 1.62515 25.3518 1.69397 25.592 1.84077L26.2698 0.731428C25.8931 0.501239 25.4868 0.3452 25.0255 0.314076C24.568 0.283206 24.1052 0.378514 23.6179 0.575698L24.1056 1.78076ZM25.5681 1.82542C25.9485 2.08131 26.1226 2.4487 26.3753 2.93726C26.4875 3.15419 26.64 3.44144 26.8649 3.66662C27.1204 3.92244 27.4588 4.09074 27.8912 4.09074V2.79074C27.8335 2.79074 27.8182 2.78145 27.7847 2.74794C27.7206 2.68379 27.6489 2.56999 27.5299 2.33999C27.3203 1.9347 27.0043 1.22477 26.2937 0.746774L25.5681 1.82542ZM8.6426 9.02924C8.64625 9.02249 8.64556 9.02497 8.64122 9.02966C8.63894 9.03212 8.64163 9.02833 8.66622 9.00922C8.70902 8.97596 8.85369 8.87559 8.9913 8.72153L8.02179 7.85548C7.98482 7.89686 7.9705 7.90349 7.86854 7.98272C7.75853 8.06821 7.61735 8.19233 7.49927 8.41053L8.6426 9.02924ZM7.47505 4.39599C7.6339 4.27957 7.69598 4.1287 7.71965 4.05693C7.74618 3.97651 7.75392 3.9051 7.75669 3.85954C7.76232 3.76696 7.75277 3.67928 7.74217 3.61202C7.71993 3.47094 7.67496 3.30952 7.61365 3.14273C7.48975 2.8057 7.27631 2.38505 6.95322 1.97509C6.29621 1.14146 5.17069 0.341364 3.46643 0.421665L3.52762 1.72022C4.73217 1.66347 5.48086 2.2071 5.9322 2.77978C6.16328 3.07298 6.31255 3.37115 6.39349 3.5913C6.43459 3.7031 6.45257 3.77987 6.45802 3.81442C6.46126 3.83496 6.45673 3.81945 6.45909 3.78063C6.46022 3.76195 6.46426 3.71282 6.48507 3.64972C6.50303 3.59529 6.55738 3.45679 6.70657 3.34745L7.47505 4.39599ZM3.46643 0.421665C2.61105 0.461969 1.91205 0.674402 1.3839 1.09049C0.848572 1.51223 0.561656 2.08558 0.425948 2.70322C0.292827 3.30908 0.298923 3.98226 0.361843 4.65913C0.425074 5.33935 0.550561 6.067 0.679089 6.78715L1.95887 6.55874C1.82953 5.83409 1.71375 5.15722 1.65626 4.53881C1.59847 3.91705 1.6044 3.39752 1.69566 2.9822C1.78433 2.57866 1.94632 2.30237 2.1884 2.11165C2.43768 1.91527 2.8446 1.75241 3.52762 1.72022L3.46643 0.421665ZM6.88311 17.2725C8.05519 16.1683 8.21157 14.6975 8.22089 13.3846C8.22325 13.0519 8.21578 12.7162 8.20927 12.3933C8.20269 12.0667 8.19704 11.7516 8.20174 11.4428C8.21116 10.8222 8.26252 10.2656 8.41361 9.77182L7.1705 9.39144C6.96666 10.0576 6.91201 10.7563 6.90189 11.4231C6.8968 11.7579 6.90298 12.0944 6.90954 12.4195C6.91616 12.7482 6.92313 13.0642 6.92092 13.3753C6.91196 14.6376 6.74594 15.6157 5.99168 16.3263L6.88311 17.2725ZM8.41361 9.77182C8.44624 9.66517 8.50687 9.43529 8.53877 9.32535C8.58541 9.16457 8.62121 9.06876 8.6426 9.02924L7.49927 8.41053C7.40418 8.58625 7.33613 8.805 7.29025 8.96312C7.22963 9.17207 7.20906 9.26544 7.1705 9.39144L8.41361 9.77182ZM0.679089 6.78715C1.05829 8.91187 2.94051 9.79167 4.50422 10.1314C5.30829 10.306 6.09781 10.357 6.71223 10.3508C7.01996 10.3477 7.29157 10.3302 7.50638 10.3046C7.61314 10.2919 7.71321 10.2763 7.80045 10.2574C7.86591 10.2433 7.99419 10.2136 8.11042 10.1483L7.47369 9.01493C7.54217 8.97646 7.58288 8.97442 7.52583 8.98675C7.49057 8.99437 7.43318 9.00412 7.35239 9.01376C7.19212 9.03288 6.96831 9.04817 6.69918 9.05087C6.1599 9.05629 5.47 9.01085 4.7802 8.86099C3.35617 8.55164 2.19285 7.86979 1.95887 6.55874L0.679089 6.78715ZM23.8618 1.17823C23.2621 1.42903 23.2621 1.42896 23.2621 1.4289C23.2621 1.42889 23.262 1.42884 23.262 1.42883C23.262 1.42881 23.262 1.42884 23.2621 1.42892C23.2621 1.42907 23.2623 1.42941 23.2625 1.42993C23.2629 1.43097 23.2637 1.43275 23.2647 1.43524C23.2667 1.44023 23.27 1.44807 23.2743 1.45862C23.2828 1.47971 23.2957 1.51158 23.312 1.55295C23.3447 1.63573 23.3911 1.75622 23.4451 1.90422C23.5534 2.20138 23.69 2.60399 23.8062 3.03209C23.9237 3.4646 24.014 3.90042 24.0404 4.26997C24.0692 4.67275 24.0105 4.85826 23.9762 4.90923L25.0542 5.63572C25.3466 5.2019 25.3696 4.63323 25.3371 4.17744C25.3022 3.68842 25.1884 3.16128 25.0608 2.69142C24.932 2.21716 24.7827 1.77801 24.6665 1.459C24.6081 1.29891 24.5575 1.16771 24.5213 1.07583C24.5032 1.02986 24.4886 0.993649 24.4783 0.9685C24.4732 0.955924 24.4692 0.946106 24.4663 0.939209C24.4649 0.93576 24.4638 0.933041 24.463 0.931071C24.4626 0.930087 24.4622 0.929289 24.462 0.928682C24.4618 0.928378 24.4617 0.928122 24.4616 0.927913C24.4616 0.927809 24.4616 0.927689 24.4615 0.927637C24.4615 0.927528 24.4614 0.927432 23.8618 1.17823ZM21.87 4.82908C22.1059 4.3957 22.2708 4.00634 22.4094 3.67273C22.5522 3.32886 22.6565 3.07195 22.7847 2.84146C23.0075 2.44061 23.3096 2.10291 24.1056 1.78076L23.6179 0.575698C22.5689 1.00021 22.027 1.52897 21.6485 2.20972C21.4759 2.52003 21.3402 2.85771 21.2088 3.17412C21.0731 3.50079 20.9297 3.83741 20.7282 4.20762L21.87 4.82908ZM23.9762 4.90923C23.9759 4.90971 23.9765 4.90875 23.9781 4.90699C23.9798 4.90522 23.9818 4.90353 23.9836 4.90214C23.9878 4.89905 23.9874 4.90055 23.9778 4.90386C23.9546 4.91184 23.8959 4.92388 23.7863 4.91556C23.5602 4.89837 23.2562 4.80648 22.9183 4.66161C22.5904 4.52103 22.2749 4.35003 22.0378 4.21141C21.9203 4.1427 21.8243 4.08329 21.7585 4.04157C21.7257 4.02073 21.7005 4.00439 21.684 3.99359C21.6757 3.98819 21.6697 3.98419 21.6659 3.98171C21.6641 3.98048 21.6628 3.97962 21.6621 3.97916C21.6618 3.97893 21.6616 3.9788 21.6615 3.97878C21.6615 3.97876 21.6615 3.97878 21.6616 3.97881C21.6616 3.97883 21.6617 3.97888 21.6617 3.97889C21.6618 3.97894 21.6619 3.979 21.2991 4.51835C20.9363 5.0577 20.9364 5.05778 20.9365 5.05786C20.9366 5.05789 20.9367 5.05798 20.9368 5.05805C20.937 5.05819 20.9373 5.05836 20.9376 5.05856C20.9382 5.05895 20.9389 5.05944 20.9398 5.06004C20.9416 5.06123 20.944 5.06283 20.947 5.06482C20.953 5.06881 20.9614 5.07437 20.9721 5.08136C20.9935 5.09534 21.0239 5.11508 21.0624 5.13948C21.1393 5.18824 21.2487 5.25592 21.3816 5.33365C21.6455 5.48793 22.0115 5.68725 22.406 5.85641C22.7905 6.02126 23.2496 6.1785 23.6878 6.21182C24.1217 6.2448 24.7004 6.16078 25.0542 5.63572L23.9762 4.90923ZM24.9588 7.39629C24.983 7.5993 25.0049 7.79411 25.0242 7.98162L26.3173 7.84836C26.2972 7.6528 26.2745 7.45102 26.2497 7.24246L24.9588 7.39629ZM20.7571 6.99339C20.8866 6.84548 20.9976 6.68681 21.0937 6.52838L19.9824 5.85392C19.9159 5.96337 19.8482 6.05793 19.7789 6.13712L20.7571 6.99339ZM21.0937 6.52838C21.2973 6.19287 21.451 5.82992 21.5726 5.52855C21.7054 5.19963 21.7876 4.98055 21.87 4.82908L20.7282 4.20762C20.5988 4.44525 20.4748 4.77529 20.3672 5.04187C20.2484 5.33598 20.1274 5.61489 19.9824 5.85392L21.0937 6.52838ZM25.7304 7.26773C24.6857 7.17148 23.9235 7.03355 23.2069 6.7925C22.4897 6.5512 21.7894 6.19686 20.8782 5.63727L20.1979 6.74503C21.152 7.33103 21.9458 7.73982 22.7924 8.02464C23.6398 8.30972 24.5113 8.46091 25.6111 8.56225L25.7304 7.26773ZM8.9913 8.72153C9.31814 8.35565 9.9115 8.13598 10.8399 8.06407C11.7533 7.99333 12.8366 8.07451 14.0042 8.1655C15.1459 8.25448 16.3653 8.35246 17.4606 8.28587C18.5458 8.21988 19.6307 7.98789 20.428 7.31605L19.5903 6.32192C19.1174 6.72043 18.3791 6.92762 17.3817 6.98826C16.3944 7.04829 15.2717 6.96034 14.1052 6.86943C12.9644 6.78054 11.7734 6.68788 10.7396 6.76795C9.72085 6.84685 8.69428 7.10265 8.02179 7.85548L8.9913 8.72153ZM20.428 7.31605C20.5447 7.21772 20.6547 7.11035 20.7571 6.99339L19.7789 6.13712C19.721 6.20328 19.6582 6.26474 19.5903 6.32192L20.428 7.31605ZM25.0242 7.98162C25.058 8.30997 25.0839 8.61482 25.1009 8.9009L26.3986 8.82385C26.3803 8.51465 26.3526 8.19049 26.3173 7.84836L25.0242 7.98162ZM25.1009 8.9009C25.1666 10.007 25.0974 10.8168 24.8449 11.5819C24.5906 12.3525 24.1341 13.1272 23.3485 14.1381L24.375 14.9358C25.2029 13.8705 25.7588 12.9606 26.0794 11.9893C26.4018 11.0124 26.4698 10.023 26.3986 8.82385L25.1009 8.9009ZM19.6448 7.35725C20.669 8.05057 21.5365 8.51748 22.483 8.84678C23.4249 9.17445 24.4163 9.35576 25.6717 9.50767L25.8279 8.21708C24.6082 8.0695 23.7231 7.90178 22.9102 7.61897C22.102 7.33778 21.3367 6.93274 20.3735 6.28072L19.6448 7.35725ZM29.3124 4.87614C29.1299 5.40758 28.6908 5.86056 28.1263 6.13272L28.6908 7.30373C29.5073 6.91009 30.2265 6.21695 30.5419 5.2984L29.3124 4.87614Z" fill="#2B5A51"/>
<ellipse cx="25.6896" cy="3.0052" rx="0.326707" ry="0.323194" fill="#2B5A51"/>
</svg>
