<svg width="25" height="25" viewBox="0 0 25 25" fill="none" xmlns="http://www.w3.org/2000/svg">
<path d="M9.5 10.25H10.25V9.5V3C10.25 1.75737 11.2574 0.75 12.5 0.75C13.7427 0.75 14.75 1.75736 14.75 3V9.5V10.25H15.5H22C23.2426 10.25 24.25 11.2573 24.25 12.5C24.25 13.7426 23.2426 14.75 22 14.75H15.5H14.75V15.5V22C14.75 23.2426 13.7427 24.25 12.5 24.25C11.2574 24.25 10.25 23.2426 10.25 22V15.5V14.75H9.5H3C1.75737 14.75 0.75 13.7426 0.75 12.5C0.75 11.2573 1.75735 10.25 3 10.25H9.5Z" fill="white" stroke="#F27063" stroke-width="1.5"/>
</svg>
