<svg width="25" height="25" viewBox="0 0 25 25" fill="none" xmlns="http://www.w3.org/2000/svg">
<path d="M9.5 10H10V9.5V3C10 1.6193 11.1193 0.5 12.5 0.5C13.8808 0.5 15 1.61929 15 3V9.5V10H15.5H22C23.3807 10 24.5 11.1192 24.5 12.5C24.5 13.8807 23.3807 15 22 15H15.5H15V15.5V22C15 23.3807 13.8808 24.5 12.5 24.5C11.1193 24.5 10 23.3807 10 22V15.5V15H9.5H3C1.6193 15 0.5 13.8807 0.5 12.5C0.5 11.1192 1.61929 10 3 10H9.5Z" fill="black" stroke="black"/>
<path d="M0 0V-1H-1V0H0ZM25 0H26V-1H25V0ZM25 25V26H26V25H25ZM0 25H-1V26H0V25ZM0 1H25V-1H0V1ZM24 0V25H26V0H24ZM25 24H0V26H25V24ZM1 25V0H-1V25H1Z" fill="white"/>
</svg>
