<svg width="48" height="48" viewBox="0 0 48 48" fill="none" xmlns="http://www.w3.org/2000/svg">
<circle cx="24" cy="24" r="23.25" stroke="black" stroke-width="1.5"/>
<path d="M24.875 30.715C29.0938 30.529 32.4688 27.0415 32.4688 22.81C32.4688 18.439 28.9062 14.905 24.5 14.905C20.0938 14.905 16.5312 18.439 16.5312 22.81C16.5312 27.0415 19.9062 30.4825 24.125 30.715C17.488 30.9375 12.3096 35.9691 11.8735 42.797C11.8405 43.3137 12.2635 43.735 12.7812 43.735V43.735C13.299 43.735 13.7151 43.3135 13.7514 42.797C14.1745 36.7829 18.6586 32.575 24.5 32.575C30.3414 32.575 34.8255 36.7829 35.2486 42.797C35.2849 43.3135 35.701 43.735 36.2188 43.735V43.735C36.7365 43.735 37.1595 43.3137 37.1265 42.797C36.6904 35.9691 31.512 30.9375 24.875 30.715ZM18.4062 22.8565C18.4062 19.5085 21.125 16.8115 24.5 16.8115C27.875 16.8115 30.5938 19.5085 30.5938 22.8565C30.5938 26.2045 27.875 28.9015 24.5 28.9015C21.125 28.9015 18.4062 26.158 18.4062 22.8565Z" fill="black"/>
</svg>
