<svg width="23" height="29" viewBox="0 0 23 29" fill="#2B5A51" xmlns="http://www.w3.org/2000/svg">
<path d="M11.132 10.0456C11.132 7.7952 9.31501 5.9624 7.08401 5.9624C4.85301 5.9624 3.03601 7.7952 3.03601 10.0456C3.03601 12.296 4.85301 14.1288 7.08401 14.1288C7.56701 14.1288 8.05001 14.036 8.48701 13.8736C8.39501 14.8944 8.09601 15.9384 7.59001 16.9128C7.54401 16.9824 7.54401 17.0752 7.56701 17.1448C7.59001 17.1912 7.63601 17.2376 7.68201 17.2376C7.75101 17.2608 7.82001 17.2376 7.91201 17.168C8.87801 16.3328 9.70601 15.2424 10.258 14.036C10.764 12.9224 11.063 11.7392 11.109 10.4864C11.132 10.3472 11.132 10.1848 11.132 10.0456Z" fill="#2B5A51"/>
<path d="M19.941 10.0456C19.941 7.7952 18.124 5.9624 15.893 5.9624C13.662 5.9624 11.845 7.7952 11.845 10.0456C11.845 12.296 13.662 14.1288 15.893 14.1288C16.376 14.1288 16.859 14.036 17.296 13.8736C17.204 14.8944 16.905 15.9384 16.399 16.9128C16.353 16.9824 16.353 17.0752 16.376 17.1448C16.399 17.1912 16.445 17.2376 16.491 17.2376C16.56 17.2608 16.629 17.2376 16.721 17.168C17.687 16.3328 18.515 15.2424 19.067 14.036C19.573 12.9224 19.872 11.7392 19.918 10.4864C19.941 10.3472 19.941 10.1848 19.941 10.0456Z" fill="#2B5A51"/>
</svg>
