<svg width="16" height="10" viewBox="0 0 16 10" fill="none" xmlns="http://www.w3.org/2000/svg">
<path d="M7.68014 3.73518C7.68014 1.77831 6.10014 0.18457 4.16014 0.18457C2.22014 0.18457 0.640137 1.77831 0.640137 3.73518C0.640137 5.69205 2.22014 7.28579 4.16014 7.28579C4.58014 7.28579 5.00014 7.20509 5.38014 7.06387C5.30014 7.95152 5.04014 8.85935 4.60014 9.70666C4.56014 9.76718 4.56014 9.84787 4.58014 9.90839C4.60014 9.94874 4.64014 9.98909 4.68014 9.98909C4.74014 10.0093 4.80014 9.98909 4.88014 9.92857C5.72014 9.20231 6.44014 8.25413 6.92014 7.20509C7.36014 6.23674 7.62014 5.20787 7.66014 4.11848C7.68014 3.99744 7.68014 3.85622 7.68014 3.73518Z" fill="#2B5A51"/>
<path d="M15.3398 3.73518C15.3398 1.77831 13.7598 0.18457 11.8198 0.18457C9.8798 0.18457 8.2998 1.77831 8.2998 3.73518C8.2998 5.69205 9.8798 7.28579 11.8198 7.28579C12.2398 7.28579 12.6598 7.20509 13.0398 7.06387C12.9598 7.95152 12.6998 8.85935 12.2598 9.70666C12.2198 9.76718 12.2198 9.84787 12.2398 9.90839C12.2598 9.94874 12.2998 9.98909 12.3398 9.98909C12.3998 10.0093 12.4598 9.98909 12.5398 9.92857C13.3798 9.20231 14.0998 8.25413 14.5798 7.20509C15.0198 6.23674 15.2798 5.20787 15.3198 4.11848C15.3398 3.99744 15.3398 3.85622 15.3398 3.73518Z" fill="#2B5A51"/>
</svg>
