<svg width="16" height="16" viewBox="0 0 16 16" fill="none" xmlns="http://www.w3.org/2000/svg">
<path d="M15.8698 15.2413C16.0434 15.4149 16.0434 15.6963 15.8698 15.8698C15.6963 16.0434 15.4149 16.0434 15.2413 15.8698L10.4555 11.084C10.3677 10.9962 10.2186 10.9895 10.1251 11.0659C10.1251 11.0659 10.0523 11.1289 9.92434 11.2238C8.88981 11.9908 7.60899 12.4444 6.22222 12.4444C2.78578 12.4444 0 9.65866 0 6.22222C0 2.78578 2.78578 0 6.22222 0C9.65866 0 12.4444 2.78578 12.4444 6.22222C12.4444 7.5774 12.0112 8.83139 11.2757 9.85324C11.1655 10.0064 11.066 10.1237 11.066 10.1237C10.9882 10.2192 10.995 10.3665 11.084 10.4555L15.8698 15.2413ZM6.22222 11.5556C9.16774 11.5556 11.5556 9.16774 11.5556 6.22222C11.5556 3.2767 9.16774 0.888889 6.22222 0.888889C3.2767 0.888889 0.888889 3.2767 0.888889 6.22222C0.888889 9.16774 3.2767 11.5556 6.22222 11.5556Z" fill="#BDBDBD"/>
</svg>
