<svg width="29" height="29" viewBox="0 0 29 29" fill="none" xmlns="http://www.w3.org/2000/svg">
<path d="M14.5 29C6.5047 29 0 22.4953 0 14.5C0 6.5047 6.5047 0 14.5 0C22.4953 0 29 6.5047 29 14.5C29 22.4953 22.4953 29 14.5 29ZM14.5 1.45C7.30423 1.45 1.45 7.30423 1.45 14.5C1.45 21.6958 7.30423 27.55 14.5 27.55C21.6958 27.55 27.55 21.6958 27.55 14.5C27.55 7.30423 21.6958 1.45 14.5 1.45Z" fill="#F27063"/>
<path d="M14.8927 22.8994C14.877 22.8994 14.8617 22.8988 14.8457 22.8979C14.5401 22.8782 14.2796 22.6682 14.1955 22.3736L12.5254 16.5362L6.62161 14.8029C6.32842 14.717 6.12078 14.4563 6.10193 14.1515C6.08337 13.8464 6.25795 13.5628 6.53838 13.4416L20.7269 7.31998C21.0001 7.20253 21.3165 7.26285 21.5267 7.4731C21.737 7.68306 21.7976 8.00004 21.6799 8.27293L15.5583 22.4615C15.4431 22.7286 15.1807 22.8994 14.8927 22.8994ZM8.95698 13.9775L13.3168 15.2576C13.5552 15.3275 13.7414 15.5148 13.8096 15.7538L15.031 20.0231L19.6255 9.37464L8.95698 13.9775Z" fill="#F27063"/>
</svg>
