<svg width="52" height="11" viewBox="0 0 52 11" fill="none" xmlns="http://www.w3.org/2000/svg">
<path d="M1 4V4C2.55298 5.1125 4.7098 4.78346 5.86043 3.25852L6.08421 2.96194C7.33623 1.30263 9.66936 0.916381 11.3893 2.08368L13.5927 3.57908C15.7654 5.05364 18.5991 5.12338 20.8417 3.75748L22.0854 3L22.7669 2.58492C25.3324 1.02237 28.5891 1.17146 31.0011 2.96188L31.1712 3.08813C33.532 4.84055 36.7309 4.94909 39.2051 3.36071L41.717 1.74805C43.2739 0.748576 45.3308 1.06122 46.5204 2.47813L47.8608 4.07476C48.6894 5.06165 50.2194 5.02521 51 4V4" stroke="#B2DBC3" stroke-width="2"/>
<path d="M1 9V9C2.55298 10.1125 4.7098 9.78346 5.86043 8.25852L6.08421 7.96194C7.33623 6.30263 9.66936 5.91638 11.3893 7.08368L13.5927 8.57908C15.7654 10.0536 18.5991 10.1234 20.8417 8.75748L22.0854 8L22.7669 7.58492C25.3324 6.02237 28.5891 6.17146 31.0011 7.96188L31.1712 8.08813C33.532 9.84055 36.7309 9.94909 39.2051 8.36071L41.717 6.74805C43.2739 5.74858 45.3308 6.06122 46.5204 7.47813L47.8608 9.07476C48.6894 10.0616 50.2194 10.0252 51 9V9" stroke="#B2DBC3" stroke-width="2"/>
</svg>
