<svg width="24" height="24" viewBox="0 0 24 24" fill="none" xmlns="http://www.w3.org/2000/svg">
<path d="M13.5 5.5C14.6 5.5 15.5 4.6 15.5 3.5C15.5 2.4 14.6 1.5 13.5 1.5C12.4 1.5 11.5 2.4 11.5 3.5C11.5 4.6 12.4 5.5 13.5 5.5ZM9.19873 9.00063C9.52298 8.83851 9.89122 9.12211 9.81728 9.47701L7.26074 21.7484C7.12625 22.394 7.61903 23 8.27843 23C8.76002 23 9.17855 22.6692 9.28984 22.2007L10.4692 17.2349C10.7012 16.2582 11.9145 15.9145 12.6243 16.6243C12.8648 16.8649 13 17.1911 13 17.5313V22C13 22.5523 13.4477 23 14 23C14.5523 23 15 22.5523 15 22V17.6429C15 16.2745 14.4392 14.9659 13.4483 14.0222L13.2247 13.8093C13.0181 13.6125 12.9054 13.3369 12.9149 13.0518L12.9678 11.4667C12.9857 10.9277 13.4014 10.6422 13.8704 10.9084C14.8819 11.4825 16.5467 12.4988 18.0123 12.8643C18.5482 12.998 19 12.5523 19 12C19 11.4477 18.547 11.0087 18.0087 10.8852C16.496 10.5382 15.1589 9.45301 14.5 8.3L13.7 7C13.14 6.11 12.02 5.75 11.05 6.16L7.94572 7.54607C6.91862 8.00468 6.2572 9.02435 6.2572 10.1492L6.25721 12.1286C6.25721 12.6099 6.64734 13 7.1286 13C7.60986 13 7.99999 12.6099 7.99999 12.1286V10.8987C7.99999 10.1028 8.44968 9.37516 9.16157 9.01921L9.19873 9.00063Z" fill="#2B5A51"/>
</svg>
