<svg width="15" height="26" viewBox="0 0 15 26" fill="none" xmlns="http://www.w3.org/2000/svg">
<path d="M8.52575 4.7093C9.8206 4.7093 10.88 3.64971 10.88 2.35465C10.88 1.05959 9.8206 0 8.52575 0C7.2309 0 6.17148 1.05959 6.17148 2.35465C6.17148 3.64971 7.2309 4.7093 8.52575 4.7093ZM3.46252 8.83072C3.84422 8.63984 4.27774 8.97368 4.19071 9.39148L1.18124 23.8393C1.02296 24.5991 1.60303 25.3125 2.37922 25.3125C2.94613 25.3125 3.43882 24.9231 3.5698 24.3715L4.95812 18.5251C5.23114 17.3753 6.65947 16.9706 7.49501 17.8063C7.77813 18.0895 7.93718 18.4735 7.93718 18.8739V24.1354C7.93718 24.7855 8.46421 25.3125 9.11432 25.3125C9.76443 25.3125 10.2915 24.7855 10.2915 24.1354V18.6252C10.2915 17.2569 9.73074 15.9485 8.74002 15.0048L8.14414 14.4372C7.9376 14.2404 7.8249 13.9649 7.83441 13.6798L7.90497 11.5626C7.92293 11.0236 8.34144 10.7287 8.81199 10.9922C9.9827 11.6479 12.0375 12.9305 13.8372 13.3794C14.4681 13.5368 15 13.0121 15 12.3619C15 11.7117 14.4666 11.1948 13.8329 11.0494C12.0523 10.6408 10.4784 9.36323 9.70289 8.00581L8.76118 6.47529C8.10198 5.42747 6.78359 5.00363 5.64177 5.48634L1.9878 7.11811C0.778635 7.65809 1.07587e-06 8.85857 2.7466e-06 10.1828L5.68707e-06 12.5135C6.4018e-06 13.08 0.45925 13.5392 1.02575 13.5392C1.59226 13.5392 2.0515 13.08 2.0515 12.5135V11.0652C2.0515 10.1282 2.58088 9.27161 3.41895 8.8525L3.46252 8.83072Z" fill="#BDBDBD"/>
</svg>
