<svg width="16" height="27" viewBox="0 0 16 27" fill="none" xmlns="http://www.w3.org/2000/svg">
<path d="M9.09414 5.02326C10.4753 5.02326 11.6054 3.89302 11.6054 2.51163C11.6054 1.13023 10.4753 0 9.09414 0C7.71296 0 6.58291 1.13023 6.58291 2.51163C6.58291 3.89302 7.71296 5.02326 9.09414 5.02326ZM3.69335 9.41943C4.1005 9.21583 4.56292 9.57193 4.47009 10.0176L1.25999 25.4286C1.09116 26.2391 1.7099 27 2.53783 27C3.14254 27 3.66807 26.5846 3.80779 25.9963L5.28866 19.7601C5.57988 18.5337 7.10343 18.102 7.99468 18.9934C8.29667 19.2954 8.46633 19.7051 8.46633 20.1322V25.7444C8.46633 26.4378 9.02849 27 9.72194 27C10.4154 27 10.9776 26.4378 10.9776 25.7444V19.724C10.9776 18.3558 10.4168 17.0473 9.42612 16.1036L8.66543 15.379C8.4589 15.1823 8.3462 14.9067 8.3557 14.6216L8.43411 12.269C8.45208 11.73 8.87312 11.4321 9.34439 11.6943C10.583 12.3835 12.8114 13.7854 14.7597 14.2714C15.4326 14.4393 16 13.8796 16 13.186C16 12.4925 15.4311 11.9411 14.7551 11.786C12.8558 11.3502 11.177 9.98745 10.3497 8.53954L9.34526 6.90698C8.64211 5.7893 7.23583 5.33721 6.01789 5.85209L2.12032 7.59265C0.830546 8.16863 1.14759e-06 9.44914 2.92971e-06 10.8617L6.06621e-06 13.3477C6.82858e-06 13.952 0.489866 14.4419 1.09414 14.4419C1.69841 14.4419 2.18827 13.952 2.18827 13.3477V11.8029C2.18827 10.8034 2.75294 9.88971 3.64688 9.44267L3.69335 9.41943Z" fill="white"/>
</svg>
