<svg width="13" height="22" viewBox="0 0 13 22" fill="none" xmlns="http://www.w3.org/2000/svg">
<path d="M7.24279 4C8.34279 4 9.24279 3.1 9.24279 2C9.24279 0.9 8.34279 0 7.24279 0C6.14279 0 5.24279 0.9 5.24279 2C5.24279 3.1 6.14279 4 7.24279 4ZM2.94153 7.50063C3.26578 7.33851 3.63402 7.62211 3.56008 7.97701L1.00353 20.2484C0.869047 20.894 1.36183 21.5 2.02123 21.5C2.50282 21.5 2.92135 21.1692 3.03263 20.7007L4.212 15.7349C4.44396 14.7582 5.65726 14.4145 6.36708 15.1243C6.60765 15.3649 6.74279 15.6911 6.74279 16.0313V20.5C6.74279 21.0523 7.19051 21.5 7.74279 21.5C8.29508 21.5 8.74279 21.0523 8.74279 20.5V16.1429C8.74279 14.7745 8.18197 13.4659 7.19107 12.5222L6.96752 12.3093C6.76094 12.1125 6.64823 11.8369 6.65773 11.5518L6.71057 9.96669C6.72854 9.42767 7.14421 9.1422 7.61324 9.40842C8.62466 9.98249 10.2895 10.9988 11.7551 11.3643C12.291 11.498 12.7428 11.0523 12.7428 10.5C12.7428 9.94771 12.2898 9.50869 11.7515 9.3852C10.2388 9.03819 8.90165 7.95301 8.24279 6.8L7.44279 5.5C6.88279 4.61 5.76279 4.25 4.79279 4.66L1.68852 6.04607C0.661415 6.50468 9.1402e-07 7.52435 2.33338e-06 8.64919L4.8311e-06 10.6286C5.43837e-06 11.1099 0.390141 11.5 0.871398 11.5C1.35266 11.5 1.74279 11.1099 1.74279 10.6286V9.39868C1.74279 8.60276 2.19248 7.87516 2.90437 7.51921L2.94153 7.50063Z" fill="#F27063"/>
</svg>
