<svg width="375" height="34" viewBox="0 0 375 34" fill="none" xmlns="http://www.w3.org/2000/svg">
<path d="M0.0357737 13.1698C1.48848 15.2227 9.58601 15.2174 12.1949 15.878C21.1581 18.1476 23.9082 11.6955 29.5643 8.27657C34.328 5.39709 50.8898 4.99653 56.2459 9.31906C61.4927 13.5535 62.4638 17.7944 71.5802 17.8744C80.1417 17.9495 83.9263 16.8902 89.3536 12.1941C91.1318 10.6555 97.1145 9.84437 99.5768 9.86598C104.511 9.90927 105.55 11.5548 109.486 13.3296C113.352 15.0725 115.091 15.2547 119.882 15.2967C125.327 15.3445 126.118 15.2859 129.848 12.3827C135.914 7.66031 148.038 5.88223 154.952 10.3518C156.575 11.4011 157.184 12.9931 159.235 13.7244C162.419 14.86 167.032 14.5572 170.476 15.3237C177.214 16.8237 183.338 17.5975 188.738 13.8165C194.527 9.76309 207.663 2.66917 215.034 7.87747C218.813 10.5479 221.993 13.2791 226.383 15.0639C233.849 18.0989 243.564 17.8686 250.793 14.1942C254.418 12.3521 257.32 10.5057 260.522 8.27657C264.834 5.27483 271.652 5.87531 276.68 6.9176C281.946 8.00931 287.317 12.1686 290.753 15.3368C295.719 19.9156 306.628 19.526 311.586 14.5608C314.499 11.6438 317.534 6.64636 323.016 6.57377C332.159 6.4527 340.212 3.31758 343.795 12.0503C345.619 16.4972 350.978 17.4582 356.048 18.0774C365.71 19.2574 366.918 9.96042 375.999 10.0401" stroke="#B2DBC3" stroke-width="4" stroke-linecap="round" stroke-linejoin="round"/>
<path d="M0.0599418 24.312C1.51622 26.3728 10.2361 25.1144 12.8674 25.7894C21.9075 28.1083 24.719 21.6715 30.4494 18.2838C35.2755 15.4306 47.7894 14.4982 53.1757 18.8502C58.4523 23.1134 59.4106 27.3597 68.6171 27.4899C77.2631 27.6122 81.0908 26.5738 86.5968 21.9077C88.4009 20.3788 94.4472 19.6007 96.9338 19.6359C101.917 19.7064 102.957 21.3576 106.923 23.1541C110.818 24.9182 112.574 25.11 117.412 25.1785C122.91 25.2563 123.71 25.202 127.492 22.3194C133.643 17.6306 145.897 15.9193 152.856 20.427C154.489 21.4851 155.097 23.0805 157.163 23.8231C160.373 24.9762 165.034 24.6989 168.507 25.4844C175.305 27.0215 181.486 27.829 186.959 24.0778C192.827 20.0564 206.131 13.0349 213.547 18.2838C217.349 20.975 220.546 23.7237 224.971 25.5327C232.495 28.6088 242.307 28.432 249.628 24.7975C253.298 22.9755 256.239 21.1451 259.485 18.9336C263.856 15.9557 270.738 16.5937 275.81 17.6637C281.123 18.7845 286.525 22.9733 289.978 26.1604C294.97 30.7665 305.989 30.437 311.023 25.4992C313.98 22.5983 317.071 17.6177 322.608 17.5753C331.842 17.5046 339.992 14.4139 343.564 23.1663C345.383 27.6232 350.79 28.6137 355.907 29.2609C365.658 30.4941 366.927 21.2039 376.098 21.3336" stroke="#B2DBC3" stroke-width="4" stroke-linecap="round" stroke-linejoin="round"/>
</svg>
